<svg width="940" height="710" xmlns="http://www.w3.org/2000/svg"><defs><linearGradient x1="50%" y1="0%" x2="50%" y2="100%" id="a"><stop stop-color="#E9E9E5" offset="0%"/><stop stop-color="#D4D6C8" offset="100%"/></linearGradient><linearGradient x1="62.509107%" y1="17.0120837%" x2="42.249009%" y2="96.8520089%" id="b"><stop stop-color="#050707" offset="0%"/><stop stop-color="#454A4A" offset="100%"/></linearGradient><linearGradient x1="53.3038626%" y1="18.8444527%" x2="45.5429508%" y2="56.8520514%" id="c"><stop stop-color="#050707" offset="0%"/><stop stop-color="#454A4A" offset="100%"/></linearGradient><linearGradient x1="12.2761346%" y1="37.0155088%" x2="82.1032304%" y2="56.6821454%" id="d"><stop stop-color="#F26651" offset="0%"/><stop stop-color="#C42810" offset="100%"/></linearGradient><linearGradient x1="12.2761346%" y1="45.4968164%" x2="82.1032304%" y2="52.3174514%" id="e"><stop stop-color="#C42810" offset="0%"/><stop stop-color="#E14E38" offset="100%"/></linearGradient><linearGradient x1="36.7597852%" y1="91.0424286%" x2="88.4060946%" y2="42.26603%" id="f"><stop stop-color="#F26651" offset="0%"/><stop stop-color="#C42810" offset="100%"/></linearGradient><linearGradient x1="50%" y1="3.71723366%" x2="50%" y2="100%" id="g"><stop stop-color="#C42810" offset="0%"/><stop stop-color="#F26651" offset="100%"/></linearGradient></defs><g fill="none" fill-rule="evenodd"><path d="M749.4273 662.4414h-558.854v-489.106c0-46.289 37.447-83.854 83.736-83.999l390.853-1.23c46.495-.146 84.265 37.504 84.265 84v490.335z" fill="url(#a)"/><path d="M146.55775768 272.28886463c-3.60190642-13.09523883 4.0928644-26.61900085 17.18862887-30.20677491 13.09377544-3.58798312 26.63031095 4.11919084 30.23221737 17.21442967" fill="#2B2B2B"/><path fill="#E5A5A1" d="M190.6898923 283.49741652l-12.99590336-.12713828-.28090723-32.54263476 12.99490882.12703375z"/><path d="M228.20048571 234.26304358c-1.78292847 8.3916033-10.03030504 13.75087636-18.42190834 11.9679479-8.39270236-1.78203848-13.75087637-10.03030504-11.9679479-18.42190835 1.78104395-8.39280688 10.03030503-13.75087637 18.42201287-11.96894242 8.3916033 1.78292847 13.75087637 10.03030504 11.96784337 18.42290287" fill="#2B2B2B"/><path d="M177.97051118 257.71032808l12.30107234 6.2118413c10.66361984 5.38414672 23.7998873 1.06660865 29.19298472-9.59607044 5.39299288-10.66168456 1.07969572-23.79046774-9.5838196-29.17560897l-12.30018234-6.21074226c-10.66351532-5.38514123-23.80088183-1.06671317-29.1928802 9.59507593-5.39299288 10.66168456-1.08079476 23.79135773 9.58282508 29.17550444" fill="#E5A5A1"/><path d="M204.00636604 245.41868125c.3372995-1.96550987 2.224405-3.26436892 4.2174509-2.9020541 1.99095233.3631003 3.3319994 2.2506179 2.99569444 4.2162323M217.83588879 247.3725634c.33729948-1.96550987 2.22440499-3.26436891 4.21645637-2.90215862 1.99194685.36320482 3.33299393 2.25072243 2.99679349 4.2153423" stroke="#2B2B2B" stroke-width="1.754"/><path d="M201.45863467 201.14915736c-2.6112922-.55499468-5.20935946-.55657531-7.67618229-.08484432-4.69559958.89809605-19.34480553 6.33160238-21.82957122 7.20365082-4.7354694 1.66010288-8.51526702 5.6790225-9.63404278 10.94693678-.30649962 1.44286623-.38421145 2.8806193-.27187408 4.28002786-3.69248205 1.40874779-6.62059043 4.59513247-7.50269186 8.74968685-1.04455725 4.91574299 1.07429205 9.7637811 4.97589598 12.44027187-.364186 7.07167155 4.43281039 13.56064147 11.5812403 15.07917454 7.9215528 1.68224325 15.70988166-3.37536079 17.39322395-11.29780358.75395797-3.54762418.14722795-7.06430951-1.45439074-10.02192639 2.731429.2921123 5.11634928.57093176 6.32214895.82737698 10.52698238 2.23561623 20.87323184-4.48572644 23.1089526-15.01370334 2.23561623-10.52698238-4.48572643-20.87323184-15.01270881-23.10884807" fill="#2B2B2B"/><path d="M184.55497141 237.27293405c-1.94054957 1.61601001-2.2033786 4.49933204-.58637407 6.43998614 1.61601 1.94054958 4.50043108 2.2024886 6.44098066.5864786 1.93965958-1.61710905 2.20149408-4.5005356.58637407-6.43998613-1.61700453-1.9406541-4.50032655-2.20348313-6.44098066-.5864786" fill="#E5A5A1"/><path d="M211.33753434 257.1176641c-.7031058 3.72390538-4.29157729 6.17121458-8.01448814 5.46821332-3.72479537-.70420485-6.17200005-4.29367086-5.4699933-8.01668624" fill="#FEFEFE"/><path d="M215.294944 250.384944c-1.761 1.81-1.721 4.705.09 6.466 1.81 1.761 4.705 1.72 6.466-.09 1.76-1.811 1.72-4.706-.09-6.466-1.811-1.761-4.705-1.721-6.466.09" fill="#E5A5A1"/><path d="M687.9283 231.9624c0-30.536 24.754-55.291 55.29-55.291 30.536 0 55.291 24.755 55.291 55.291v430.038" stroke="#231F20" stroke-width="9.48"/><path d="M92.0718 649.9258c-10.46-1.206-18.585-10.08-18.585-20.862 0-4.065 1.173-7.846 3.17-11.061-.008-.332-.018-.665-.018-.995l-5.917-1.432-20.86 46.866h56.734c-1.71-6.82-7.426-10.817-14.524-12.516M240.3013 662.4414c-2.091-8.344-9.618-14.531-18.609-14.531l-.002.001c-17.509-.411-31.577-14.734-31.577-32.342l-7.508-1.545-.194 48.417h57.89z" fill="#F26651"/><path d="M148.2749 518.3867l-73.068 102.682c-20.831-14.924-25.616-43.913-10.686-64.75l84.547-127.906-.793 89.974z" fill="url(#b)"/><path d="M136.9624 385.2959v-.418h-16.913c1.521 12.202 6.823 24.024 15.916 33.564l9.127 156.778c.203 25.633 19.901 46.247 45.534 46.045487V384.9469l-53.664.349z" fill="url(#c)"/><path d="M190.6265 274.518604s-.491.091396-20.326.000396c-16.99-.079-31.272 11.657-35.082 27.49l-33.513 83.854 88.921.452V274.518604z" fill="#F26651"/><path d="M607.8502 602.7139c.015 0 .028.003.044.003h-.106v59.725h10.864v-48.863h217.26v48.863h10.863v-59.725h.197c.015 0 .029-.003.044-.003h-239.166z" fill="#939387"/><path d="M846.7437 603.5469h.198c5.999 0 10.863-4.863 10.863-10.863v-103.199c0-5.999-4.864-10.862-10.863-10.862h-21.924v-32.589c0-11.98-9.746-21.726-21.726-21.726h-152.081c-11.98 0-21.727 9.746-21.727 21.726v32.589h-21.621c-5.999 0-10.863 4.863-10.863 10.862v103.199c0 6 10.759 10.863 10.759 10.863h238.985z" fill="#020303"/><path d="M642.5699 552.248h169.808v-30.3466c0-4.908867-3.988541-8.865823-8.843-8.865H651.4139c-4.854965 0-8.844 3.956692-8.844 8.865v30.3466zM641.7398 502.3902h169.808v-56.772c0-4.894309-3.968448-8.862-8.864-8.862h-152.081c-4.895304 0-8.863 3.967443-8.863 8.862v56.772z" stroke="#454A4A" stroke-width="4"/><path d="M677.3453 462.3281c2.999 0 5.431-2.432 5.431-5.432 0-3-2.432-5.431-5.431-5.431-3 0-5.432 2.431-5.432 5.431s2.432 5.432 5.432 5.432M677.3453 489.4854c2.999 0 5.431-2.432 5.431-5.431 0-3-2.432-5.431-5.431-5.431-3 0-5.432 2.431-5.432 5.431 0 2.999 2.432 5.431 5.432 5.431M775.1119 462.3281c2.999 0 5.432-2.432 5.432-5.432 0-3-2.433-5.431-5.432-5.431-3 0-5.432 2.431-5.432 5.431s2.432 5.432 5.432 5.432" fill="#454A4A"/><path d="M775.1119 489.4854c2.999 0 5.432-2.432 5.432-5.431 0-3-2.433-5.431-5.432-5.431-3 0-5.432 2.431-5.432 5.431 0 2.999 2.432 5.431 5.432 5.431" fill="#C45757"/><path d="M726.2281 462.3281c3 0 5.432-2.432 5.432-5.432 0-3-2.432-5.431-5.432-5.431-2.999 0-5.432 2.431-5.432 5.431s2.433 5.432 5.432 5.432" fill="#454A4A"/><path fill="#FFF" d="M467.817 255.1036h4.366v-77.476h-4.366z"/><path d="M469.9995 179.291c-4.216 0-7.646-3.43-7.646-7.645 0-4.216 3.43-7.646 7.646-7.646 4.217 0 7.646 3.43 7.646 7.646 0 4.215-3.429 7.645-7.646 7.645M469.9995 268.7846c-4.216 0-7.646-3.43-7.646-7.646 0-4.214 3.43-7.644 7.646-7.644 4.217 0 7.646 3.43 7.646 7.644 0 4.216-3.429 7.646-7.646 7.646" fill="#2B2B2B"/><path fill="#FFF" d="M431.287 218.5756h77.476v-4.366h-77.476z"/><path d="M514.7466 224.0376c-4.216 0-7.646-3.43-7.646-7.645 0-4.216 3.43-7.646 7.646-7.646 4.217 0 7.646 3.43 7.646 7.646 0 4.215-3.429 7.645-7.646 7.645M425.2534 224.0376c-4.217 0-7.646-3.43-7.646-7.645 0-4.216 3.429-7.646 7.646-7.646 4.216 0 7.646 3.43 7.646 7.646 0 4.215-3.43 7.645-7.646 7.645" fill="#2B2B2B"/><path fill="#FFF" d="M487.4644 251.0088l-38.738-67.095 3.782-2.183 38.737 67.095z"/><path d="M447.6392 185.2895c-.665 0-1.332-.087-1.99-.264-1.975-.529-3.622-1.794-4.644-3.563-1.02-1.767-1.291-3.828-.762-5.8.528-1.973 1.792-3.622 3.561-4.644 1.768-1.02 3.831-1.29 5.801-.763 1.973.529 3.621 1.793 4.642 3.563 1.021 1.768 1.292 3.828.763 5.801-.528 1.973-1.792 3.622-3.561 4.643-1.177.679-2.486 1.027-3.81 1.027M492.3863 262.7925c-.665 0-1.332-.087-1.991-.264-1.974-.529-3.621-1.793-4.643-3.562-1.02-1.769-1.292-3.829-.762-5.802.528-1.972 1.792-3.622 3.561-4.643 3.648-2.108 8.337-.851 10.442 2.799 1.022 1.769 1.292 3.83.764 5.802-.528 1.974-1.793 3.622-3.562 4.643-1.176.679-2.486 1.027-3.809 1.027" fill="#2B2B2B"/><path fill="#FFF" d="M437.565 237.6372l-2.183-3.78 67.097-38.738 2.183 3.782z"/><path d="M508.7652 201.6626c-2.646 0-5.22-1.371-6.636-3.821-2.105-3.652-.85-8.336 2.799-10.443 1.768-1.022 3.826-1.294 5.803-.765 1.972.529 3.621 1.794 4.642 3.563 1.021 1.768 1.292 3.828.763 5.801-.528 1.973-1.792 3.622-3.561 4.643-1.201.692-2.514 1.022-3.81 1.022M431.2622 246.4092c-2.644 0-5.221-1.371-6.636-3.82-1.02-1.769-1.292-3.828-.762-5.802.528-1.973 1.792-3.622 3.561-4.643 1.768-1.02 3.824-1.292 5.803-.764 1.972.529 3.621 1.794 4.642 3.563 2.106 3.652.851 8.337-2.798 10.445-1.201.692-2.514 1.021-3.81 1.021" fill="#2B2B2B"/><path fill="#FFF" d="M502.4341 237.6372l-67.097-38.736 2.184-3.782 67.097 38.738z"/><path fill="#F26651" d="M482.248 432.954h20.426v-88.311h-20.426z"/><path fill="#FEFEFE" d="M443 432.954h20.426v-77.31H443z"/><path fill="#939387" d="M462.422 432.954h20.426v-97.991h-20.426zM354.387 395.04l-.001-.04-1.232.019-1.233-.019-.001.04-18.92.308.411 25.399s2.468 11.134 12.339 11.482c3.771.133 11.037.133 14.808 0 9.871-.348 12.75-11.482 12.75-11.482v-25.399l-18.921-.308z"/><path fill="#2B2B2B" d="M373.044 432.954h70.289v-54.669h-70.289zM431.2349 201.6626c-1.296 0-2.609-.33-3.81-1.022-1.769-1.021-3.033-2.67-3.561-4.643-.529-1.973-.258-4.033.763-5.801 1.021-1.769 2.67-3.034 4.642-3.563 1.974-.529 4.033-.257 5.803.764 1.768 1.021 3.033 2.67 3.561 4.643.529 1.973.258 4.033-.762 5.802-1.416 2.449-3.991 3.82-6.636 3.82M508.7378 246.4092c-1.296 0-2.609-.329-3.81-1.021-3.649-2.108-4.904-6.793-2.798-10.444 1.021-1.77 2.67-3.035 4.642-3.564 1.977-.528 4.033-.256 5.803.764 1.769 1.021 3.033 2.67 3.561 4.643.53 1.974.258 4.033-.762 5.802-1.416 2.449-3.993 3.82-6.636 3.82"/><path fill="#FFF" d="M452.5357 251.0088l-3.781-2.183 38.737-67.095 3.781 2.183z"/><path d="M492.3609 185.2895c-1.324 0-2.633-.348-3.81-1.028-1.769-1.02-3.033-2.669-3.561-4.642-.529-1.973-.258-4.033.763-5.802 1.021-1.767 2.669-3.033 4.642-3.562 1.97-.526 4.031-.259 5.8.765 1.77 1.02 3.034 2.669 3.562 4.642.529 1.972.258 4.033-.763 5.801-1.021 1.769-2.668 3.034-4.643 3.563-.658.176-1.325.263-1.99.263M447.6138 262.7925c-1.323 0-2.633-.348-3.81-1.027-1.768-1.021-3.033-2.669-3.561-4.643-.528-1.972-.258-4.033.763-5.8 1.021-1.767 2.669-3.033 4.643-3.562 1.967-.533 4.03-.26 5.8.761 1.769 1.021 3.033 2.671 3.561 4.645.53 1.971.258 4.031-.762 5.8-1.022 1.769-2.669 3.033-4.643 3.562-.659.177-1.326.264-1.991.264" fill="#2B2B2B"/><path d="M485.8628 216.3862c0 8.761-7.103 15.863-15.862 15.863-8.761 0-15.864-7.102-15.864-15.863 0-8.76 7.103-15.862 15.864-15.862 8.759 0 15.862 7.102 15.862 15.862" fill="#FEFEFE"/><path d="M469.9995 234.4316c-9.95 0-18.044-8.095-18.044-18.045 0-9.951 8.094-18.045 18.044-18.045 9.951 0 18.047 8.094 18.047 18.045 0 9.95-8.096 18.045-18.047 18.045" fill="#FEFEFE"/><path fill="#2B2B2B" d="M470.7593 220.2129l-19.646-17.462 2.9-3.264 19.644 17.462z"/><path fill="#2B2B2B" d="M464.1978 220.6411l-1.441-4.121 43.655-15.279 1.441 4.121z"/><path d="M496.7417 203.25c1.044-.369 2.481 1.154 3.21 3.401.728 2.248.472 4.37-.572 4.739-1.045.369-2.482-1.154-3.21-3.402-.729-2.247-.472-4.369.572-4.738" fill="#FEFEFE"/><path d="M497.0679 198.8291h-.001c-.609 0-1.209.103-1.781.305-3.473 1.228-4.818 5.423-3.27 10.2 1.295 3.995 3.991 6.476 7.036 6.476.611 0 1.21-.102 1.783-.305 3.473-1.227 4.818-5.422 3.269-10.199-1.294-3.995-3.99-6.477-7.036-6.477M458.2447 193.9135h-.008l-5.023.009-3.2.005c-1.162.002-2.275.467-3.092 1.292-.819.824-1.274 1.941-1.266 3.103l.055 8.278c.012 1.766 1.087 3.352 2.723 4.016.532.216 1.089.321 1.641.321 1.148 0 2.274-.453 3.111-1.302l8.168-8.293c1.237-1.254 1.598-3.129.916-4.753-.68-1.621-2.267-2.676-4.025-2.676" fill="#2B2B2B"/><path d="M642.4673 298.2153h95.175c5.974 0 10.564-5.292 9.72-11.207l-7.013-49.091c-.691-4.837-4.833-8.43-9.719-8.43h-81.149c-4.886 0-9.029 3.593-9.72 8.43l-7.014 49.091c-.844 5.915 3.745 11.207 9.72 11.207" fill="#020303"/><path d="M747.9185 293.7769c0 5-25.878 9.053-57.799 9.053-31.922 0-57.8-4.053-57.8-9.053 0-4.999 25.878-9.052 57.8-9.052 31.921 0 57.799 4.053 57.799 9.052" fill="#FEFEFE"/><path d="M572.772438 369.4004c-1.666-.033-2.644-.435-3.15-.725-.628-.358-2.474-2.184-5.454-2.184-.135 0-.273.004-.414.012-3.222.181-5.395 2.064-6.084 5.541-1.516 7.661-5.396 14.377-11.154 21.657-5.759 7.279-11.625 14.739-20.57 22.091-7.63 6.27-13.871 11.444-16.007 13.002-1.664 1.211-.913 3.236.663 3.236.448 0 .964-.164 1.51-.557 1.603-1.156 11.722-9.402 24.626-10.828 4.205-.465 8.826-.95 13.297-1.894l7.223 13.003c.279.501.799.785 1.335.785.251 0 .506-.061.74-.193.738-.409 1.002-1.338.593-2.074l-6.811-12.26c9.255-2.508 17.243-7.562 18.571-19.423.836-7.463-2.681-14.268-3.55-17.418-.523-1.9-.502-4.698.363-6.302.76-1.412 2.005-1.919 3.911-2.065 3.73-.285 3.73-1.81 3.73-1.81s0-1.527-3.368-1.594" fill="#2B2B2B"/><path fill="#F26651" d="M579.6451 432.0439h-317.6v230.397h13.617v-38.468h290.434v38.468h13.617z"/><path fill="#2B2B2B" d="M427.3999 610.3848h-152.561l.076-165.104h152.559z"/><path fill="#F26651" d="M274.294 506.656h153.397V493.42H274.294z"/><path fill="#939387" d="M289.697 493.602h79.633v-20.426h-79.633z"/><path fill="#B3B4A7" d="M283.741 473.176h79.633v-14.81h-79.633z"/><path fill="#FEFEFE" d="M280.332 552.625h5.076v-35.012h-5.076zM286.467 552.625h5.077v-35.012h-5.077zM292.604 552.625h5.076v-35.012h-5.076zM298.74 552.625h5.077v-35.012h-5.077zM304.876 552.625h5.076v-35.012h-5.076zM311.012 552.625h5.077v-35.012h-5.077zM317.149 552.625h5.077v-35.012h-5.077zM323.285 552.625h5.077v-35.012h-5.077zM329.4566 518.1758l5.021-.744 5.135 34.632-5.021.745z"/><path fill="#F26651" d="M274.294 565.801h153.397v-13.237H274.294z"/><path fill="#FEFEFE" d="M426.748 610.385h139.661V445.281H426.748z"/><path d="M546.5963 498.2266c-3.658 0-6.618-2.964-6.618-6.619v-19.855c0-3.654 2.96-6.618 6.618-6.618 3.658 0 6.618 2.964 6.618 6.618v19.855c0 3.655-2.96 6.619-6.618 6.619" fill="#2B2B2B"/><path d="M395.0816 528.1729H351.2266s4.806 24.331 18.022 24.331h27.034c13.217 0 18.023-24.331 18.023-24.331h-19.224z" fill="#D4D6C8"/><path fill="#939387" d="M279.5445 610.3838v-39.338h141.755v39.339z"/><path d="M307.9722 590.7148c0 4.646-3.766 8.411-8.411 8.411s-8.41-3.765-8.41-8.411c0-4.645 3.765-8.41 8.41-8.41s8.411 3.765 8.411 8.41" fill="#2B2B2B"/><path fill="#FEFEFE" d="M382.322 423.707h51.732v-36.175h-51.732z"/><path d="M362.6275 369.3174c-1.885-1.625-4.513-1.777-6.522-.597v-.028l-4.391 2.621c.261-.305.506-.629.727-.976.553-.865.926-1.79 1.148-2.736l2.774-11.123c.288-1.991-.569-4.066-2.394-5.233-1.984-1.268-4.465-1.055-6.187.322l-.003-.027-1.356 1.101-.104-6.761c-.001-.049-.004-.098-.01-.146-.172-1.242-1.031-2.342-2.32-2.752-1.427-.455-2.919.082-3.753 1.21l-.006-.016-2.285 3.138c-.203-.465-.464-.889-.773-1.264l-4.291-5.35c-.843-.858-2.136-1.199-3.345-.75-1.313.489-2.101 1.751-2.064 3.072l-.014-.009.231 6.564c.004.216.025.433.054.65l-2.221.054c-1.469.185-2.773 1.198-3.245 2.721-.511 1.654.123 3.373 1.437 4.325l-.019.008 5.923 4.23-4.622.955c-2.027.637-3.611 2.404-3.887 4.678-.3 2.47 1.036 4.736 3.135 5.747l-.024.015 8.465 4-6.404 2.538c-2.22 1.152-3.696 3.521-3.551 6.214.156 2.923 2.168 5.279 4.809 6.022l-.025.022 13.145 3.601c1.16.343 2.391.509 3.665.442 2.984-.156 5.624-1.5 7.507-3.553 2.369-.192 4.657-1.266 6.322-3.193.708-.819 1.239-1.731 1.613-2.687l4.579-11.214c.601-2.039.017-4.339-1.718-5.835" fill="#2B2B2B"/><path d="M371.4966 394.7266c.317-1.732-.527-3.4-1.963-4.216l.018-.01-3.162-1.766c.279.052.563.087.854.1.723.034 1.419-.065 2.074-.264l7.76-2.237c1.315-.528 2.273-1.789 2.332-3.323.065-1.666-.949-3.114-2.401-3.682l.014-.012-1.153-.443 4.078-2.458c.03-.017.059-.037.086-.058.694-.546 1.058-1.462.848-2.399-.233-1.037-1.091-1.762-2.075-1.875l.007-.009-2.724-.291c.211-.289.375-.6.493-.923l1.726-4.529c.222-.821-.031-1.735-.736-2.318-.765-.633-1.815-.67-2.605-.18v-.01l-3.913 2.466c-.131.079-.255.168-.377.263l-.826-1.345c-.635-.835-1.717-1.277-2.813-1.027-1.189.272-2.009 1.27-2.12 2.413l-.011-.009-.464 5.134-2.229-2.499c-1.111-1.018-2.751-1.364-4.234-.729-1.61.691-2.513 2.313-2.38 3.96l-.018-.01.584 6.612-3.829-3.031c-1.493-.955-3.462-1.022-5.049.02-1.724 1.132-2.439 3.202-1.951 5.085l-.023-.007 2.496 9.344c.206.833.543 1.648 1.038 2.407 1.159 1.776 2.919 2.92 4.84 3.349.961 1.386 2.432 2.41 4.198 2.75.752.145 1.496.147 2.212.038l8.459-1.161c1.456-.352 2.647-1.525 2.939-3.12M331.7476 405.4268l-4.29 7.151c-.877 1.173-2.389 1.799-3.936 1.461-1.679-.368-2.854-1.754-3.037-3.348l-.015.012-.136-1.264-3.535 3.425c-.026.025-.052.048-.08.07-.729.55-1.74.675-2.618.222-.974-.5-1.47-1.543-1.321-2.553l-.011.005.432-2.79c-.345.134-.698.217-1.052.252l-4.976.545c-.879.008-1.724-.482-2.118-1.334-.429-.928-.188-1.983.512-2.643l-.011-.004 3.499-3.258c.113-.109.235-.211.362-.307l-1.122-1.17c-.665-.852-.819-2.044-.279-3.07.586-1.116 1.799-1.673 2.97-1.486l-.006-.015 5.246.871-1.902-2.869c-.722-1.372-.632-3.095.396-4.408 1.116-1.425 2.975-1.904 4.582-1.344l-.004-.02 6.442 2.297-2.009-4.601c-.557-1.734-.1-3.714 1.36-5.024 1.587-1.424 3.842-1.601 5.592-.624l-.001-.026s8.93 5.092 9.068 5.177c3.405 1.651 6.084 4.596 6.199 8.568.045 1.536-.403 2.919-.93 4.276-.188.532-3.813 9.474-3.813 9.474-.738 1.36-2.225 2.243-3.894 2.12-1.813-.134-3.252-1.408-3.685-3.049l-.015.014-.924-3.608c-.022.291-.062.584-.126.878-.159.727-.442 1.396-.814 1.997" fill="#2B2B2B"/><path d="M355.1236 392.7627l6.602.876c1.136.27 2.071 1.178 2.305 2.416.256 1.345-.394 2.643-1.511 3.28l.015.008-.888.499 3.625 1.502c.027.011.052.023.078.037.631.359 1.04 1.059.983 1.844-.064.87-.676 1.563-1.465 1.773l.007.007-2.187.567c.208.209.379.441.515.689l1.96 3.467c.28.639.185 1.413-.319 1.972-.547.606-1.399.763-2.104.46l.002.009-3.491-1.528c-.116-.049-.229-.107-.34-.169l-.509 1.191c-.418.756-1.246 1.246-2.17 1.175-1.003-.076-1.793-.787-2.022-1.702l-.009.008-1.001-4.111-1.514 2.298c-.783.961-2.079 1.441-3.365 1.105-1.397-.366-2.332-1.574-2.424-2.927l-.012.01-.328-5.439-2.754 2.925c-1.102.956-2.7 1.248-4.12.594-1.544-.71-2.38-2.304-2.21-3.892l-.018.009s.947-8.142.967-8.269c.148-3.013 1.474-5.904 4.359-7.245 1.115-.517 2.273-.626 3.435-.67.45-.031 8.16-.208 8.16-.208 1.23.11 2.345.918 2.777 2.177.469 1.368-.016 2.824-1.089 3.66l.016.006-2.363 1.817c.22-.076.448-.139.684-.185.585-.115 1.165-.119 1.723-.036" fill="#2B2B2B"/><path d="M311.0845 374.2148c4.691-6.574 3.165-15.705-3.409-20.396-5.631-4.017-13.136-3.469-18.121.901l-28.844 21.422 32.452 23.153s17.769-24.864 17.922-25.08" fill="#F26651"/><path d="M291.5122 356.2217c.378-3.023-.289-6.19-2.122-8.918-4.033-6-12.168-7.596-18.17-3.564-6.002 4.031-7.598 12.163-3.563 18.164 1.833 2.727 4.514 4.541 7.458 5.334" stroke="#F26651" stroke-width="3.899"/><path d="M295.8091 390.6162l47.364-6.343" stroke="#F26651" stroke-width="7.018"/><path d="M269.1167 350.1948l-14.35-.372.01-10.264c.298-2.777 2.335-13.781 15.885-13.429l14.351.372-.011 10.264c-.299 2.777-2.336 13.781-15.885 13.429" fill="#E5A5A1"/><path d="M255.0025 370.1074c-46.237246-.161508-84.961129-33.580904-93.520716-77.53576-1.139017-5.849038 3.452274-18.034969 6.059053-18.025834 5.110592.01791 12.77648.044774 22.997663.080594.101 35.487 28.981 64.46 64.377 64.583l.087 30.898z" fill="#F26651"/><path d="M362.7437 358.3379c2.829 1.624 6.422.657 8.024-2.16.335-.589.55-1.212.665-1.844l1.437-7.092-.017.006c.28-1.429-.349-2.943-1.688-3.711-1.234-.708-2.7-.571-3.772.21l-5.628 5.039c-.482.42-.908.923-1.242 1.511-1.602 2.817-.608 6.417 2.221 8.041M355.2935 343.9985c3.27-.551 5.539-3.582 5.07-6.77-.097-.666-.312-1.282-.613-1.841l-3.255-6.371-.009.015c-.665-1.277-2.107-2.042-3.653-1.781-1.424.24-2.511 1.28-2.882 2.562l-1.368 7.459c-.125.631-.153 1.288-.056 1.954.469 3.187 3.498 5.324 6.766 4.773M354.1245 373.3281c2.74-1.753 3.456-5.39 1.6-8.123-.389-.57-.862-1.052-1.387-1.448l-5.831-4.577-.002.017c-1.18-.912-2.841-1.06-4.138-.23-1.193.763-1.721 2.128-1.485 3.441l2.094 7.338c.168.624.437 1.235.825 1.806 1.857 2.733 5.584 3.528 8.324 1.776" fill="#FEFEFE"/><path d="M732.9667 487.7474c-9.432 0-17.078 7.645-17.078 17.077 0 9.431-4.7064 15.2684 4.7256 15.2684 6.214 0 49.2704 1.8086 56.4624 1.8086 12.991 0 23.522-10.53 23.522-23.522 0-12.991-10.531-23.522-23.522-23.522-19.836 0-25.628 12.89-44.11 12.89z" fill="url(#d)"/><path d="M729.908848 509.165721h-8.818018c.82487-.96265 1.329496-2.224322 1.329496-3.609382 0-3.018008-2.373252-5.463539-5.299652-5.463539h-38.612522c-2.927478 0-5.299652 2.445531-5.299652 5.463539 0 3.016897 2.372174 5.46354 5.299652 5.46354h8.818018c-.82487.96265-1.329496 2.224322-1.329496 3.609382 0 3.018008 2.37433 5.463539 5.299652 5.463539h38.612522c2.927478 0 5.299652-2.445531 5.299652-5.463539s-2.372174-5.46354-5.299652-5.46354" fill="url(#e)"/><path d="M779.848371 544.943945c-3.438 0-6.869-.71-10.115-2.127l-10.585-4.622c-2.655-1.16-3.868-4.253-2.709-6.909 1.159-2.657 4.254-3.868 6.91-2.71l10.584 4.623c3.623 1.581 7.644 1.657 11.325.214 3.679-1.444 6.576-4.235 8.156-7.86 3.265-7.482-.167-16.227-7.648-19.494-2.656-1.161-3.869-4.254-2.709-6.91 1.159-2.656 4.253-3.869 6.909-2.709 12.783 5.582 18.646 20.525 13.069 33.31-2.702 6.195-7.654 10.965-13.944 13.433-2.994 1.175-6.121 1.761-9.243 1.761" fill="url(#f)"/><path d="M739.44 473.7002l-13.933 7.979c-.364-.028-9.421-.028-9.786 0l-13.931-7.979v25.568c0 8.268 6.763 15.032 15.031 15.032h7.588c8.267 0 15.031-6.764 15.031-15.032v-25.568z" fill="url(#g)"/><path d="M716.649 498.29c0 1.994-1.622 3.597-3.623 3.58-2.002-.016-3.624-1.645-3.624-3.64M731.8912 498.29c0 1.994-1.622 3.597-3.624 3.58-2.001-.016-3.624-1.645-3.624-3.64" stroke="#2B2B2B" stroke-width="1.754"/><path fill="#2B2B2B" d="M720.6148 509.0596l2.538-3.396h-5.077z"/></g></svg>