<?xml version="1.0" encoding="utf-8"?>
<!-- Generator: Adobe Illustrator 27.5.0, SVG Export Plug-In . SVG Version: 6.00 Build 0)  -->
<svg version="1.1" id="Layer_1" xmlns="http://www.w3.org/2000/svg" xmlns:xlink="http://www.w3.org/1999/xlink" x="0px" y="0px"
	 viewBox="0 0 910 630" style="enable-background:new 0 0 910 630;" xml:space="preserve">
<style type="text/css">
	.st0{fill:#FEFEFE;}
	.st1{fill:none;stroke:#5E5E5C;stroke-width:13;}
	.st2{fill:#2B2B2B;}
	.st3{fill:#5E5E5C;}
	.st4{fill:#E5A5A1;}
	.st5{fill:url(#Fill-35_00000060031812126214053340000006967101977969534084_);}
	.st6{fill:#9D9C91;}
	.st7{fill:#939387;}
	.st8{fill:url(#Fill-51_00000095331468938002831860000017368845894747802796_);}
	.st9{fill:url(#Fill-54_00000062879000882647231990000016240494160774062743_);}
	.st10{fill:url(#Fill-62_00000097500391621254629640000017036804746852554428_);}
	.st11{fill:#F16651;}
	.st12{fill:#C2865E;}
	.st13{fill:url(#Fill-66_00000067205277604677934680000010237773646154921651_);}
	.st14{fill:none;stroke:#EE614B;stroke-width:7;stroke-linecap:round;}
	.st15{fill:#EE614B;}
	.st16{fill:url(#Fill-94_00000079454204363201797300000001041630268779521941_);}
	.st17{fill:#D33F27;}
</style>
<g>
	<circle id="Oval" class="st0" cx="364.6" cy="240.9" r="3.7"/>
	<path id="Stroke-1" class="st1" d="M744.8,612.1v-62.9"/>
	<path id="Stroke-2" class="st1" d="M206.6,611.8V538"/>
	<path id="Fill-3" class="st2" d="M779.5,527.2H274.1V364.8h471.7c18.6,0,33.7,15.1,33.7,33.7V527.2z"/>
	<path id="Fill-5" class="st2" d="M172.4,527.2h505.4V364.8H206.1c-18.6,0-33.7,15.1-33.7,33.7V527.2z"/>
	<path id="Fill-7" class="st3" d="M556.7,364.8v73.5h-88.2v-73.5h-7.1v80.5h3.5v10.6c0,1.9,1.6,3.5,3.5,3.5c1.9,0,3.5-1.6,3.5-3.5
		v-10.6h5.6v10.6c0,1.9,1.6,3.5,3.5,3.5c1.9,0,3.5-1.6,3.5-3.5v-10.6h5.6v10.6c0,1.9,1.6,3.5,3.5,3.5s3.5-1.6,3.5-3.5v-10.6h5.6
		v10.6c0,1.9,1.6,3.5,3.5,3.5s3.5-1.6,3.5-3.5v-10.6h5.6v10.6c0,1.9,1.6,3.5,3.5,3.5c1.9,0,3.5-1.6,3.5-3.5v-10.6h5.6v10.6
		c0,1.9,1.6,3.5,3.5,3.5c1.9,0,3.5-1.6,3.5-3.5v-10.6h5.6v10.6c0,1.9,1.6,3.5,3.5,3.5c1.9,0,3.5-1.6,3.5-3.5v-10.6h5.6v10.6
		c0,1.9,1.6,3.5,3.5,3.5s3.5-1.6,3.5-3.5v-10.6h3.5v-80.5H556.7z"/>
	<path id="Fill-9" class="st3" d="M281.9,455c0-2.2,1.8-4.1,4.1-4.1c2.2,0,4.1,1.8,4.1,4.1s-1.8,4.1-4.1,4.1S281.9,457.3,281.9,455
		 M276.6,455c0,5.1,4.2,9.4,9.4,9.4c5.1,0,9.4-4.2,9.4-9.4s-4.2-9.4-9.4-9.4C280.7,445.6,276.6,449.9,276.6,455"/>
	<path id="Fill-11" class="st3" d="M217.1,436.1c-1.9-14.8-4.9-38-4.8-41.4c0-3.5,1.4-4.9,4.6-4.9c2,0,9.7,1.5,14.1,2.4h50.9
		c4.4-1,12.1-2.4,14.1-2.4c3.2,0,4.6,1.4,4.7,4.9c0,2.6-1.6,16.6-3.1,28.4h-36.4c-1.8-0.2-11.9-1.5-14.9-1.5c-8.9,0-10,5.1-10.1,7.4
		c-0.1,3,3.7,21.2,4.8,26.1c-1.1,4.9-4.9,23.1-4.8,26.1c0,0.5,0.1,1.3,0.3,2h-19.8c-3.2,0-4.6-1.4-4.6-4.9
		c-0.1-3.7,3.4-31.2,4.8-41.4v-0.7H217.1z M246.7,455l-0.1-0.5c-2.4-11.1-4.8-23.8-4.8-25.5c0-0.5,0-2.1,4.7-2.1
		c2.4,0,11.1,1.1,14.3,1.5h50.4c3.2-0.4,12-1.5,14.3-1.5c4.6,0,4.6,1.6,4.6,2.1c0,1.7-2.5,14.3-4.8,25.5l-0.1,0.5l0.1,0.5
		c2.4,11.1,4.8,23.8,4.8,25.5c0,0.5,0,2.1-4.6,2.1h-79.1c-4.6,0-4.6-1.6-4.7-2.1c0-1.7,2.5-14.3,4.8-25.5L246.7,455L246.7,455z
		 M211.8,436.5c-0.6,5.1-4.9,37.1-4.8,41.9c0.1,6.4,3.9,10.2,10.1,10.2h108.4c8.9,0,10-5.1,10.1-7.4c0.1-3-3.7-21.2-4.8-26.1
		c1.1-4.9,4.9-23.1,4.8-26.1c0-2.2-1.2-7.4-10.1-7.4c-3,0-13.1,1.3-14.9,1.5h-7.7c1.4-11.1,3.1-25.4,3.1-28.4
		c-0.1-6.4-3.9-10.2-10.1-10.2c-3.1,0-12.8,2-15,2.5h-49.1c-2-0.4-11.9-2.5-15-2.5c-6.2,0-10,3.9-10.1,10.2
		C206.9,399.3,211,431.2,211.8,436.5L211.8,436.5z"/>
	<path id="Fill-13" class="st3" d="M757.7,564.5H194.3c-12.1,0-21.8-9.8-21.8-21.8V503c0-12.1,9.8-21.8,21.8-21.8h563.3
		c12.1,0,21.8,9.8,21.8,21.8v39.7C779.5,554.8,769.8,564.5,757.7,564.5"/>
	<path id="Fill-15" class="st2" d="M630.3,557c-4.5-5.7-4.8-13.9-0.2-19.9c8.8-12,6.4-28.7-5.5-37.8l2.8-5.8l32.5,24.7L630.3,557
		L630.3,557z"/>
	<path id="Fill-17" class="st2" d="M722.8,290.9c5.9,14.3-1,30.7-15.3,36.6l1.6-29.2L722.8,290.9"/>
	<path id="Fill-19" class="st4" d="M716.8,312.8v-13.3c0-9.7-7.9-17.7-17.7-17.7c-9.7,0-17.7,7.9-17.7,17.7v13.3
		c0,8.5,5.9,15.4,13.7,17.2l-2.1,24.3l9.1,0.7l2.2-25.4C711.5,327.5,716.8,320.8,716.8,312.8"/>
	<path id="Fill-21" class="st0" d="M701.7,316.1c0,4.2-3.4,7.5-7.5,7.5c-4.1,0-7.5-3.4-7.5-7.5H701.7z"/>
	<path id="Fill-23" class="st2" d="M715.2,285.5c-13.4,0.6-13.5-15.3-28.6-15.1c-6.9,0.1-12.4,5.6-12.4,12.4s5.7,13.4,12.4,12.4
		c25.5-4,19.2,6.3,28.6,6.3c4.4,0,8-3.6,8-8S719.5,285.3,715.2,285.5"/>
	<path id="Fill-25" class="st4" d="M721.3,305.3c0,2.1-1.8,4-4,4s-4-1.8-4-4c0-2.1,1.8-4,4-4S721.3,303.2,721.3,305.3"/>
	<path id="Fill-27" class="st2" d="M692.1,311.8h-2c-1.4,0-2.6-1.2-2.6-2.6v-4.8c0-1.6-1.2-3-2.7-3.1c-0.9-0.1-1.7,0.2-2.2,0.7
		c-0.6,0.5-1,1.4-1,2.2h-2.2c0-1.5,0.6-2.9,1.7-3.9c1.1-1,2.6-1.5,4-1.3c2.7,0.2,4.7,2.6,4.7,5.4v4.8c0,0.2,0.2,0.3,0.3,0.3h2V311.8
		z"/>
	<path id="Fill-29" class="st2" d="M706.7,304.2h-2.2c0-1.6-1.3-3-3-3c-1.6,0-3,1.3-3,3h-2.2c0-2.9,2.4-5.2,5.2-5.2
		S706.7,301.3,706.7,304.2"/>
	<path id="Fill-31" class="st2" d="M473.2,611.4c1.7-7.1,8.1-12.3,15.7-12.3c14.8-0.3,26.7-12.4,26.7-27.3l6.3-1.3l0.2,40.9H473.2z"
		/>
	<path id="Fill-33" class="st4" d="M569.8,375.8l-13.7,0.3l-0.2-9.5c0.2-2.6,1.9-12.8,14.9-13.2l13.7-0.3l0.2,9.5
		C584.4,365.2,582.7,375.6,569.8,375.8"/>
	
		<linearGradient id="Fill-35_00000145740351652590381760000014925647455544071571_" gradientUnits="userSpaceOnUse" x1="186.0644" y1="-162.5766" x2="187.4444" y2="-162.5766" gradientTransform="matrix(99.828 0 0 23.836 -17989.9941 4229.1802)">
		<stop  offset="0" style="stop-color:#939387"/>
		<stop  offset="1" style="stop-color:#5E5E5C"/>
	</linearGradient>
	<path id="Fill-35" style="fill:url(#Fill-35_00000145740351652590381760000014925647455544071571_);" d="M691.2,366.8l-106.7-0.3
		v-25.3l106.8,0.3L691.2,366.8z"/>
	<path id="Fill-46" class="st6" d="M882.2,531.3c0,3.5-2.9,6.4-6.4,6.4c-3.5,0-6.4-2.9-6.4-6.4c0-3.5,2.9-6.4,6.4-6.4
		C879.3,524.9,882.2,527.8,882.2,531.3"/>
	<path id="Fill-49" class="st3" d="M172.4,420h35.3c11.2,0,20.3,9.1,20.3,20.3v79.2h-55.7V420z"/>
	<path id="Fill-50" class="st7" d="M724.4,368.9c0-15.6-12.6-28.3-28.3-28.3c-13.4,0-24.5,9.3-27.5,21.7l-20.2,78.5l75.9,12.1
		C724.3,453.1,724.4,369.5,724.4,368.9"/>
	
		<linearGradient id="Fill-51_00000120518074388331217490000009281728665722189471_" gradientUnits="userSpaceOnUse" x1="187.8228" y1="-159.8648" x2="187.2512" y2="-159.602" gradientTransform="matrix(230.4924 0 0 132.6677 -42640.8438 21702.3555)">
		<stop  offset="0" style="stop-color:#B32712"/>
		<stop  offset="1" style="stop-color:#F16651"/>
	</linearGradient>
	<path id="Fill-51" style="fill:url(#Fill-51_00000120518074388331217490000009281728665722189471_);" d="M726.1,446.8
		c-1.1-0.3-2.2-0.6-3.3-0.7c-96.2-28.5-198.3,25.5-228.6,121.6l40.6,12.7C554.5,518,613.5,478.6,676,481h58.5v1.4
		c2.4-2.4,4.3-5.2,5.4-8.7C743.4,462.5,737.3,450.4,726.1,446.8"/>
	<path id="Fill-52" class="st3" d="M779.5,420h-35.3c-11.2,0-20.3,9.1-20.3,20.3v79.2h55.7V420z"/>
	<path id="Fill-53" class="st7" d="M713,350.4l-6.4-15h-18.2l-6.4,9.6L713,350.4z"/>
	
		<linearGradient id="Fill-54_00000021096756243682692800000008186634894739800708_" gradientUnits="userSpaceOnUse" x1="186.014" y1="-160.1575" x2="185.7114" y2="-159.1942" gradientTransform="matrix(77.9516 0 0 161.071 -14135.4814 26206.418)">
		<stop  offset="0" style="stop-color:#939387"/>
		<stop  offset="1" style="stop-color:#FEFEFE"/>
	</linearGradient>
	<path id="Fill-54" style="fill:url(#Fill-54_00000021096756243682692800000008186634894739800708_);" d="M390.5,484.2l-65.4,91.9
		c-18.6-13.4-22.9-39.3-9.5-57.9l75.7-114.4L390.5,484.2L390.5,484.2z"/>
	<path id="Fill-55" class="st2" d="M396.2,210.2c0,13.4-10.8,24.2-24.2,24.2c-13.4,0-24.2-10.8-24.2-24.2S358.7,186,372,186
		C385.4,186,396.2,196.8,396.2,210.2"/>
	<path id="Fill-56" class="st2" d="M414.2,210.5c0,8.5-6.9,15.3-15.3,15.3c-8.5,0-15.3-6.9-15.3-15.3s6.9-15.3,15.3-15.3
		C407.4,195.2,414.2,202,414.2,210.5"/>
	<path id="Fill-57" class="st2" d="M374.6,235.7c0,12-9.7,21.6-21.6,21.6c-12,0-21.6-9.7-21.6-21.6c0-12,9.7-21.6,21.6-21.6
		C365,214,374.6,223.7,374.6,235.7"/>
	<path id="Fill-58" class="st2" d="M395,264.7c0,13.9-11.2,25.2-25.2,25.2c-13.9,0-25.2-11.2-25.2-25.2c0-13.9,11.2-25.2,25.2-25.2
		C383.7,239.6,395,250.9,395,264.7"/>
	<path id="Fill-59" class="st2" d="M424.9,244.5c0,13.9-11.2,25.2-25.2,25.2s-25.2-11.2-25.2-25.2c0-13.9,11.2-25.2,25.2-25.2
		S424.9,230.6,424.9,244.5"/>
	<path id="Fill-60" class="st2" d="M340.1,601.6c-9.3-1.1-16.6-9-16.6-18.6c0-3.6,1.1-7.1,2.8-9.8v-0.9h-5.9l-18.1,40.7h50.7
		C351.6,606.6,346.5,603.1,340.1,601.6"/>
	<path id="Fill-61" class="st2" d="M470.4,611.4c-1.7-7.1-8.1-12.3-15.7-12.3c-14.8-0.3-26.7-12.4-26.7-27.3l-6.3-1.3l-0.2,40.9
		H470.4z"/>
	
		<linearGradient id="Fill-62_00000037671330563300843340000012262133362109385879_" gradientUnits="userSpaceOnUse" x1="185.0076" y1="-160.1194" x2="185.0076" y2="-159.0484" gradientTransform="matrix(59.007 0 0 197.6335 -10519.9658 32009.7129)">
		<stop  offset="0" style="stop-color:#939286"/>
		<stop  offset="1" style="stop-color:#FEFEFE"/>
	</linearGradient>
	<path id="Fill-62" style="fill:url(#Fill-62_00000037671330563300843340000012262133362109385879_);" d="M380.3,365.1v-0.3h-15.1
		c1.4,10.9,6.1,21.5,14.2,30.1l8.1,140.3c0.2,22.9,17.8,41.4,40.8,41.2V364.8L380.3,365.1z"/>
	<path id="Fill-63" class="st11" d="M547.4,266.8c-0.5-3.3-3.6-5.7-7-5.2c-2.9,0.4-5,2.8-5.2,5.6l-2,17.6H550
		C550,284.7,547.4,266.9,547.4,266.8"/>
	<path id="Fill-64" class="st12" d="M537,284.2l13.7-0.1l0.1,9.5c-0.2,2.6-2.1,12.8-15.1,13l-13.7,0.1l-0.1-9.5
		C522.2,294.5,524.1,284.3,537,284.2"/>
	
		<linearGradient id="Fill-66_00000096033501116067474060000012485535479237326752_" gradientUnits="userSpaceOnUse" x1="186.1088" y1="-160.9586" x2="186.791" y2="-160.8683" gradientTransform="matrix(122.592 0 0 50.051 -22441.3594 8359.5791)">
		<stop  offset="0" style="stop-color:#CDCDC8"/>
		<stop  offset="1" style="stop-color:#FFFFFF"/>
	</linearGradient>
	<path id="Fill-66" style="fill:url(#Fill-66_00000096033501116067474060000012485535479237326752_);" d="M476,334.3
		c-4.4,0-8.9-0.3-13.3-1c-24.8-3.5-46.7-16.5-61.8-36.5l21.5-16.2c10.7,14.2,26.3,23.4,44,26c17.7,2.5,35.2-2,49.6-12.7l16.2,21.5
		C515.7,327.7,496.1,334.3,476,334.3"/>
	<path id="Fill-65" class="st0" d="M364.4,298.5c0.5-17.8,15.3-31.7,33-31.3c15.2,0.4,27.6,11.3,30.6,25.6l15.6,71.9h-83.2
		C360.5,364.8,364.3,299.1,364.4,298.5"/>
	<path id="Stroke-67" class="st14" d="M411.9,366.3l-9.8-98.5"/>
	<path id="Fill-68" class="st12" d="M368.9,239.1c0,0-0.7-13.2-0.7-13.3c-0.5-9.7,7-18.1,16.7-18.6s18.1,7,18.6,16.7
		c0,0,0.7,13.2,0.7,13.3c0.4,8.4-5,15.7-12.8,18l3.4,24.1l-9,1.3l-3.5-25.3C375,253.5,369.4,247.1,368.9,239.1"/>
	<path id="Fill-69" class="st0" d="M384.3,241.7c0.2,4.2,3.7,7.4,7.9,7.2s7.4-3.7,7.2-7.9L384.3,241.7z"/>
	<path id="Fill-70" class="st12" d="M368.2,235.4c2.1-0.1,3.9-1.9,3.7-4.2c-0.1-2.1-1.9-3.9-4.2-3.7c-2.1,0.1-3.9,1.9-3.7,4.2
		C364.1,233.8,366.1,235.5,368.2,235.4z"/>
	<path id="Fill-71" class="st2" d="M393.6,236.8l2-0.1c1.4-0.1,2.6-1.3,2.5-2.8l-0.2-4.8c-0.1-1.6,1-3.1,2.5-3.3
		c0.9-0.1,1.7,0.1,2.4,0.6s1.1,1.3,1.1,2.1l2.2-0.1c-0.1-1.5-0.7-2.8-1.9-3.7c-1.2-1-2.6-1.3-4.1-1.1c-2.6,0.4-4.6,2.9-4.4,5.6
		l0.2,4.8c0,0.2-0.1,0.4-0.3,0.4l-2,0.1L393.6,236.8L393.6,236.8z"/>
	<path id="Fill-72" class="st2" d="M378.6,230l2.2-0.1c-0.1-1.6,1.2-3,2.8-3.1c1.6-0.1,3,1.2,3.1,2.8l2.2-0.1
		c-0.1-2.9-2.6-5-5.5-4.9C380.6,224.6,378.5,227.1,378.6,230"/>
	<path id="Fill-73" class="st2" d="M387.4,193.3c6.5,10,3.3,23.7-7.3,30.6c-10.6,7-24.5,4.5-31-5.5"/>
	<path id="Fill-74" class="st2" d="M163.3,486.2c-1.6-2.1-4.1-3.3-6.7-3.3H87.4v-27.1c0-9.6-7.9-17.6-17.6-17.6H51.4
		c-2.2,0-4.1,1.8-4.1,4.1c0,2.2,1.8,4.1,4.1,4.1h18.4c5.1,0,9.4,4.2,9.4,9.4v27.1H8.6c-2.7,0-5.1,1.2-6.7,3.3s-2.2,4.8-1.6,7.4
		l2.2,9c1,3.9,4.4,6.5,8.4,6.5h68.3v29.9l-48.7,70.8c-1.3,1.8-0.9,4.4,1.1,5.7c0.7,0.5,1.5,0.7,2.4,0.7c1.3,0,2.6-0.6,3.4-1.8
		l41.9-60.9v58.7c0,2.2,1.8,4.1,4.1,4.1c2.2,0,4.1-1.8,4.1-4.1v-58.7l41.9,60.9c0.7,1.2,2,1.8,3.4,1.8c0.7,0,1.6-0.2,2.4-0.7
		c1.8-1.3,2.4-3.9,1.1-5.7l-48.7-70.8v-29.9h67c4,0,7.4-2.7,8.4-6.5l2.2-9C165.5,491,165,488.3,163.3,486.2"/>
	<path id="Fill-79" class="st7" d="M76.4,483h68.4l0.3-0.3c5.2-5.4,5.2-12.6,5.2-13.4v-13.1c0-7.8-6.2-10.8-8.4-11.8
		c-0.5-0.2-1-0.4-1.4-0.6c-3.9-1.8-4.8-2.5-4.8-4.5v-11.3h3.2v-11.3h-3.2v-6.4h-22.7v6.4h-3.2v11.3h3.2v11.3c0,2-1,2.7-4.8,4.5
		c-0.4,0.2-1,0.4-1.4,0.6c-2,1-8.2,4.1-8.2,11.8v2.5h-26v12.6c0,1-0.1,6,2.8,10.4L76.4,483"/>
	<path id="Fill-81" class="st15" d="M824,472.8c-1.2-2.4-4-3.2-6.3-2.1c-2.4,1.2-3.3,4-2.1,6.3c0.2,0.5,0.5,0.9,1,1.3l4.1,4.1
		c0.9,0.9,2.1,1.1,3.2,0.5s1.6-1.5,1.5-2.6l-0.9-6C824.5,473.7,824.2,473.2,824,472.8"/>
	<path id="Fill-82" class="st15" d="M825.9,440.5c0.4-0.2,0.9-0.5,1.3-1l4.1-4.2c0.9-0.9,1.1-2.1,0.4-3.2c-0.5-1-1.6-1.5-2.7-1.5
		l-6,1c-0.5,0.1-1,0.2-1.5,0.4c-2.2,1.2-3.2,4.1-1.9,6.4C820.7,440.8,823.6,441.6,825.9,440.5"/>
	<path id="Fill-83" class="st15" d="M803.7,375.7c1.8,1.8,4.8,1.8,6.6,0c0.4-0.4,0.6-0.9,0.9-1.3l2.6-5.1c0.5-1.1,0.3-2.4-0.5-3.2
		c-0.7-0.9-1.9-1-3-0.6l-5.5,2.7c-0.4,0.2-0.9,0.5-1.3,0.9C801.8,370.8,801.8,373.8,803.7,375.7"/>
	<path id="Fill-84" class="st15" d="M820.9,554l-14.3-26.2l7.2-26.1c0.2-0.7,0-1.5-0.4-2.1c-0.4-0.6-1.2-1-1.9-1h-36.9
		c-0.7,0-1.5,0.3-1.9,1s-0.6,1.4-0.4,2.1l7.2,26.1L764.9,554c-0.2,0.5-0.3,1.1-0.2,1.6l9.8,59.1c0.2,1.2,1.2,2,2.5,2h32
		c1.2,0,2.2-0.9,2.5-2l9.8-59.1C821.3,555,821.1,554.5,820.9,554"/>
	<path id="Fill-85" class="st2" d="M844.5,593.2l-14.8-18.4v-27.7c0-1.1-0.9-1.9-1.9-1.9h-13.3c-1.1,0-1.9,0.9-1.9,1.9v27.7
		l-14.8,18.4c-0.5,0.6-0.5,1.6,0,2.4l11.3,15.2c0.3,0.4,1,0.7,1.5,0.7h20.9c0.6,0,1.2-0.3,1.5-0.7l11.3-15.2
		C845,594.9,845,594,844.5,593.2"/>
	<path id="Fill-86" class="st2" d="M0,622.6h910v-11.8H0V622.6z"/>
	<path id="Fill-87" class="st11" d="M798.1,522.8l-3.2-0.5l16.9-114.4l3.1,0.4L798.1,522.8z"/>
	<path id="Fill-88" class="st11" d="M791.5,525l-3.2-0.2l10.7-140l3.2,0.3L791.5,525z"/>
	<path id="Fill-89" class="st11" d="M798.1,533.1l-3.1-0.7l19.7-86.1l3.1,0.7L798.1,533.1z"/>
	<path id="Fill-90" class="st15" d="M817.9,442.6c-0.7,0-1.5,0-2.2,0.2c-3.5,1-5.7,4.6-4.7,8.1c0.3,1.3,1.1,2.4,1.9,3.2
		c-2.4,0.7-4.3,2.8-4.7,5.5c-0.5,3.6,1.9,7.1,5.6,7.6c0.7,0.1,1.5,0.1,2.2,0l8-1.4c1.6-0.3,3-1.6,3.2-3.3c0.2-1.6-0.5-3.1-1.7-3.9
		l-5.9-3c0.5-0.2,1.1-0.4,1.5-0.7l6.9-4.5c1.4-1,2-2.6,1.6-4.3c-0.4-1.5-1.7-2.6-3.2-2.9L817.9,442.6L817.9,442.6z"/>
	<path id="Fill-91" class="st15" d="M813.2,402.6c-0.7,0-1.5,0.1-2.1,0.4c-3.4,1.3-5.2,5-4,8.6c0.4,1.3,1.2,2.2,2.2,3
		c-2.4,1-4.1,3.1-4.3,5.8c-0.2,3.6,2.5,6.9,6.2,7.1c0.7,0,1.5,0,2.2-0.2l7.9-2c1.6-0.4,2.8-1.8,2.9-3.5c0.1-1.6-0.7-3-2-3.7
		l-6.1-2.6c0.5-0.2,1.1-0.5,1.5-0.9l6.4-5c1.3-1.1,1.8-2.8,1.3-4.4c-0.5-1.5-1.9-2.5-3.4-2.6L813.2,402.6L813.2,402.6z"/>
	<path id="Fill-92" class="st15" d="M789.3,375.3l2.6,6.3c-1.7-0.4-3.6,0.2-4.7,1.7s-1.1,3.4-0.1,4.9l5.9,8c0.5,0.6,1.1,1.3,1.8,1.8
		c3.4,2.5,8.2,1.7,10.6-1.8c2.5-3.4,1.6-8.2-1.9-10.8c-0.7-0.5-1.5-0.9-2.4-1.1l-0.9-0.2c0.1,0,0.1-0.1,0.2-0.1
		c2.2-1.9,2.6-5.4,0.5-7.7c-0.4-0.5-0.9-0.9-1.4-1.2l-5.7-3.5c-1.2-0.7-2.7-0.6-3.7,0.2C789.3,372.7,789,374,789.3,375.3"/>
	<path id="Fill-93" class="st15" d="M803.7,409.6c-1.2-3.3-4.7-5-8-3.9c-0.6,0.2-1.3,0.6-1.8,1.1l-6.1,4.7c-1.2,1-1.7,2.7-1.2,4.2
		c0.5,1.4,1.8,2.4,3.2,2.5l8.1-0.2c0.6,0,1.4-0.1,2-0.3C803.2,416.6,804.9,412.9,803.7,409.6"/>
	
		<linearGradient id="Fill-94_00000069355638622883848080000017890300598682343310_" gradientUnits="userSpaceOnUse" x1="187.2313" y1="-159.8256" x2="186.6435" y2="-159.8256" gradientTransform="matrix(136.4904 0 0 121.4011 -24913.8223 19853.7031)">
		<stop  offset="0" style="stop-color:#B32712"/>
		<stop  offset="1" style="stop-color:#EE614B"/>
	</linearGradient>
	<path id="Fill-94" style="fill:url(#Fill-94_00000069355638622883848080000017890300598682343310_);" d="M613.2,515.7
		c-21.2-18.1-38.9-38.3-49.7-56.8c-18.7-32-12.4-50.6-3.9-60.7c8.6-10.1,26-19.2,60.5-5.7c20,7.8,56.1,32.5,77.3,50.6l-41,21.9
		c-25.8-22.1-48.4-32.9-60.5-35.9c4.9,11.5,19.1,32.1,44.9,54.2L613.2,515.7z"/>
	<circle id="Oval_1_" class="st0" cx="368.3" cy="236.1" r="2.1"/>
	<path id="Fill-95" class="st4" d="M687,424.6l-13.7-0.3l-0.2,9.5c0.2,2.6,1.9,12.8,14.9,13.2l13.7,0.3l0.2-9.5
		C701.7,435.2,700,424.9,687,424.6"/>
	<path id="Fill-96" class="st7" d="M700.8,453.5v-25.2c20.6,0,37.3-13.9,37.3-30.9c0-17-16.7-30.9-37.3-30.9v-25.2
		c34.5,0,62.4,25.2,62.4,56.1S735.2,453.5,700.8,453.5"/>
	<path id="Fill-97" class="st15" d="M386,404.4c-4.9,13.3-19.7,20.1-33.1,15.1c-13.3-4.9-20.1-19.7-15.1-33.1l9-24.1l48.2,17.9
		L386,404.4L386,404.4z"/>
	<path id="Fill-98" class="st12" d="M415.5,359.9l12.8,4.8l-3.3,8.9c-1.2,2.4-6.6,11.2-18.7,6.7l-12.8-4.8l3.3-8.9
		C398,364.3,403.4,355.4,415.5,359.9"/>
	<path id="Fill-99" class="st0" d="M396.8,379.6c-17.2,0-33.6-5-46.2-14.2c-14-10.2-22.2-24.9-22.5-40.4
		c-0.3-15.4,7.3-30.5,20.9-41.2c12.7-10.1,29.5-15.8,47.4-16.2l0.5,26.9c-23,0.4-42.3,14.1-42,30c0.1,7.1,4.2,13.9,11.5,19.2
		c8.2,6,19.7,9.3,31.6,9.1l0.5,26.9H396.8"/>
	<path id="Fill-100" class="st0" d="M540.6,265.4c0-9-12.6-13.3-12.6-24.7c0-4.2,5.7-7.5,12.6-7.5h2c7,0,12.6,3.3,12.6,7.5
		c0,11.5-12.6,15.7-12.6,24.7H540.6z"/>
	<path id="Fill-101" class="st17" d="M540.4,249.3c0,1.3-1.1,2.4-2.4,2.4s-2.4-1.1-2.4-2.4c0-1.3,1.1-2.4,2.4-2.4
		C539.5,246.9,540.4,248,540.4,249.3"/>
	<path id="Fill-102" class="st17" d="M548.2,249.3c0,1.3-1.1,2.4-2.4,2.4s-2.4-1.1-2.4-2.4c0-1.3,1.1-2.4,2.4-2.4
		C547.2,246.9,548.2,248,548.2,249.3"/>
</g>
</svg>
