<?xml version="1.0" encoding="utf-8"?>
<!-- Generator: Adobe Illustrator 27.5.0, SVG Export Plug-In . SVG Version: 6.00 Build 0)  -->
<svg version="1.1" id="Layer_1" xmlns="http://www.w3.org/2000/svg" xmlns:xlink="http://www.w3.org/1999/xlink" x="0px" y="0px"
	 viewBox="0 0 910 630" style="enable-background:new 0 0 910 630;" xml:space="preserve">
<style type="text/css">
	.st0{fill:none;stroke:#E9EAE6;stroke-width:17.0005;}
	.st1{fill:none;stroke:#E9EAE6;stroke-width:20;}
	.st2{fill:#2B2B2B;}
	.st3{fill:#939286;}
	.st4{fill:url(#Fill-12_00000085961339282931189990000011565852159853973661_);}
	.st5{fill:#F26651;}
	.st6{fill:url(#Fill-18_00000096031964058938265880000000496399798452844930_);}
	.st7{fill:url(#Fill-22_00000134231786051079468710000015530634324650496135_);}
	.st8{fill:#E5A5A1;}
	.st9{fill:#FEFEFE;}
	.st10{fill:url(#Fill-36_00000035524843566390728990000005596951226955172788_);}
	.st11{fill:url(#Fill-38_00000041983415447965006020000016192323830103905676_);}
	.st12{fill:#C35750;}
</style>
<g id="Passion">
	<path id="Rectangle-Copy-2" class="st0" d="M485.1,332.3l90.8-316.7l316.7,90.8l-90.8,316.7L485.1,332.3z"/>
	
		<ellipse id="Oval" transform="matrix(0.7986 -0.6018 0.6018 0.7986 -131.3925 168.8509)" class="st1" cx="186.6" cy="280.8" rx="169.2" ry="169.5"/>
	<path id="Fill-2" class="st2" d="M822.7,144.7c6.7,16.4-1.2,35.2-17.6,41.9l1.9-33.5L822.7,144.7"/>
	<path id="Fill-4" class="st3" d="M799.2,583l-5.6,2.4c1.1,2.5,1.7,5.2,1.7,8.1c0,10.5-8,19.2-18.1,20.4
		c-6.9,1.7-12.5,5.5-14.2,12.2h55.3L799.2,583L799.2,583z"/>
	<path id="Fill-6" class="st2" d="M70.2,613.7c-10.2-1.2-18.1-9.8-18.1-20.4c0-3.9,1.2-7.7,3-10.8v-1h-6.4l-19.7,44.3h55.3
		C82.7,619.2,77.1,615.4,70.2,613.7"/>
	<path id="Fill-8" class="st2" d="M218.2,625.9c-1.8-7.1-8.2-12.3-15.7-12.3c-14.9-0.4-26.8-12.5-26.8-27.3l-6.4-1.3l-0.2,40.9
		H218.2L218.2,625.9z"/>
	<path id="Fill-10" class="st3" d="M612.2,625.9c1.8-7.1,8.2-12.3,15.7-12.3c14.9-0.4,26.8-12.5,26.8-27.3l9.9-1.3l-8.3,40.9H612.2
		L612.2,625.9z"/>
	
		<linearGradient id="Fill-12_00000090984390069192820530000004615843256038295725_" gradientUnits="userSpaceOnUse" x1="204.9697" y1="-384.0076" x2="205.1751" y2="-384.6057" gradientTransform="matrix(100.5325 0 0 207.731 -20533.4707 80335.5938)">
		<stop  offset="0" style="stop-color:#F26651"/>
		<stop  offset="1" style="stop-color:#C72C15"/>
	</linearGradient>
	<path id="Fill-12" style="fill:url(#Fill-12_00000090984390069192820530000004615843256038295725_);" d="M130.9,477.3l-77.4,109
		c-22.1-15.8-27.1-46.5-11.3-68.7L131.8,382L130.9,477.3z"/>
	<path id="Fill-14" class="st5" d="M118.9,336.1v-0.4H101c1.6,13,7.3,25.5,16.9,35.6l9.6,166.2c0.2,27.1,21.1,49.1,48.3,48.8V335.8
		C175.8,335.8,118.9,336.1,118.9,336.1z"/>
	<path id="Fill-16" class="st2" d="M166.1,177.5c-2.4,0-4.3,2-4.3,4.3c0,2.4,2,4.3,4.3,4.3s4.3-2,4.3-4.3
		C170.4,179.5,168.5,177.5,166.1,177.5 M166.1,189c-4,0-7.3-3.2-7.3-7.3s3.2-7.3,7.3-7.3c4,0,7.3,3.2,7.3,7.3S170.1,189,166.1,189"
		/>
	
		<linearGradient id="Fill-18_00000063627036400689035900000007991197112003672493_" gradientUnits="userSpaceOnUse" x1="205.5056" y1="-386.706" x2="205.173" y2="-386.7837" gradientTransform="matrix(119.786 0 0 74.4187 -23876.6191 28989.7617)">
		<stop  offset="0" style="stop-color:#F26651"/>
		<stop  offset="1" style="stop-color:#A51904"/>
	</linearGradient>
	<path id="Fill-18" style="fill:url(#Fill-18_00000063627036400689035900000007991197112003672493_);" d="M779,240
		c-48.7,16.2-101.5-10.1-117.8-58.8l28.6-9.5c11,32.9,46.7,50.8,79.6,39.7L779,240z"/>
	<path id="Fill-20" class="st2" d="M219.3,142.4c12.8,49.8-17.3,100.6-67,113.3l-7.5-29.2c33.6-8.7,53.9-43,45.2-76.6L219.3,142.4z"
		/>
	
		<linearGradient id="Fill-22_00000087372979507494892220000000292398641971557009_" gradientUnits="userSpaceOnUse" x1="206.5254" y1="-384.0087" x2="207.2122" y2="-383.551" gradientTransform="matrix(524.9058 0 0 442.312 -108145.4375 169966.2188)">
		<stop  offset="0" style="stop-color:#F26651"/>
		<stop  offset="1" style="stop-color:#C42810"/>
	</linearGradient>
	<path id="Fill-22" style="fill:url(#Fill-22_00000087372979507494892220000000292398641971557009_);" d="M566.3,44.6
		c75.3,0,136.4,59.4,136.4,132.7c0,0,14.8,147.4-257.9,302.2v0.1h-0.1h-0.1v-0.1C186.4,333,185.9,193,186.6,178.6
		c0-0.4-0.1-0.8-0.1-1.3c0-73.3,61.1-132.7,136.4-132.7c53.2,0,99.1,29.7,121.7,72.9C467.1,74.3,513.1,44.6,566.3,44.6"/>
	<path id="Fill-24" class="st8" d="M814.8,173.7v-17.5c0-13-10.5-23.4-23.4-23.4c-13,0-23.4,10.5-23.4,23.4v17.5
		c0,11.1,7.8,20.5,18.2,22.8l-2.8,32.1l12,1.1l3-33.5C807.8,193,814.8,184.2,814.8,173.7"/>
	<path id="Fill-26" class="st2" d="M165.3,171.5c0-9-7.3-16.3-16.2-16.5c-4.2-2.9-9.3-4.5-14.9-4.5c-14.8,0-26.7,11.9-26.7,26.7
		c0,14.8,11.9,26.7,26.7,26.7c12.5,0,23-8.7,25.9-20.4C163.2,180.5,165.3,176.3,165.3,171.5"/>
	<path id="Fill-28" class="st8" d="M264.6,279l-8.9,14.7l10.2,6.2c3,1.4,15.2,6,23.6-7.9l8.9-14.7l-10.2-6.2
		C285.3,269.8,273,265.1,264.6,279"/>
	<path id="Fill-30" class="st9" d="M794.8,178c0,5.5-4.4,9.9-9.9,9.9s-9.9-4.4-9.9-9.9H794.8L794.8,178z"/>
	<path id="Fill-32" class="st2" d="M812.7,137.6c-17.7,0.9-17.9-20.3-37.9-20c-9,0.1-16.3,7.4-16.3,16.3c0,9,7.5,17.8,16.3,16.3
		c33.6-5.2,25.3,8.4,37.9,8.4c5.9,0,10.6-4.7,10.6-10.6C823.3,142.4,818.6,137.3,812.7,137.6"/>
	<path id="Fill-34" class="st8" d="M163.9,206.7c-5-0.8-8.4-5.4-7.7-10.4l10.6,1.6c3-0.9,5.4-3.7,5.4-7.1c0-3.5-2.5-6.5-5.8-7.2
		c-3-9.6-12.2-16.7-22.6-16.7h-13.2c-12.5,0-23.3,9.2-24.4,21.6c-1.3,14.2,9.8,26.1,23.8,26h5.5l4.1,20.9l11.8-2.4l-3.6-18.6h1.5
		C156.4,214.5,161,211.5,163.9,206.7"/>
	
		<linearGradient id="Fill-36_00000065768135071008916960000012355656983871054505_" gradientUnits="userSpaceOnUse" x1="205.2644" y1="-384.2883" x2="205.1529" y2="-383.6081" gradientTransform="matrix(113.467 0 0 266.8016 -22577.1895 102935.0547)">
		<stop  offset="0" style="stop-color:#2B2B2B"/>
		<stop  offset="1" style="stop-color:#686861"/>
	</linearGradient>
	<path id="Fill-36" style="fill:url(#Fill-36_00000065768135071008916960000012355656983871054505_);" d="M706.6,325.7l-52.8,261.3
		c26.7,5.5,52.7-11.6,58.2-38.2l53.4-211.1L706.6,325.7L706.6,325.7z"/>
	
		<linearGradient id="Fill-38_00000131363656755834477080000002648993952539295393_" gradientUnits="userSpaceOnUse" x1="204.9785" y1="-384.6368" x2="205.0792" y2="-383.6811" gradientTransform="matrix(103.7879 0 0 261.9 -20499.4434 101057.8594)">
		<stop  offset="0" style="stop-color:#2B2B2B"/>
		<stop  offset="1" style="stop-color:#686861"/>
	</linearGradient>
	<path id="Fill-38" style="fill:url(#Fill-38_00000131363656755834477080000002648993952539295393_);" d="M728.6,335.3l65,250.9
		c26.4-6.7,42.3-33.5,35.6-59.9l-39.8-197.7L728.6,335.3L728.6,335.3z"/>
	<path id="Fill-40" class="st2" d="M175.9,258.8c0-19.6-15.8-35.4-35.4-35.4c-16.7,0-30.8,11.6-34.5,27.2l-26.8,97.8h96.6
		C175.8,348.4,175.9,259.5,175.9,258.8"/>
	<path id="Fill-42" class="st5" d="M803.6,218l2.1-13.3l-30.9-4.8l-1.6,10.3c-14.1,2.6-25.9,12.9-29.9,27.1l-42.3,95l101.9,15.8
		l14.6-95.4C819.2,239.2,813.6,226.2,803.6,218"/>
	<path id="Fill-44" class="st8" d="M613.2,284.6l-16.5,10.5l7.4,11.4c2.4,2.9,12.7,13.7,28.2,3.7l16.4-10.6l-7.4-11.4
		C639,285.4,628.7,274.6,613.2,284.6"/>
	<path id="Fill-46" class="st8" d="M820.7,163.8c0,2.9-2.4,5.2-5.2,5.2s-5.2-2.4-5.2-5.2c0-2.9,2.4-5.2,5.2-5.2
		C818.4,158.5,820.7,160.9,820.7,163.8"/>
	<path id="Fill-48" class="st2" d="M261.3,310.5c-48.7,16.2-101.5-10.1-117.8-58.8l28.6-9.5c11,32.9,46.7,50.8,79.6,39.7
		L261.3,310.5z"/>
	<path id="Fill-50" class="st5" d="M776,236.6c-14,58.2-72.9,94.2-131.2,80.2l8.3-34.2c39.4,9.5,79.2-14.8,88.6-54.2L776,236.6
		L776,236.6z"/>
	<path id="Fill-52" class="st2" d="M151,161.9l-41.5,5.3l-12,27.3c-0.8,1.9-1.2,3.8-1.2,6c0,8.7,7,15.7,15.7,15.7h17
		c8.7,0,15.7-7,15.7-15.7c0-4.4-1.8-8.4-4.7-11.2c0,0,4.1-19.6,19.6-17.7C170.7,173,151,161.9,151,161.9"/>
	<path id="Fill-54" class="st8" d="M147.7,185.9c0,2.6-2.1,4.7-4.7,4.7c-2.6,0-4.7-2.1-4.7-4.7s2.1-4.7,4.7-4.7
		C145.5,181.2,147.7,183.3,147.7,185.9"/>
	<path id="Fill-56" class="st12" d="M782.2,172.3h-2.8c-1.9,0-3.4-1.6-3.4-3.4v-6.4c0-2.2-1.6-3.9-3.5-4.1c-1.1-0.1-2.2,0.3-3,1
		c-0.8,0.8-1.3,1.8-1.3,3h-3c0-2,0.8-3.8,2.3-5.1c1.5-1.3,3.3-2,5.3-1.8c3.4,0.3,6.2,3.4,6.2,7.1v6.4c0,0.3,0.2,0.5,0.5,0.5h2.8
		L782.2,172.3L782.2,172.3z"/>
	<path id="Fill-58" class="st12" d="M801.4,162.2h-3c0-2.2-1.8-3.9-3.9-3.9c-2.2,0-3.9,1.8-3.9,3.9h-3c0-3.8,3-6.9,6.9-6.9
		C798.3,155.3,801.4,158.4,801.4,162.2"/>
	<path id="Fill-60" class="st2" d="M160,186.1c-2.4,0-4.3-2-4.3-4.3s2-4.3,4.3-4.3s4.3,2,4.3,4.3C164.2,184.2,162.3,186.1,160,186.1
		 M160,174.5c-2.8,0-5.1,1.6-6.4,3.7h-16.1v3h15.2v0.5c0,4,3.2,7.3,7.3,7.3c4,0,7.3-3.2,7.3-7.3C167.1,177.8,163.9,174.5,160,174.5"
		/>
</g>
</svg>
