<?xml version="1.0" encoding="utf-8"?>
<!-- Generator: Adobe Illustrator 27.5.0, SVG Export Plug-In . SVG Version: 6.00 Build 0)  -->
<svg version="1.1" id="Layer_1" xmlns="http://www.w3.org/2000/svg" xmlns:xlink="http://www.w3.org/1999/xlink" x="0px" y="0px"
	 viewBox="0 0 910 630" style="enable-background:new 0 0 910 630;" xml:space="preserve">
<style type="text/css">
	.st0{fill:url(#Fill-2_00000134962377883563133920000011976115812748058245_);}
	.st1{opacity:0.2878;fill:#B3B4A7;enable-background:new    ;}
	.st2{fill:#E5A5A1;}
	.st3{fill:none;stroke:#F16651;stroke-width:14;}
	.st4{fill:#2B2B2B;}
	.st5{fill:#F16651;}
	.st6{fill:#4E4E4E;}
	.st7{fill:#B3B4A7;}
	.st8{opacity:0.2111;fill:#B3B4A7;enable-background:new    ;}
	.st9{fill:url(#path-5_00000021101098720881872900000011888895512592674238_);}
	.st10{fill:url(#path-8_00000167357163449519464370000008426637836853823407_);}
	.st11{filter:url(#Adobe_OpacityMaskFilter);}
	.st12{fill:#FFFFFF;}
	.st13{mask:url(#mask-11_00000082357390864349853570000017161630121210520725_);fill:#2B2B2B;}
	.st14{fill:url(#Fill-48_00000101823879414537258730000006239349986724686469_);}
	.st15{fill:none;stroke:#FFFFFF;stroke-width:3;}
	.st16{filter:url(#Adobe_OpacityMaskFilter_00000048468686409501299920000004453635802338992823_);}
	.st17{mask:url(#mask-14_00000174590035735739147020000006120856648920836239_);fill:#2B2B2B;}
	.st18{filter:url(#Adobe_OpacityMaskFilter_00000173144632004446318670000003817654904657820860_);}
	.st19{mask:url(#mask-16_00000142881466792331300430000006525117957218310037_);fill:#2B2B2B;}
	.st20{fill:#D33F27;}
	.st21{fill:none;stroke:#2B2B2B;stroke-width:1.064;}
</style>
<g id="Choice-OnGrey">
	<g id="Group-83">
		
			<linearGradient id="Fill-2_00000054965817852869977010000005357967327667714192_" gradientUnits="userSpaceOnUse" x1="174.5914" y1="-327.1174" x2="175.6478" y2="-327.1174" gradientTransform="matrix(824.578 0 0 319 -143944.7656 104582.6641)">
			<stop  offset="0" style="stop-color:#FFFFFF;stop-opacity:0"/>
			<stop  offset="5.238814e-02" style="stop-color:#FFFFFF"/>
			<stop  offset="0.5004" style="stop-color:#FFFFFF"/>
			<stop  offset="0.9408" style="stop-color:#FEFEFE"/>
			<stop  offset="1" style="stop-color:#FEFEFE;stop-opacity:0"/>
		</linearGradient>
		<path id="Fill-2" style="fill:url(#Fill-2_00000054965817852869977010000005357967327667714192_);" d="M19.5,400.7h871.1v-337
			H19.5V400.7z"/>
		<ellipse id="Oval" class="st1" cx="454.8" cy="326.7" rx="101.4" ry="8.5"/>
		<g id="Group-30" transform="translate(319 95)">
			<path id="Fill-3" class="st2" d="M206.5,264.1l5.6,8.7l6.2-3.9c1.6-1.3,7.5-6.7,2.2-14.8l-5.6-8.7l-6.2,3.9
				C207.1,250.6,201.2,255.9,206.5,264.1"/>
			<path id="Fill-5" class="st2" d="M249.3,275.4l1.4,10.2l7.3-0.8c2-0.4,9.6-2.7,8.3-12.4l-1.4-10.2l-7.3,0.8
				C255.8,263.4,248.1,265.8,249.3,275.4"/>
			<path id="Stroke-7" class="st3" d="M276,510.6H-4.3c-10.6,0-19.3-8.7-19.3-19.3V-61.2c0-10.6,8.7-19.3,19.3-19.3h280.4
				c10.6,0,19.3,8.7,19.3,19.3v552.6C295.3,502,286.6,510.6,276,510.6z"/>
			<path id="Fill-9" class="st4" d="M207.3,216.1l-70.1-22h-2.6l-70.1,22h-3.7v17.6h8.8v-10l62-19.3v29.4h8.8v-29.4l62,19.3v10h8.8
				v-17.6H207.3z"/>
			<path id="Fill-11" class="st5" d="M67.7,169.7l8.8,17.6c5.1,8.9,14.8,8.9,21.7,8.9h75.8c6.9,0,16.5,0,21.7-8.9l8.6-17.3
				L67.7,169.7L67.7,169.7z"/>
			<path id="Fill-13" class="st6" d="M100.4,98h8.9V78.5h-8.9V98z"/>
			<path id="Fill-15" class="st6" d="M162.4,98h8.9V78.5h-8.9V98z"/>
			<path id="Fill-16" class="st4" d="M175.6,32.6c12.3,0,22.1,9.9,22.1,22.1V68c0,7.3-5.9,13.3-13.3,13.3H87.2
				c-7.3,0-13.3-5.9-13.3-13.3V54.7c0-12.3,9.9-22.1,22.1-22.1H175.6L175.6,32.6z"/>
			<path id="Fill-17" class="st4" d="M69.4,138.2v-34.5c0-4.9,4-8.9,8.9-8.9h115c4.9,0,8.9,4,8.9,8.9V140l-72.8,14.3L69.4,138.2z"/>
			<path id="Fill-18" class="st4" d="M136.1,178.6h46.6c6.9,0,16.5,0,21.7-8.9l7-14.2c2.5-5.6,2.2-11.7-2.1-15.8
				c-0.2-0.2-0.4-0.4-0.6-0.5c-3.7-3-8.8-3.7-13.2-2l-8.6,3.4c-4.2,1.7-8.7,2.5-13.2,2.5H98.3c-4.5,0-9-0.8-13.2-2.5l-8.6-3.4
				c-4.4-1.8-9.5-1.1-13.2,2c-0.2,0.1-0.4,0.3-0.6,0.5c-4.2,4.1-4.6,10.2-2.1,15.8l7,14.2c5.1,8.9,14.8,8.9,21.7,8.9H136.1z"/>
			<path id="Fill-19" class="st6" d="M109.3,121.2c0,2.4-2,4.4-4.4,4.4s-4.4-2-4.4-4.4c0-2.4,2-4.4,4.4-4.4S109.3,118.6,109.3,121.2
				"/>
			<path id="Fill-20" class="st6" d="M109.3,59.1c0,2.4-2,4.4-4.4,4.4s-4.4-2-4.4-4.4c0-2.4,2-4.4,4.4-4.4S109.3,56.7,109.3,59.1"/>
			<path id="Fill-21" class="st6" d="M162.4,121.2c0,2.4,2,4.4,4.4,4.4c2.4,0,4.4-2,4.4-4.4c0-2.4-2-4.4-4.4-4.4
				S162.4,118.6,162.4,121.2"/>
			<path id="Fill-22" class="st6" d="M162.4,59.1c0,2.4,2,4.4,4.4,4.4c2.4,0,4.4-2,4.4-4.4c0-2.4-2-4.4-4.4-4.4
				S162.4,56.7,162.4,59.1"/>
			<path id="Fill-23" class="st4" d="M208.5,139.4h-6.3v-13.3c0-4.4,2.6-8.7,7.5-12c4-2.7,9.1-4.4,13.4-4.4h8.9c2,0,3.9,0.7,5.4,2.2
				c1.5,1.5,2.2,3.4,2.2,5.4v8.9c0,4.2-3.4,7.6-7.6,7.6H223C220.6,133.7,208.5,134,208.5,139.4"/>
			<path id="Fill-24" class="st4" d="M48.6,133.7h-8.8c-4.2,0-7.6-3.4-7.6-7.6v-8.9c0-2,0.7-3.9,2.2-5.4c1.5-1.5,3.4-2.2,5.4-2.2
				h8.9c4.3,0,9.3,1.7,13.4,4.4c4.9,3.3,7.5,7.6,7.5,12v13.3h-6.3C63.2,134,51.1,133.7,48.6,133.7"/>
			<path id="Fill-25" class="st4" d="M145.9,390.2c0,5.4-4.3,9.7-9.7,9.7s-9.7-4.3-9.7-9.7c0-5.4,4.3-9.7,9.7-9.7
				S145.9,384.9,145.9,390.2"/>
			<path id="Fill-26" class="st7" d="M109.9,390.2c0,5.4-4.3,9.7-9.7,9.7s-9.7-4.3-9.7-9.7c0-5.4,4.3-9.7,9.7-9.7
				C105.6,380.6,109.9,384.9,109.9,390.2"/>
			<path id="Fill-27" class="st7" d="M64.3,399.9c-5.4,0-9.7-4.3-9.7-9.7c0-5.4,4.3-9.7,9.7-9.7c5.4,0,9.7,4.3,9.7,9.7
				C73.9,395.6,69.6,399.9,64.3,399.9z"/>
			<path id="Fill-28" class="st7" d="M218,390.2c0,5.4-4.3,9.7-9.7,9.7s-9.7-4.3-9.7-9.7c0-5.4,4.3-9.7,9.7-9.7S218,384.9,218,390.2
				"/>
			<path id="Fill-29" class="st7" d="M182,390.2c0,5.4-4.3,9.7-9.7,9.7s-9.7-4.3-9.7-9.7c0-5.4,4.3-9.7,9.7-9.7
				C177.6,380.6,182,384.9,182,390.2"/>
		</g>
		<g id="Group-33" transform="translate(143 227)">
			<ellipse id="Oval_1_" class="st8" cx="600.3" cy="99.7" rx="69.7" ry="8.5"/>
			<ellipse id="Oval-Copy" class="st8" cx="40.4" cy="99.7" rx="73.9" ry="8.5"/>
			<g id="Clip-32">
				<path id="path-2_1_" class="st7" d="M591.7-50.2h22.9l-0.1-7.7c-0.1-8.3-7-15.1-15.2-15.1c-8.3,0-15.1,6.8-15.2,15.1L591.7-50.2
					z"/>
			</g>
		</g>
		<g id="Group-36" transform="translate(702 306)">
			<g id="Clip-35">
				
					<linearGradient id="path-5_00000034080982666546443780000015752917315571521184_" gradientUnits="userSpaceOnUse" x1="-1230.8516" y1="-328.7337" x2="-1230.8516" y2="-329.7388" gradientTransform="matrix(79.327 0 0 86.33 97680.1562 28402.3477)">
					<stop  offset="0" style="stop-color:#DADBD3"/>
					<stop  offset="1" style="stop-color:#B3B4A7"/>
				</linearGradient>
				<path id="path-5_1_" style="fill:url(#path-5_00000034080982666546443780000015752917315571521184_);" d="M28.7-68.4
					c0,0,7,9.9,5.8,39.1C33.3-0.1,24.1,9.1,17.7,14.3s-19.2,8.5-19.2,8.5h83.8c0,0-13-3.3-19.2-8.5C56.7,9.1,47.5-0.2,46.3-29.3
					c-1.3-29.3,5.8-39.1,5.8-39.1H28.7z"/>
			</g>
		</g>
		<g id="Group-39" transform="translate(677 238)">
			<g id="Clip-38">
				
					<linearGradient id="path-8_00000095340153891767849200000002827807814081980070_" gradientUnits="userSpaceOnUse" x1="-1179.994" y1="-330.0738" x2="-1179.994" y2="-329.3832" gradientTransform="matrix(129.979 0 0 71.943 153439.7812 23700.1836)">
					<stop  offset="0" style="stop-color:#2B2B2B"/>
					<stop  offset="1" style="stop-color:#9E9E9E"/>
				</linearGradient>
				<path id="path-8_1_" style="fill:url(#path-8_00000095340153891767849200000002827807814081980070_);" d="M-3.2-4.3l-0.1,7.7
					H134l-0.1-7.7c-0.4-37.7-31.2-68.3-68.6-68.3C28-72.7-2.8-42-3.2-4.3z"/>
			</g>
		</g>
		<g id="Group-44" transform="translate(516 638)">
			<path id="Fill-40" class="st4" d="M-11.8-15.4c1.5-6,7-10.5,13.4-10.5C14.2-26.1,24.4-36.4,24.4-49l5.9-1.2l-7.1,34.9
				C23.2-15.4-11.8-15.4-11.8-15.4z"/>
			<path id="Fill-42" class="st4" d="M65.1-15.4c1.4-5.4,6.2-9.5,12.1-9.5c11.4-0.3,20.6-9.6,20.6-21l4.9-1.1l0.1,31.5H65.1V-15.4z"
				/>
		</g>
		<g id="Group-47" transform="translate(154 371)">
			<defs>
				<filter id="Adobe_OpacityMaskFilter" filterUnits="userSpaceOnUse" x="-37.5" y="-70.2" width="132.9" height="32.2">
					<feColorMatrix  type="matrix" values="1 0 0 0 0  0 1 0 0 0  0 0 1 0 0  0 0 0 1 0"/>
				</filter>
			</defs>
			
				<mask maskUnits="userSpaceOnUse" x="-37.5" y="-70.2" width="132.9" height="32.2" id="mask-11_00000082357390864349853570000017161630121210520725_">
				<g class="st11">
					<path id="path-10_00000071529201397108435150000007812094368580861095_" class="st12" d="M-25-64.9h-7.2v21.7H90.1v-21.7H-25z"
						/>
				</g>
			</mask>
			<path id="Fill-45" class="st13" d="M-37.5-38H95.4v-32.2H-37.5V-38z"/>
		</g>
		<g id="Group-50" transform="translate(142 227)">
			
				<linearGradient id="Fill-48_00000161617224261113929460000012599632295866096014_" gradientUnits="userSpaceOnUse" x1="-110.6449" y1="-327.9533" x2="-109.5888" y2="-327.9533" gradientTransform="matrix(139.436 0 0 156.597 15395.2324 51365.8281)">
				<stop  offset="0" style="stop-color:#DADBD3"/>
				<stop  offset="1" style="stop-color:#B3B4A7"/>
			</linearGradient>
			<path id="Fill-48" style="fill:url(#Fill-48_00000161617224261113929460000012599632295866096014_);" d="M-32.6,92h147.3V-73.4
				H-32.6V92z"/>
		</g>
		<g id="Group-55" transform="translate(164 245)">
			<path id="Stroke-51" class="st15" d="M58.6-4.8h-79.1c-5.9,0-10.8,4.9-10.8,10.8v36c0,5.9,4.9,10.8,10.8,10.8h79.1
				c5.9,0,10.8-4.9,10.8-10.8V6C69.4,0.1,64.5-4.8,58.6-4.8"/>
			<path id="Stroke-53" class="st15" d="M58.3-71.7h-78.8c-5.9,0-10.8,4.9-10.8,10.9v36.3c0,6,4.9,10.9,10.8,10.9h78.8
				c5.9,0,10.8-4.9,10.8-10.9v-36.3C68.9-66.9,64.2-71.7,58.3-71.7"/>
		</g>
		<g id="Group-58" transform="translate(229 266)">
			<defs>
				
					<filter id="Adobe_OpacityMaskFilter_00000180351358247194675620000011369659329575493022_" filterUnits="userSpaceOnUse" x="-33.2" y="-76.4" width="24.9" height="24.9">
					<feColorMatrix  type="matrix" values="1 0 0 0 0  0 1 0 0 0  0 0 1 0 0  0 0 0 1 0"/>
				</filter>
			</defs>
			
				<mask maskUnits="userSpaceOnUse" x="-33.2" y="-76.4" width="24.9" height="24.9" id="mask-14_00000174590035735739147020000006120856648920836239_">
				<g style="filter:url(#Adobe_OpacityMaskFilter_00000180351358247194675620000011369659329575493022_);">
					<path id="path-13_00000075871083857804877930000005029394848204646065_" class="st12" d="M-28-63.9c0,4,3.2,7.2,7.2,7.2
						s7.2-3.3,7.2-7.2c0-4-3.2-7.2-7.2-7.2S-28-67.9-28-63.9z"/>
				</g>
			</mask>
			<path id="Fill-56" class="st17" d="M-33.2-51.4h24.9v-24.9h-24.9V-51.4z"/>
		</g>
		<g id="Group-61" transform="translate(182 329)">
			<defs>
				
					<filter id="Adobe_OpacityMaskFilter_00000167372507570378550260000002185365546198953872_" filterUnits="userSpaceOnUse" x="-36.6" y="-72.5" width="24.9" height="25">
					<feColorMatrix  type="matrix" values="1 0 0 0 0  0 1 0 0 0  0 0 1 0 0  0 0 0 1 0"/>
				</filter>
			</defs>
			
				<mask maskUnits="userSpaceOnUse" x="-36.6" y="-72.5" width="24.9" height="25" id="mask-16_00000142881466792331300430000006525117957218310037_">
				<g style="filter:url(#Adobe_OpacityMaskFilter_00000167372507570378550260000002185365546198953872_);">
					<path id="path-15_00000076594495684996131630000005427334890651301517_" class="st12" d="M-31.3-59.9c0,4,3.2,7.2,7.2,7.2
						S-17-56-17-59.9c0-4-3.2-7.2-7.2-7.2C-28.2-67.2-31.3-63.9-31.3-59.9z"/>
				</g>
			</mask>
			<path id="Fill-59" class="st19" d="M-36.6-47.5h24.9v-25h-24.9L-36.6-47.5z"/>
		</g>
		<g id="Group-82" transform="translate(530 392)">
			<path id="Fill-62" class="st12" d="M26.8,211.1l-28.6-10.9L67,48.3l29.9,22.1L26.8,211.1z"/>
			<path id="Fill-64" class="st20" d="M-11.4-16.9C8.5,15,50.7,25.1,82.8,5.3L71.2-13.5C49.4-0.1,20.9-6.8,7.5-28.4L-11.4-16.9z"/>
			<path id="Fill-66" class="st2" d="M63-32.8c0,1.6,1.4,2.7,2.9,2.7s2.7-1.4,2.7-2.9c0-1.6-1.4-2.7-2.9-2.7
				C64.1-35.7,62.9-34.3,63-32.8"/>
			<path id="Fill-68" class="st12" d="M105.1,52.8v-1.7H66l3.2,154.5h30.6l5.3-129.3c4.9-6,7.6-13.2,8-20.5L105.1,52.8z"/>
			<path id="Fill-70" class="st20" d="M59.5,6.7c0-12.9,10.5-23.3,23.3-23.3c11.1,0,20.3,7.7,22.7,18L123.3,56H59.6
				C59.6,55.9,59.5,7.1,59.5,6.7"/>
			<path id="Fill-72" class="st2" d="M62-43.1c0,1.6-1.3,3-3,3c-1.6,0-3-1.3-3-3c0-1.6,1.3-3,3-3C60.7-45.9,62-44.6,62-43.1"/>
			<path id="Fill-74" class="st2" d="M72.8-21.5L64.7-25c-7-3.1-10.2-11.3-7.3-18.3c3-7,11.3-10.2,18.3-7.3l8.1,3.5
				c7,3.1,10.2,11.3,7.3,18.3C88-21.7,79.8-18.4,72.8-21.5"/>
			<path id="Fill-76" class="st4" d="M102.8-17c0.6-1.7,1-3.4,1-5.3c0-6.2-3.8-11.7-9.2-14c1-2,1.5-4.1,1.5-6.4
				c0-6.1-3.6-11.3-8.7-13.8c-2.1-1-13.7-7.3-17.3-7.3c-3.9,0-7.1,3.2-7.1,7.1c0,3,1.9,5.5,4.4,6.5c4.4,1.8,5.1,6.8,4.4,10.7
				c-2.6,1.2-4.5,3.8-4.5,6.9c0,3.2,2,5.9,4.9,7c-3.3,3.3-5.3,7.7-5.3,12.7c0,9.9,8,18,18,18c2.7,0,5.3-0.6,7.6-1.7l27.7-9.5
				C117.6-13.6,110.3-17.9,102.8-17"/>
			<path id="Stroke-78" class="st21" d="M68.1-40.2c0.8-1,0.7-2.4-0.3-3.3s-2.4-0.7-3.3,0.2"/>
			<path id="Stroke-80" class="st21" d="M61.5-46.2c0.8-1,0.7-2.4-0.3-3.3c-1-0.8-2.4-0.7-3.3,0.2"/>
		</g>
	</g>
	<path id="Rectangle" class="st5" d="M375.6,11.8H534c6.4,0,11.6,5.2,11.6,11.6s-5.2,11.6-11.6,11.6H375.6
		c-6.4,0-11.6-5.2-11.6-11.6S369.2,11.8,375.6,11.8z"/>
</g>
</svg>
