<?xml version="1.0" encoding="utf-8"?>
<!-- Generator: Adobe Illustrator 27.5.0, SVG Export Plug-In . SVG Version: 6.00 Build 0)  -->
<svg version="1.1" id="Layer_1" xmlns="http://www.w3.org/2000/svg" xmlns:xlink="http://www.w3.org/1999/xlink" x="0px" y="0px"
	 viewBox="0 0 910 630" style="enable-background:new 0 0 910 630;" xml:space="preserve">
<style type="text/css">
	.st0{fill:url(#Fill-2_00000004543624463933273660000017145871382185133993_);}
	.st1{fill:url(#Fill-4_00000062872771412543213770000009944172601308732588_);}
	.st2{fill:url(#Fill-6_00000170986067673593763620000002237548311055862196_);}
	.st3{fill:#E5A5A1;}
	.st4{fill:#2B2B2B;}
	.st5{fill:#FEFEFE;}
	.st6{fill:#CC8681;}
	.st7{fill:#C35750;}
	.st8{fill:#FFFFFF;}
	.st9{fill:#939286;}
	.st10{fill:#939387;}
	.st11{fill:url(#Fill-28_00000119083680595620764990000004443687338811584443_);}
	.st12{fill:url(#Fill-24_00000053508808204800463710000015190027116421791416_);}
	.st13{fill:url(#Fill-34_00000065760511582927421810000018045375040059564729_);}
	.st14{fill:#D4D6C8;}
</style>
<g id="Authenticity">
	<g id="Group" transform="translate(114 69)">
		
			<linearGradient id="Fill-2_00000182506158624201466540000009792571325433436844_" gradientUnits="userSpaceOnUse" x1="-109.2554" y1="-346.645" x2="-109.2554" y2="-347.3214" gradientTransform="matrix(190 0 0 275 20894 95518.8828)">
			<stop  offset="0" style="stop-color:#E9E9E5"/>
			<stop  offset="1" style="stop-color:#939387"/>
		</linearGradient>
		<path id="Fill-2" style="fill:url(#Fill-2_00000182506158624201466540000009792571325433436844_);" d="M233.5,212.9
			c-4-11.3-14.1-18.5-25.2-19.4l-24.7,0.4l33.6-37H217c8.1-9.1,10.1-22.6,3.7-34c-5.9-10.4-17.1-15.8-28.1-14.8l-24.2,4.6l20.1-32.3
			h-0.1c4.4-7.2,4.1-16.8-1.7-23.8c-5.3-6.4-13.6-8.7-21.1-6.6L152.8,55l-0.6-3.5l-8.3-33.4h-0.1c-1.7-6.7-7.4-12-14.7-12.6
			c-6.7-0.5-12.8,2.9-15.7,8.5L99.2,47c-0.2,0.5-0.4,1-0.6,1.5L91,43.8v0.1c-6.3-3.8-14.6-3.4-20.6,1.7C65,50.2,63,57.4,64.9,63.9
			l14.1,35.4c0.3,0.8,0.7,1.8,1.2,2.6l-4.9-1.8v0.1c-11.4-4.1-24.7-0.8-32.9,9.3c-7.4,9.3-8.3,21.7-3.1,31.7l34.3,53.2
			c2.8,4.5,6.4,8.7,10.9,12.3c6.1,4.9,13.1,8.1,20.3,9.5c-8.3,12.6-10.8,28.8-5.3,44.4c9.1,25.9,37.3,39.5,62.8,30.5
			c5.3-1.9,10.1-4.7,14.3-8.1l47.8-37.1H224C233.6,238.3,237.8,225.2,233.5,212.9"/>
		
			<linearGradient id="Fill-4_00000153689025497782123190000008467568243553639603_" gradientUnits="userSpaceOnUse" x1="-109.2855" y1="-347.1022" x2="-109.0471" y2="-346.332" gradientTransform="matrix(241 0 0 310 26388 107759.1328)">
			<stop  offset="0" style="stop-color:#939387"/>
			<stop  offset="1" style="stop-color:#B3B4A7"/>
		</linearGradient>
		<path id="Fill-4" style="fill:url(#Fill-4_00000153689025497782123190000008467568243553639603_);" d="M171.3,297.2V297
			l-25.5,15.2c1.5-1.8,2.9-3.7,4.2-5.7c3.3-5,5.3-10.4,6.7-15.8l16.1-64.5c1.7-11.5-3.4-23.6-13.9-30.3c-11.5-7.3-25.9-6.1-36,1.9
			v-0.2l-7.9,6.4l-0.6-39.2c0-0.3,0-0.5-0.1-0.8c-1-7.2-6-13.5-13.5-15.9c-8.3-2.6-17,0.5-21.8,7v-0.1l-13.3,18.1
			c-1.2-2.7-2.7-5.1-4.5-7.3l-25-31c-4.9-4.9-12.4-6.9-19.4-4.3c-7.7,2.8-12.2,10.2-12,17.8H4.8l1.4,38.1c0,1.3,0.1,2.5,0.3,3.8
			l-12.9,0.3c-8.5,1-16.1,6.9-18.9,15.7c-2.9,9.5,0.7,19.5,8.4,25.1H-17l34.4,24.5l-26.8,5.6c-11.7,3.7-21,13.9-22.5,27.2
			c-1.8,14.4,6,27.5,18.2,33.3l-0.1,0.1L35.3,345l-37.2,14.7c-12.9,6.7-21.5,20.4-20.7,36.1c0.9,17,12.6,30.6,27.9,34.9l-0.1,0.1
			l76.3,20.9c6.7,2,13.8,2.9,21.3,2.5c17.3-0.9,32.7-8.7,43.6-20.6c13.7-1.2,27.1-7.3,36.7-18.6c4.1-4.7,7.2-10.1,9.3-15.6l26.6-65
			c3.5-11.8,0.1-25.2-10-33.9C198.2,291.2,182.9,290.4,171.3,297.2L171.3,297.2z"/>
		
			<linearGradient id="Fill-6_00000106130279355300178200000012774380644536623767_" gradientUnits="userSpaceOnUse" x1="-109.0074" y1="-346.5327" x2="-108.2874" y2="-345.9274" gradientTransform="matrix(589.9999 0 0 583 64551.0078 202129.7031)">
			<stop  offset="0" style="stop-color:#F26651"/>
			<stop  offset="1" style="stop-color:#C42810"/>
		</linearGradient>
		<path id="Fill-6" style="fill:url(#Fill-6_00000106130279355300178200000012774380644536623767_);" d="M373.8-52.6
			C391-66,419-66,436.2-52.6l30.4,23.8c17.2,13.4,49,25.1,70.8,25.8l38.6,1.3C597.7-1,619.2,17,623.7,38.4l8,37.7
			c4.5,21.3,21.5,50.8,37.6,65.3l28.7,25.8c16.3,14.6,21.1,42.3,10.8,61.4l-18.1,34.1c-10.3,19.3-16.1,52.6-13.1,74.2l5.5,38.3
			c3,21.6-11,45.9-31.2,54.1l-35.8,14.5c-20.2,8.2-46.1,30-57.7,48.4l-47-3.7c-11.5,18.5-24.2,24.7-44.9,18l-23.9,27.8
			c-20.8-6.7-54.6-6.7-75.4,0l-36.7,12c-20.8,6.7-47.1-2.8-58.6-21.4l-20.4-32.8C240,473.7,214,452,193.8,443.8l-35.8-14.5
			c-20.2-8.2-34.3-32.5-31.2-54.1l5.5-38.3c3-21.6-2.8-55.1-13.1-74.2L101,228.9c-10.3-19.3-5.3-46.9,10.8-61.4l28.7-25.8
			c16.3-14.6,33.1-43.9,37.6-65.3l8-37.7c4.5-21.3,26-39.4,47.8-40.2l38.6-1.3c21.8-0.7,53.7-12.4,70.8-25.8L373.8-52.6z"/>
		<path id="Fill-8" class="st3" d="M527.9,108.3v-7c0-16.3-13.2-29.5-29.5-29.5c-16.3,0-29.5,13.2-29.5,29.5v22
			c0,14.1,9.8,25.7,22.9,28.7l-3.5,40.4l15.1,1.4l3.7-42.3c12.1-3.7,20.8-14.9,20.8-28.2L527.9,108.3L527.9,108.3z"/>
		<path id="Fill-10" class="st4" d="M527.9,82.8c0-6.1-4.9-11.1-11.1-11.1h-46.3c-2.8,0-4.8,2.7-4,5.3l4.3,14.2h32.9
			c8.7,0,15.7,7,15.7,15.7c0,8.3-6.4,15.1-14.6,15.6H469v2c0,16.3,13.2,29.5,29.5,29.5c16.3,0,29.5-13.2,29.5-29.5V82.8"/>
		<path id="Fill-12" class="st5" d="M479,129.1c0,5.2,4.2,9.4,9.4,9.4c5.2,0,9.4-4.2,9.4-9.4"/>
		<path id="Fill-14" class="st3" d="M523.1,107c0,3-2.5,5.6-5.6,5.6c-3,0-5.6-2.5-5.6-5.6c0-3,2.5-5.6,5.6-5.6
			C520.7,101.3,523.1,103.9,523.1,107"/>
		<path id="Fill-32-Copy" class="st6" d="M362,125.3l-9.9-17.9l-12.5,6.8c-3.1,2.2-15.2,12.2-6,29l9.9,17.9l12.5-6.8
			C359.3,152,371.2,142.1,362,125.3"/>
		<path id="Fill-16" class="st7" d="M484,119.5H481c-2,0-3.7-1.7-3.7-3.7V109c0-2.3-1.7-4.2-3.8-4.4c-1.2-0.1-2.3,0.3-3.3,1
			c-0.8,0.8-1.4,1.9-1.4,3.1h-3.1c0-2.1,0.8-4.1,2.4-5.5c1.6-1.4,3.6-2.1,5.7-1.9c3.7,0.3,6.6,3.7,6.6,7.5v6.8
			c0,0.3,0.2,0.5,0.5,0.5h2.9L484,119.5L484,119.5z"/>
		<path id="Fill-18" class="st7" d="M504.2,108.7c0-2.3-1.9-4.2-4.2-4.2s-4.2,1.9-4.2,4.2h-3.1c0-4.1,3.3-7.3,7.3-7.3
			c4.1,0,7.3,3.3,7.3,7.3H504.2z"/>
		<path id="Fill-20" class="st5" d="M411.9,146.6l-37.6,32.7l-42-69.6L369.9,77L411.9,146.6z"/>
		<path id="Fill-42" class="st8" d="M51.1,248.9c9.6,2.4,16.8,11.1,16.8,21.5c0.5,20.2,17,36.5,37.3,36.5l1.8,8.7l-55.9,0.2V248.9
			L51.1,248.9z"/>
		<path id="Fill-40-Copy" class="st6" d="M470.9,223.6l-14.5-34.2c-38.8,16.9-83.9-1.4-100.5-40.7l-1.6-3.5l-1.3-0.1
			c-30.1,20-15.1,43.9-13.2,46.3C370.5,230.2,423.7,244.3,470.9,223.6"/>
		<path id="Fill-22" class="st9" d="M426.3,147.9l-52.8,31.4l-41.2-69.5l52.8-31.2L426.3,147.9z"/>
		<path id="Fill-26" class="st10" d="M522.5,177.5c-14.3-13.9-36.5-14.6-51.4-2l-81,60.3l65.4,65.5l67.7-69.3l-0.2-0.2
			C537.9,216.6,537.7,192.3,522.5,177.5"/>
		
			<linearGradient id="Fill-28_00000002376548582814152500000003532252546696802215_" gradientUnits="userSpaceOnUse" x1="-109.3664" y1="-347.3855" x2="-108.859" y2="-347.3725" gradientTransform="matrix(281 0 0 167.8949 30931.2891 58579.7344)">
			<stop  offset="0" style="stop-color:#939387"/>
			<stop  offset="1" style="stop-color:#2B2B2B"/>
		</linearGradient>
		<path id="Fill-28" style="fill:url(#Fill-28_00000002376548582814152500000003532252546696802215_);" d="M407.2,345.9L298.3,236.9
			l-91,91L160,280.6l91.3-91.3c25.9-25.9,68.1-25.9,94,0l109.3,109.3L407.2,345.9L407.2,345.9z"/>
		
			<linearGradient id="Fill-24_00000028303291216456209330000007476327941891346868_" gradientUnits="userSpaceOnUse" x1="-109.2857" y1="-349.3592" x2="-108.5005" y2="-349.3517" gradientTransform="matrix(290.9986 0 0 72.463 31955.1523 25609.4336)">
			<stop  offset="0" style="stop-color:#939387"/>
			<stop  offset="1" style="stop-color:#2B2B2B"/>
		</linearGradient>
		<path id="Fill-24" style="fill:url(#Fill-24_00000028303291216456209330000007476327941891346868_);" d="M390.1,332.4l-299.4-15
			c2.5-34.4,32.5-60.3,67-57.7l238.1-3.3L390.1,332.4L390.1,332.4z"/>
		<path id="Fill-30" class="st8" d="M400.2,422.6L296,318.4l43.1-43l61.1,61.1l178.3-178.3l43.1,43.1L400.2,422.6z"/>
		<path id="Fill-32" class="st3" d="M372.1,125.3l-9.9-17.9l-12.5,6.8c-3.1,2.2-15.2,12.2-6,29l9.9,17.9l12.5-6.8
			C369.4,152,381.4,142.1,372.1,125.3"/>
		
			<linearGradient id="Fill-34_00000108272451957722430960000001681562856119234737_" gradientUnits="userSpaceOnUse" x1="-108.7102" y1="-347.2987" x2="-108.7102" y2="-348.0622" gradientTransform="matrix(640.069 0 0 125.699 69909.5156 44206.4844)">
			<stop  offset="0" style="stop-color:#565656"/>
			<stop  offset="1" style="stop-color:#2B2B2B"/>
		</linearGradient>
		<path id="Fill-34" style="fill:url(#Fill-34_00000108272451957722430960000001681562856119234737_);" d="M-8.1,422.8
			C80,504.6,197.8,554.7,327.4,554.7s247.6-50,335.7-131.8H-8.1z"/>
		<path id="Fill-36" class="st4" d="M533,369.6c-3.6-1-7.2,1-8.3,4.6c-0.2,0.7-0.3,1.5-0.2,2.2l0.3,8.2c0,0.3,0.1,0.6,0.1,0.8
			c-0.9,0.1-1.8,0.3-2.6,0.7c0.2-0.7,0.3-1.5,0.3-2.2c0-3.7-2.2-6.8-5.5-8.2c0.1-0.2,0.2-0.3,0.3-0.5l2.9-8.6
			c0.2-0.7,0.4-1.5,0.4-2.3c0-3.1-2-5.8-4.8-6.7c0.4-0.3,0.7-0.7,0.9-1.3l2.4-7.1c0.2-0.6,0.3-1.3,0.3-1.9c0-3.3-2.6-5.9-5.9-5.9
			c-3.3,0-5.9,2.6-5.9,5.8c0,0.6,0.1,1.4,0.3,1.9l2.2,6.8c0.2,0.6,0.5,1.2,1,1.6c-2.8,0.9-4.8,3.6-4.8,6.7c0,0.8,0.1,1.6,0.4,2.3
			l2.7,8.3c0.1,0.3,0.2,0.6,0.4,0.8c-3.1,1.4-5.5,4.5-5.5,8.2c0,1,0.2,2,0.5,2.9l3.5,10.4c0.7,2.1,2.6,3.6,5,3.7c1.6,0,3-0.7,4-1.8
			l0.2,5.7c0.1,2.1,1.5,4,3.7,4.6c2,0.5,4-0.1,5.1-1.6l6.1-8.9c0.5-0.7,0.9-1.6,1.3-2.5c0.9-3.3-0.2-6.6-2.7-8.7
			c0.2-0.1,0.3-0.3,0.5-0.5l4.8-7.1c0.4-0.6,0.7-1.3,0.9-2C538.6,374.3,536.6,370.5,533,369.6"/>
		<path id="Fill-38" class="st14" d="M499,396.4l0.4,26.3c0,0,2.5,11.5,12.8,11.8c3.9,0.1,11.4,0.1,15.3,0
			c10.2-0.3,12.8-11.8,12.8-11.8l0.4-26.3H499L499,396.4z"/>
		<path id="Fill-40" class="st3" d="M483.4,211.7l-18-32.1c-36.8,20.7-83.6,7.3-104.1-29.6l-1.9-3.3h-1.3
			c-27.9,22.8-10.5,44.7-8.3,46.9C384.4,228.4,438.7,236.7,483.4,211.7"/>
		<path id="Fill-44" class="st4" d="M195,315.7H56.9c-16.9,0-30.5,13.6-30.5,30.4s13.6,30.4,30.5,30.4h57.6l-60,47.2h142.9l-60-47.2
			H195c16.9,0,30.5-13.6,30.5-30.4S211.9,315.7,195,315.7"/>
		<path id="Fill-46" class="st4" d="M613.6,431l-4.6-77.9l0.3-21.9H552l0.3,18.5l-4.8,81.4l4.9,0.3l3.4-56.6c2.6,4.2,7,8.6,14.4,8.8
			c2.1,0.1,4.9,0.1,8,0.1l0.3,47.6h4.9l-0.3-47.5c3,0,6-0.1,8.2-0.1c7.1-0.2,11.4-4.4,14.1-8.5l3.4,56.2L613.6,431L613.6,431z"/>
		<path id="Fill-48" class="st14" d="M560.6,309.4c0.5,0.5,1,0.9,1.7,1.4c3.1,1.7,7.1,0.5,8.8-2.6c1.8-3.1,0.6-7.1-2.5-8.8
			c-0.6-0.3-1.4-0.6-2.1-0.7l-7.9-1.5c-1.6-0.3-3.3,0.4-4.1,2c-0.7,1.4-0.5,3,0.3,4.2L560.6,309.4L560.6,309.4z"/>
		<path id="Fill-50" class="st14" d="M577.1,310.4c2.4,4.3,7.8,5.9,12.1,3.6c0.5-0.3,1-0.7,1.6-1.2c0.2,1.2,0.6,2.3,1.5,3.3
			c-1.5,1.4-2,3.6-1,5.5c0.2,0.5,0.5,0.8,0.9,1.3l4,4c0.8,0.8,2.1,1,3.1,0.5c1-0.5,1.6-1.5,1.5-2.5l-0.7-5.5l3.6,0.8
			c1.6,0.4,3.3-0.2,4.2-1.7c0.8-1.4,0.7-2.9-0.1-4.2l-5.3-6.4c-0.4-0.5-0.9-1-1.6-1.5c-0.9-0.5-1.9-0.8-2.9-0.9l1.2-1.3
			c1.5-1.7,1.9-4.1,0.7-6.2c-1-1.9-3-2.8-5-2.7l-11.2,2.1c-0.9,0.2-1.9,0.5-2.8,0.9C576.2,300.7,574.7,306,577.1,310.4"/>
		<path id="Fill-52" class="st14" d="M599.9,331.8c-0.4-0.5-0.9-1-1.6-1.5c-3-1.9-7-0.9-9,2.1c-0.7,1.2-1,2.3-0.9,3.6
			c-2.1-1.3-4.8-1.3-7,0.2c-2.9,2-3.8,6.1-1.7,9c0.4,0.6,0.9,1.2,1.5,1.6l6.4,4.8c1.3,0.9,3.1,1,4.5,0.1c1.3-0.8,1.9-2.4,1.6-3.9
			l-1.8-6.3l1.6,0.6l7.8,1.9c1.6,0.4,3.3-0.2,4.2-1.7c0.8-1.4,0.7-2.9-0.1-4.2L599.9,331.8L599.9,331.8z"/>
		<path id="Fill-54" class="st14" d="M570.9,330.3c-1.4-2.2-4.2-2.8-6.4-1.5c-0.4,0.3-0.8,0.6-1.2,1l-3.6,4.4
			c-0.7,0.9-0.8,2.2-0.2,3.1c0.6,0.9,1.7,1.4,2.7,1.3l5.8-1.5c0.5-0.1,0.9-0.3,1.4-0.6C571.6,335.3,572.3,332.5,570.9,330.3"/>
		<path id="Fill-56" class="st14" d="M548.6,320.1l5.7,0.8c-1,1.2-1.4,2.8-0.7,4.3c0.6,1.5,2.1,2.2,3.6,2.2l8.3-0.9
			c0.7-0.1,1.4-0.2,2.1-0.5c3.3-1.5,4.7-5.3,3.1-8.7c-1.5-3.3-5.3-4.7-8.6-3.3c-0.6,0.3-1.3,0.7-1.8,1.3l-0.5,0.5v-0.2
			c-0.4-2.5-2.8-4.2-5.3-3.8c-0.5,0.1-1,0.3-1.5,0.5l-4.9,2.7c-1,0.5-1.6,1.7-1.4,2.8S547.6,319.8,548.6,320.1"/>
		<path id="Fill-58" class="st14" d="M539.5,331.4l5.9,0.8c0.5,0.1,1,0.1,1.6,0c2.5-0.4,4.2-2.8,3.7-5.3c-0.4-2.5-2.8-4.2-5.3-3.8
			c-0.5,0.1-1,0.3-1.5,0.5l-4.9,2.7c-1,0.5-1.6,1.7-1.4,2.8C537.7,330.4,538.5,331.2,539.5,331.4"/>
		<path id="Fill-60" class="st14" d="M549.1,339.6c-1.2-3.3-4.6-4.9-7.9-3.8c-0.6,0.2-1.3,0.6-1.8,1l-6,4.6
			c-1.2,0.9-1.7,2.6-1.2,4.1c0.5,1.4,1.8,2.3,3.1,2.4l8-0.2c0.6,0,1.4-0.1,2-0.3C548.6,346.3,550.2,342.7,549.1,339.6"/>
		<path id="Fill-62" class="st14" d="M579.7,349.9c-1.2-2.3-3.9-3.1-6.2-2.1c-2.3,1.2-3.3,3.9-2.1,6.2c0.2,0.5,0.5,0.8,0.9,1.3l4,4
			c0.8,0.8,2.1,1,3.1,0.5s1.6-1.5,1.5-2.5l-0.8-5.9C580.1,350.8,580,350.3,579.7,349.9"/>
		<path id="Fill-64" class="st14" d="M553.3,347c-0.4,0.2-0.8,0.6-1.3,0.9l-3.9,4.1c-0.7,0.8-0.9,2.1-0.4,3.1
			c0.5,0.9,1.6,1.5,2.6,1.5l5.9-1c0.5-0.1,0.9-0.2,1.5-0.5c2.2-1.3,3-4,1.9-6.3C558.3,346.6,555.5,345.8,553.3,347"/>
		<path id="Fill-66" class="st14" d="M575.9,334.9c1.5,0.7,3,0.4,4.2-0.5l5.8-6c0.5-0.5,0.9-1,1.3-1.8c1.6-3.3,0.2-7.1-3-8.7
			s-7.1-0.2-8.7,3c-0.3,0.6-0.5,1.4-0.6,2.1l-1,8C573.6,332.5,574.4,334.1,575.9,334.9"/>
		<path id="Fill-68" class="st14" d="M611.7,327.4c-0.3-0.4-0.6-0.7-1-1c-2.1-1.5-4.9-0.9-6.4,1.2s-0.9,4.9,1.2,6.4
			c0.4,0.3,0.9,0.5,1.4,0.6l5.5,1.6c1,0.3,2.3-0.1,3-1c0.6-0.9,0.6-2.1,0.1-2.9L611.7,327.4L611.7,327.4z"/>
		<path id="Fill-70" class="st14" d="M609.7,309.4c0.5,0.1,1,0.1,1.6,0l5.6-0.8c1.2-0.2,2.1-1,2.3-2.2c0.2-1-0.3-2.1-1.2-2.7
			l-5.2-2.7c-0.4-0.2-0.9-0.4-1.5-0.5c-2.5-0.4-4.9,1.3-5.3,3.8S607.2,309,609.7,309.4"/>
		<path id="Fill-72" class="st14" d="M624.8,317.3l-6.6-3.5c-0.5-0.3-1.2-0.5-1.8-0.6c-3.1-0.5-6.2,1.7-6.7,4.8
			c-0.5,3.1,1.6,6.2,4.7,6.7c0.6,0.1,1.3,0.1,1.9,0l7-1c1.5-0.2,2.6-1.4,2.8-2.8C626.5,319.2,625.8,317.9,624.8,317.3"/>
		<path id="Fill-74" class="st14" d="M581.9,293.1c2.2,1.3,5,0.5,6.3-1.8c0.2-0.4,0.4-0.9,0.5-1.5l1-5.6c0.2-1.2-0.3-2.3-1.4-2.9
			c-0.9-0.5-2.1-0.4-2.9,0.2l-4.4,4c-0.4,0.3-0.7,0.7-0.9,1.2C578.9,289,579.7,291.9,581.9,293.1"/>
		<path id="Fill-76" class="st14" d="M569.5,295.3c0.2,0.4,0.5,0.8,0.8,1.3c1.8,1.8,4.7,1.8,6.5,0s1.9-4.7,0.1-6.5
			c-0.4-0.4-0.8-0.6-1.3-0.9l-5-2.6c-1-0.5-2.3-0.3-3.1,0.5c-0.8,0.7-1,1.9-0.6,2.9L569.5,295.3z"/>
	</g>
</g>
</svg>
