<?xml version="1.0" encoding="utf-8"?>
<!-- Generator: Adobe Illustrator 27.5.0, SVG Export Plug-In . SVG Version: 6.00 Build 0)  -->
<svg version="1.1" id="Layer_1" xmlns="http://www.w3.org/2000/svg" xmlns:xlink="http://www.w3.org/1999/xlink" x="0px" y="0px"
	 viewBox="0 0 910 630" style="enable-background:new 0 0 910 630;" xml:space="preserve">
<style type="text/css">
	.st0{clip-path:url(#SVGID_00000075152263594235119560000017951183257240463517_);}
	.st1{filter:url(#Adobe_OpacityMaskFilter);}
	.st2{clip-path:url(#SVGID_00000018941579947580168800000000339868042359061127_);fill:#FFFFFF;}
	
		.st3{clip-path:url(#SVGID_00000018941579947580168800000000339868042359061127_);mask:url(#mask-2_00000151521265208037304070000006650008416732103836_);fill:#E5A5A1;}
	.st4{fill:#FFFFFF;}
	.st5{filter:url(#Adobe_OpacityMaskFilter_00000124843787126262211740000012744110354044694657_);}
	.st6{mask:url(#mask-2_00000164504364328550746960000017857915693003409818_);fill:#F16651;}
	.st7{filter:url(#Adobe_OpacityMaskFilter_00000007429017341838330630000002625260205716151439_);}
	.st8{mask:url(#mask-2_00000142876058550643205970000010290183640964608189_);fill:#A51904;}
	.st9{filter:url(#Adobe_OpacityMaskFilter_00000054224733349540084280000005046676875520139146_);}
	
		.st10{mask:url(#mask-2_00000088829397364356091930000014622208120575203223_);fill:url(#Fill-7_00000036220451010381848670000003532179701203793080_);}
	.st11{filter:url(#Adobe_OpacityMaskFilter_00000175314634431494352050000018115696779530103955_);}
	.st12{mask:url(#mask-2_00000002385835695943866500000015829987291779544767_);fill:#2B2B2B;}
	.st13{filter:url(#Adobe_OpacityMaskFilter_00000045600433283251749280000010679075844131304379_);}
	.st14{mask:url(#mask-2_00000067221284890900301600000003574981845506880394_);fill:#E5A5A1;}
	.st15{filter:url(#Adobe_OpacityMaskFilter_00000145758608793141230690000012402689635175576477_);}
	.st16{mask:url(#mask-2_00000173855616228041386550000012661702238156931200_);fill:#F16651;}
	.st17{filter:url(#Adobe_OpacityMaskFilter_00000023282706729631705410000009671772346792012471_);}
	
		.st18{mask:url(#mask-2_00000005958276278582870450000013231358489893591738_);fill:url(#Fill-12_00000116925431290077279800000015179920683055085755_);}
	.st19{filter:url(#Adobe_OpacityMaskFilter_00000078746800028315564180000007148459512999010976_);}
	.st20{mask:url(#mask-2_00000067954725140809103710000007729564360102024625_);fill:#FEFEFE;}
	.st21{filter:url(#Adobe_OpacityMaskFilter_00000168078873252036277440000011916750599634013587_);}
	.st22{mask:url(#mask-2_00000049940212687856326780000013179362635062245024_);fill:#C35750;}
	.st23{filter:url(#Adobe_OpacityMaskFilter_00000030474860909979361200000017779149044469432496_);}
	.st24{mask:url(#mask-2_00000120547931568346949780000015377379275458103188_);fill:#2B2B2B;}
	.st25{fill:#2B2B2B;}
	.st26{fill:#F26651;}
</style>
<g>
	<defs>
		<polygon id="SVGID_1_" points="89.2,4.6 90.2,4.6 89.2,5.6 		"/>
	</defs>
	<defs>
		<polygon id="SVGID_00000054967780754512034030000013919073894792620691_" points="87.1,2.5 86,2.5 87.1,1.4 		"/>
	</defs>
	<clipPath id="SVGID_00000088831812545673232400000016465954333331583412_">
		<use xlink:href="#SVGID_1_"  style="overflow:visible;"/>
	</clipPath>
	
		<clipPath id="SVGID_00000101781629241346414400000001103509290646026427_" style="clip-path:url(#SVGID_00000088831812545673232400000016465954333331583412_);">
		<use xlink:href="#SVGID_00000054967780754512034030000013919073894792620691_"  style="overflow:visible;"/>
	</clipPath>
	<defs>
		<filter id="Adobe_OpacityMaskFilter" filterUnits="userSpaceOnUse" x="478.3" y="487.1" width="0" height="0">
			<feColorMatrix  type="matrix" values="1 0 0 0 0  0 1 0 0 0  0 0 1 0 0  0 0 0 1 0"/>
		</filter>
	</defs>
	
		<mask maskUnits="userSpaceOnUse" x="478.3" y="487.1" width="0" height="0" id="mask-2_00000151521265208037304070000006650008416732103836_">
		<g class="st1">
			
				<path id="path-1_00000119824263852758204440000004349842535047219385_" style="clip-path:url(#SVGID_00000101781629241346414400000001103509290646026427_);fill:#FFFFFF;" d="
				M89.4,310.9c0,55.6,14.9,107.9,40.7,152.9L88.1,620.4l157-42c44.8,25.4,96.5,40,151.6,40c169.7,0,307.4-137.6,307.4-307.4
				C704.2,141.2,566.6,3.5,396.7,3.5C227,3.5,89.4,141.2,89.4,310.9z"/>
		</g>
	</mask>
	
		<path id="Fill-9" style="clip-path:url(#SVGID_00000101781629241346414400000001103509290646026427_);mask:url(#mask-2_00000151521265208037304070000006650008416732103836_);fill:#E5A5A1;" d="
		M478.3,487.1C478.3,487,478.3,487.1,478.3,487.1z"/>
</g>
<g>
	<path id="Fill-2" class="st4" d="M88.1,624.4l157-42c44.8,25.4,96.5,40,151.6,40c169.7,0,307.4-137.6,307.4-307.4
		C704.2,145.2,566.5,7.5,396.7,7.5S89.3,145.2,89.3,314.9c0,55.6,14.9,107.9,40.7,152.9L88.1,624.4z"/>
	<defs>
		
			<filter id="Adobe_OpacityMaskFilter_00000065787622253773263670000001248627656990562739_" filterUnits="userSpaceOnUse" x="335.5" y="419.6" width="73.3" height="135">
			<feColorMatrix  type="matrix" values="1 0 0 0 0  0 1 0 0 0  0 0 1 0 0  0 0 0 1 0"/>
		</filter>
	</defs>
	
		<mask maskUnits="userSpaceOnUse" x="335.5" y="419.6" width="73.3" height="135" id="mask-2_00000164504364328550746960000017857915693003409818_">
		<g style="filter:url(#Adobe_OpacityMaskFilter_00000065787622253773263670000001248627656990562739_);">
			<path id="path-1_00000123412628436819056700000009450046180786412679_" class="st4" d="M89.3,314.9c0,55.6,14.9,107.9,40.7,152.9
				L88.1,624.4l157-42c44.8,25.4,96.5,40,151.6,40c169.7,0,307.4-137.6,307.4-307.4C704.2,145.2,566.5,7.5,396.7,7.5
				C227,7.5,89.3,145.2,89.3,314.9z"/>
		</g>
	</mask>
	<path id="Fill-4" class="st6" d="M335.5,554.6h73.3v-135h-73.3V554.6z"/>
	<defs>
		
			<filter id="Adobe_OpacityMaskFilter_00000146484700409119608710000007614447536948899767_" filterUnits="userSpaceOnUse" x="428.3" y="286.3" width="103" height="268.4">
			<feColorMatrix  type="matrix" values="1 0 0 0 0  0 1 0 0 0  0 0 1 0 0  0 0 0 1 0"/>
		</filter>
	</defs>
	
		<mask maskUnits="userSpaceOnUse" x="428.3" y="286.3" width="103" height="268.4" id="mask-2_00000142876058550643205970000010290183640964608189_">
		<g style="filter:url(#Adobe_OpacityMaskFilter_00000146484700409119608710000007614447536948899767_);">
			<path id="path-1_00000170968896925484561150000005946017063823919257_" class="st4" d="M89.3,314.9c0,55.6,14.9,107.9,40.7,152.9
				L88.1,624.4l157-42c44.8,25.4,96.5,40,151.6,40c169.7,0,307.4-137.6,307.4-307.4C704.2,145.2,566.5,7.5,396.7,7.5
				C227,7.5,89.3,145.2,89.3,314.9z"/>
		</g>
	</mask>
	<path id="Fill-6" class="st8" d="M428.3,554.6h103V286.3h-103V554.6z"/>
	<defs>
		
			<filter id="Adobe_OpacityMaskFilter_00000040558159530793121220000003978478094733040789_" filterUnits="userSpaceOnUse" x="146.7" y="116.5" width="318.3" height="683.3">
			<feColorMatrix  type="matrix" values="1 0 0 0 0  0 1 0 0 0  0 0 1 0 0  0 0 0 1 0"/>
		</filter>
	</defs>
	
		<mask maskUnits="userSpaceOnUse" x="146.7" y="116.5" width="318.3" height="683.3" id="mask-2_00000088829397364356091930000014622208120575203223_">
		<g style="filter:url(#Adobe_OpacityMaskFilter_00000040558159530793121220000003978478094733040789_);">
			<path id="path-1_00000088099000166892085820000017321251363761042051_" class="st4" d="M89.3,314.9c0,55.6,14.9,107.9,40.7,152.9
				L88.1,624.4l157-42c44.8,25.4,96.5,40,151.6,40c169.7,0,307.4-137.6,307.4-307.4C704.2,145.2,566.5,7.5,396.7,7.5
				C227,7.5,89.3,145.2,89.3,314.9z"/>
		</g>
	</mask>
	
		<linearGradient id="Fill-7_00000155116894895775860980000011584898853727190662_" gradientUnits="userSpaceOnUse" x1="114.0249" y1="-356.1374" x2="114.0799" y2="-355.8998" gradientTransform="matrix(304.334 0 0 653.248 -34405.6914 232984.2969)">
		<stop  offset="0" style="stop-color:#F26651"/>
		<stop  offset="1" style="stop-color:#A51904"/>
	</linearGradient>
	
		<path id="Fill-7" style="mask:url(#mask-2_00000088829397364356091930000014622208120575203223_);fill:url(#Fill-7_00000155116894895775860980000011584898853727190662_);" d="
		M332.3,116.5c-73.3,0-132.8,59.4-132.8,132.8c0,34.7,13.3,66.2,35,89.9c18.4,24.7,23,58.4,9.1,88.3c-4.8,10.4-11.5,19.3-19.3,26.7
		c-47,34.9-77.5,90.9-77.5,153.9c0,105.8,85.8,191.7,191.7,191.7L430.2,426c9.3,2.1,34.9-103.1,34.9-176.4S405.7,116.5,332.3,116.5
		L332.3,116.5z"/>
	<defs>
		
			<filter id="Adobe_OpacityMaskFilter_00000012442207467578005680000001654584309191490494_" filterUnits="userSpaceOnUse" x="200.4" y="491.2" width="306.1" height="208.1">
			<feColorMatrix  type="matrix" values="1 0 0 0 0  0 1 0 0 0  0 0 1 0 0  0 0 0 1 0"/>
		</filter>
	</defs>
	
		<mask maskUnits="userSpaceOnUse" x="200.4" y="491.2" width="306.1" height="208.1" id="mask-2_00000002385835695943866500000015829987291779544767_">
		<g style="filter:url(#Adobe_OpacityMaskFilter_00000012442207467578005680000001654584309191490494_);">
			<path id="path-1_00000176749172718290882800000005960078613204358572_" class="st4" d="M89.3,314.9c0,55.6,14.9,107.9,40.7,152.9
				L88.1,624.4l157-42c44.8,25.4,96.5,40,151.6,40c169.7,0,307.4-137.6,307.4-307.4C704.2,145.2,566.5,7.5,396.7,7.5
				C227,7.5,89.3,145.2,89.3,314.9z"/>
		</g>
	</mask>
	<path id="Fill-8" class="st12" d="M304.5,699.3c-57.5,0-104.1-46.5-104.1-104.1c0-57.5,46.5-104.1,104.1-104.1h202.1l-33.6,164.2
		L304.5,699.3L304.5,699.3z"/>
	<defs>
		
			<filter id="Adobe_OpacityMaskFilter_00000128485375626176980640000016376623856089794698_" filterUnits="userSpaceOnUse" x="299.9" y="182.7" width="194.1" height="388.7">
			<feColorMatrix  type="matrix" values="1 0 0 0 0  0 1 0 0 0  0 0 1 0 0  0 0 0 1 0"/>
		</filter>
	</defs>
	
		<mask maskUnits="userSpaceOnUse" x="299.9" y="182.7" width="194.1" height="388.7" id="mask-2_00000067221284890900301600000003574981845506880394_">
		<g style="filter:url(#Adobe_OpacityMaskFilter_00000128485375626176980640000016376623856089794698_);">
			<path id="path-1_00000134219720086227732030000003984322547658905760_" class="st4" d="M89.3,314.9c0,55.6,14.9,107.9,40.7,152.9
				L88.1,624.4l157-42c44.8,25.4,96.5,40,151.6,40c169.7,0,307.4-137.6,307.4-307.4C704.2,145.2,566.5,7.5,396.7,7.5
				C227,7.5,89.3,145.2,89.3,314.9z"/>
		</g>
	</mask>
	<path id="Fill-10" class="st14" d="M435.1,445.8c34.6-14.9,58.9-49.3,58.9-89.3v-76.8c0-53.7-43.5-97.1-97.1-97.1
		c-53.7,0-97.1,43.5-97.1,97.1v76.8c0,41.6,26.1,77.1,63,90.9c-0.8,24.3-20.7,43.6-45.2,43.6h0.7h-0.7c0,44.3,36,80.4,80.4,80.4
		c44.3,0,80.3-36,80.4-80.3V491h2C455.3,491,435.1,470.7,435.1,445.8"/>
	<defs>
		
			<filter id="Adobe_OpacityMaskFilter_00000168830753691031101740000011682469197035467945_" filterUnits="userSpaceOnUse" x="299.2" y="251.1" width="194.4" height="87.8">
			<feColorMatrix  type="matrix" values="1 0 0 0 0  0 1 0 0 0  0 0 1 0 0  0 0 0 1 0"/>
		</filter>
	</defs>
	
		<mask maskUnits="userSpaceOnUse" x="299.2" y="251.1" width="194.4" height="87.8" id="mask-2_00000173855616228041386550000012661702238156931200_">
		<g style="filter:url(#Adobe_OpacityMaskFilter_00000168830753691031101740000011682469197035467945_);">
			<path id="path-1_00000088821625629615878810000005101102421194938047_" class="st4" d="M89.3,314.9c0,55.6,14.9,107.9,40.7,152.9
				L88.1,624.4l157-42c44.8,25.4,96.5,40,151.6,40c169.7,0,307.4-137.6,307.4-307.4C704.2,145.2,566.5,7.5,396.7,7.5
				C227,7.5,89.3,145.2,89.3,314.9z"/>
		</g>
	</mask>
	<path id="Fill-11" class="st16" d="M450.3,318c-12.4,0-22.5-10.4-22.5-23c0-12.7,10-23,22.5-23c12.4,0,22.5,10.4,22.5,23
		C472.8,307.8,462.7,318,450.3,318 M342.6,318c-12.4,0-22.5-10.4-22.5-23c0-12.7,10-23,22.5-23c12.4,0,22.5,10.4,22.5,23
		C365.1,307.8,355,318,342.6,318 M450.2,251.1c-15,0-28.1,7.6-36,19.3c-5-3.7-11.2-5.8-17.8-5.8c-6.7,0-12.9,2.2-17.9,5.8
		c-7.8-11.7-21-19.3-36-19.3c-23.9,0-43.4,19.7-43.4,43.9c0,24.3,19.5,43.9,43.4,43.9S386,319.3,386,295v-0.6
		c0.7-5.2,5.1-9.2,10.5-9.2c5.2,0,9.6,3.9,10.4,9v0.8c0,24.3,19.5,43.9,43.4,43.9s43.4-19.7,43.4-43.9
		C493.6,270.8,474.2,251.1,450.2,251.1"/>
	<defs>
		
			<filter id="Adobe_OpacityMaskFilter_00000132081885239688039760000006672168904013608097_" filterUnits="userSpaceOnUse" x="380.7" y="97.5" width="347.4" height="702.4">
			<feColorMatrix  type="matrix" values="1 0 0 0 0  0 1 0 0 0  0 0 1 0 0  0 0 0 1 0"/>
		</filter>
	</defs>
	
		<mask maskUnits="userSpaceOnUse" x="380.7" y="97.5" width="347.4" height="702.4" id="mask-2_00000005958276278582870450000013231358489893591738_">
		<g style="filter:url(#Adobe_OpacityMaskFilter_00000132081885239688039760000006672168904013608097_);">
			<path id="path-1_00000180367497252341077110000010696910989371915454_" class="st4" d="M89.3,314.9c0,55.6,14.9,107.9,40.7,152.9
				L88.1,624.4l157-42c44.8,25.4,96.5,40,151.6,40c169.7,0,307.4-137.6,307.4-307.4C704.2,145.2,566.5,7.5,396.7,7.5
				C227,7.5,89.3,145.2,89.3,314.9z"/>
		</g>
	</mask>
	
		<linearGradient id="Fill-12_00000119094278143005373300000008550840589599180205_" gradientUnits="userSpaceOnUse" x1="114.0014" y1="-356.1797" x2="114.1125" y2="-355.8689" gradientTransform="matrix(332.14 0 0 671.582 -37351.9922 239494.1562)">
		<stop  offset="0" style="stop-color:#F26651"/>
		<stop  offset="1" style="stop-color:#A91D08"/>
	</linearGradient>
	
		<path id="Fill-12" style="mask:url(#mask-2_00000005958276278582870450000013231358489893591738_);fill:url(#Fill-12_00000119094278143005373300000008550840589599180205_);" d="
		M619.3,356.1c-0.2-0.2-0.5-0.3-0.7-0.4c-14.4-6.7-27.1-17.9-35.8-32.5c-18.1-30.6-13.6-68.4,8.7-93.7c0,0-23.8-27.6-23.8-38.5
		c0-51.7-41.8-93.5-93.5-93.5s-93.5,41.8-93.5,93.5c0,41.6,27.2,76.9,64.8,89c39.3,13.4,67.7,50.6,67.7,94.5
		c0,30-13.3,56.9-34.2,75.2c-50.6,34.5-83.9,92.6-83.9,158.4c0,105.8,85.8,191.7,191.7,191.7V714c81.4-22.3,141.3-96.6,141.3-185.1
		C728.1,452.7,683.7,387,619.3,356.1L619.3,356.1z"/>
	<defs>
		
			<filter id="Adobe_OpacityMaskFilter_00000170963531633959931640000011986200079469336483_" filterUnits="userSpaceOnUse" x="356.5" y="368" width="80.5" height="40.3">
			<feColorMatrix  type="matrix" values="1 0 0 0 0  0 1 0 0 0  0 0 1 0 0  0 0 0 1 0"/>
		</filter>
	</defs>
	
		<mask maskUnits="userSpaceOnUse" x="356.5" y="368" width="80.5" height="40.3" id="mask-2_00000067954725140809103710000007729564360102024625_">
		<g style="filter:url(#Adobe_OpacityMaskFilter_00000170963531633959931640000011986200079469336483_);">
			<path id="path-1_00000183965587655355029750000008923708587866200248_" class="st4" d="M89.3,314.9c0,55.6,14.9,107.9,40.7,152.9
				L88.1,624.4l157-42c44.8,25.4,96.5,40,151.6,40c169.7,0,307.4-137.6,307.4-307.4C704.2,145.2,566.5,7.5,396.7,7.5
				C227,7.5,89.3,145.2,89.3,314.9z"/>
		</g>
	</mask>
	<path id="Fill-13" class="st20" d="M356.5,368c0,22.3,18.1,40.3,40.3,40.3c22.3,0,40.3-18.1,40.3-40.3"/>
	<defs>
		
			<filter id="Adobe_OpacityMaskFilter_00000003071715220782658980000003514186370760203661_" filterUnits="userSpaceOnUse" x="386.1" y="340.2" width="21.5" height="10.8">
			<feColorMatrix  type="matrix" values="1 0 0 0 0  0 1 0 0 0  0 0 1 0 0  0 0 0 1 0"/>
		</filter>
	</defs>
	
		<mask maskUnits="userSpaceOnUse" x="386.1" y="340.2" width="21.5" height="10.8" id="mask-2_00000049940212687856326780000013179362635062245024_">
		<g style="filter:url(#Adobe_OpacityMaskFilter_00000003071715220782658980000003514186370760203661_);">
			<path id="path-1_00000140726534166125182210000010731031400977698744_" class="st4" d="M89.3,314.9c0,55.6,14.9,107.9,40.7,152.9
				L88.1,624.4l157-42c44.8,25.4,96.5,40,151.6,40c169.7,0,307.4-137.6,307.4-307.4C704.2,145.2,566.5,7.5,396.7,7.5
				C227,7.5,89.3,145.2,89.3,314.9z"/>
		</g>
	</mask>
	<path id="Fill-14" class="st22" d="M386.1,340.2c0,6,4.8,10.8,10.8,10.8c6,0,10.8-4.8,10.8-10.8"/>
	<defs>
		
			<filter id="Adobe_OpacityMaskFilter_00000085239201620970763650000003213334663255145606_" filterUnits="userSpaceOnUse" x="266.2" y="283.7" width="157.2" height="190.9">
			<feColorMatrix  type="matrix" values="1 0 0 0 0  0 1 0 0 0  0 0 1 0 0  0 0 0 1 0"/>
		</filter>
	</defs>
	
		<mask maskUnits="userSpaceOnUse" x="266.2" y="283.7" width="157.2" height="190.9" id="mask-2_00000120547931568346949780000015377379275458103188_">
		<g style="filter:url(#Adobe_OpacityMaskFilter_00000085239201620970763650000003213334663255145606_);">
			<path id="path-1_00000181796385310342418860000000042583150390191757_" class="st4" d="M89.3,314.9c0,55.6,14.9,107.9,40.7,152.9
				L88.1,624.4l157-42c44.8,25.4,96.5,40,151.6,40c169.7,0,307.4-137.6,307.4-307.4C704.2,145.2,566.5,7.5,396.7,7.5
				C227,7.5,89.3,145.2,89.3,314.9z"/>
		</g>
	</mask>
	<path id="Fill-15" class="st24" d="M397.5,422.8c-10.8,0-20,6.6-23.8,15.9c-41.7-6.4-73.8-42.6-73.8-86.1v-68.9
		c-18.6,0-33.7,15.1-33.7,33.7c0,11.1,5.3,20.8,13.5,27v8.3c0,54.7,41.1,99.9,94,106.4c4,9.2,13.1,15.6,23.7,15.6
		c14.3,0,25.9-11.6,25.9-25.9C423.4,434.4,411.8,422.8,397.5,422.8"/>
	<path id="Fill-17" class="st25" d="M821.9,322.6l-21.5-80.5c13.1-22.9,20.5-49.5,20.5-77.8c0-86.9-70.6-157.5-157.6-157.5
		S505.7,77.3,505.7,164.4S576.3,322,663.3,322c28.6,0,55.3-7.6,78.4-20.8L821.9,322.6z"/>
	<path id="Fill-19" class="st26" d="M624.8,121.2v33.5h36.6v-33.5h20.7v86.9h-20.7v-34.3h-36.6v34.3h-20.7v-86.9
		C604.1,121.2,624.8,121.2,624.8,121.2z M696.8,208.1h19.5v-61h-19.5V208.1z M698.2,120.2c2.2-2.2,5-3.3,8.3-3.3
		c3.2,0,6.1,1.2,8.3,3.3c2.2,2.3,3.3,5,3.3,8.3s-1.2,6.1-3.3,8.3c-2.2,2.2-5,3.3-8.3,3.3c-3.2,0-6.1-1.2-8.3-3.3
		c-2.2-2.2-3.3-4.9-3.3-8.3C694.9,125.2,696,122.4,698.2,120.2z"/>
</g>
</svg>
