<?xml version="1.0" encoding="utf-8"?>
<!-- Generator: Adobe Illustrator 27.5.0, SVG Export Plug-In . SVG Version: 6.00 Build 0)  -->
<svg version="1.1" id="Layer_1" xmlns="http://www.w3.org/2000/svg" xmlns:xlink="http://www.w3.org/1999/xlink" x="0px" y="0px"
	 viewBox="0 0 910 630" style="enable-background:new 0 0 910 630;" xml:space="preserve">
<style type="text/css">
	.st0{fill:url(#Fill-1_00000011750631217894434680000006843572690272855993_);}
	.st1{fill:url(#Fill-10_00000109750336312110241900000006049557037846522551_);}
	.st2{fill:#FEFEFE;}
	.st3{fill:none;stroke:#F16651;stroke-width:12.2546;}
	.st4{fill:#E9EAE6;}
	.st5{fill:#2B2B2B;}
	.st6{fill:url(#Fill-6_00000064323254361596463430000007699022645686186926_);}
	.st7{fill:#F26651;}
	.st8{fill:#E5A5A1;}
	.st9{fill:#D33F27;}
	.st10{fill:url(#Fill-28_00000023248962157380588230000004972922276942041766_);}
	.st11{fill:url(#Fill-32_00000064324343899302310170000015984559077165537690_);}
	.st12{fill:#C35750;}
	.st13{fill:#D4D6C8;}
	.st14{fill:#FFFFFF;}
</style>
<g id="Delivery">
	<g id="Group-3" transform="translate(31 222)">
		
			<linearGradient id="Fill-1_00000129889696947053711820000009640375553531118985_" gradientUnits="userSpaceOnUse" x1="140.603" y1="-345.9665" x2="140.603" y2="-344.9339" gradientTransform="matrix(877.301 0 0 438.65 -122927.1172 151713.25)">
			<stop  offset="0" style="stop-color:#E9EAE6"/>
			<stop  offset="1" style="stop-color:#D4D6C8"/>
		</linearGradient>
		<path id="Fill-1" style="fill:url(#Fill-1_00000129889696947053711820000009640375553531118985_);" d="M-28.9,408
			c0-250.2,202.8-453,452.9-453c250.2,0,453,202.8,453,452.9H-28.9V408z"/>
	</g>
	<g id="Group" transform="translate(426 100)">
		
			<linearGradient id="Fill-10_00000179617658344043992360000012498553453421873077_" gradientUnits="userSpaceOnUse" x1="-649.7372" y1="-345.7916" x2="-649.5505" y2="-344.9066" gradientTransform="matrix(406 0 0 559.8289 263960.125 193568.0938)">
			<stop  offset="0" style="stop-color:#F26651"/>
			<stop  offset="1" style="stop-color:#D33F27"/>
		</linearGradient>
		<path id="Fill-10" style="fill:url(#Fill-10_00000179617658344043992360000012498553453421873077_);" d="M188.9-48.3
			C73.3-45.7-18.5,50.5-16,166.2c2.5,112.4,200.1,343.7,208.6,353.5c2.3,2.6,8.9,10,8.9,10s6.6-7.6,8.7-10.3
			c8.1-10.1,195.5-249.9,193-362.3C400.6,41.3,304.4-50.8,188.9-48.3"/>
		<path id="Fill-12" class="st2" d="M289.6,160.3c0,53.1-43,96.1-96,96.1s-96-43.1-96-96.1s43-96.1,96-96.1S289.6,107.2,289.6,160.3
			"/>
		<path id="Stroke-14" class="st3" d="M161.5,181.4c6.7,10.2,18.3,16.9,31.4,16.9c13.1,0,24.7-6.7,31.4-16.9"/>
		<path id="Stroke-16" class="st3" d="M149.4,145.2c0-8.1,7-14.6,15.7-14.6c8.7,0,15.7,6.5,15.7,14.6"/>
		<path id="Stroke-18" class="st3" d="M206.2,145.2c0-8.1,7-14.6,15.7-14.6c8.7,0,15.7,6.5,15.7,14.6"/>
	</g>
	<g id="Group-4" transform="translate(609 123)">
		<path id="Fill-23" class="st4" d="M227.6-4.8C207-31.3,174.9-48.2,139-48.2c-36,0-68,16.9-88.6,43.4H227.6z"/>
		<path id="Fill-25" class="st4" d="M85.2-4.8c-11-14.8-28.3-24.4-47.6-24.4c-19.4,0-36.7,9.6-47.7,24.4
			C-10.1-4.8,85.2-4.8,85.2-4.8z"/>
		<path id="Fill-27" class="st4" d="M262.5-4.8c-11-14.9-28.3-24.4-47.7-24.4s-36.6,9.6-47.7,24.4C167.1-4.8,262.5-4.8,262.5-4.8z"
			/>
	</g>
	<g id="Group-2" transform="translate(101 69.9572)">
		<path id="Fill-2" class="st5" d="M423.4,560c-1.9-7.4-8.6-12.9-16.5-12.9c-15.6-0.4-28.1-13.1-28.1-28.7l-6.7-1.3l-0.2,43H423.4
			L423.4,560z"/>
		<path id="Fill-4" class="st5" d="M-26.6,513.4c7.4-1.9,12.9-8.6,12.9-16.5c0.4-15.6,13.1-28.1,28.7-28.1l1.3-6.7l-43-0.2V513.4
			L-26.6,513.4z"/>
		
			<linearGradient id="Fill-6_00000096777681511133734640000007272732453077399449_" gradientUnits="userSpaceOnUse" x1="-0.2183" y1="-346.9259" x2="-0.584" y2="-346.2252" gradientTransform="matrix(166.193 0 0 166.192 182.8816 57964.1992)">
			<stop  offset="0" style="stop-color:#A51904"/>
			<stop  offset="1" style="stop-color:#F26651"/>
		</linearGradient>
		<path id="Fill-6" style="fill:url(#Fill-6_00000096777681511133734640000007272732453077399449_);" d="M13.4,437.6
			c66.2,0,120-53.8,120-120H185c0,94.6-77,171.6-171.6,171.6C13.4,489.3,13.4,437.6,13.4,437.6z"/>
		<path id="Fill-8" class="st7" d="M314.7,340.7c-46.5-46.5-107.8-72.5-173.3-73.7c-1.7-0.3-3.3-0.5-5-0.5c-14.4,0-26,11.7-26,26
			s11.7,26,26,26h0.6c110.3,0.3,199.8,90.1,199.8,200.4h51.6C388.5,451.6,362.3,388.3,314.7,340.7"/>
		<path id="Fill-20" class="st5" d="M327.2,107l-26.1-78L324.7-15L286-14.8c-9.3-20.7-29.9-35.1-54.3-35.1
			c-26.4,0-48.6,17-56.6,40.4l-0.2-0.2L136.2,107c-3.6,10.3-5.7,21.3-5.7,32.8c0,55,45.3,99.7,101.3,99.7
			c55.9,0,101.2-44.6,101.2-99.7C332.9,128.3,330.8,117.4,327.2,107 M253.7,14.2c-0.2,11.4-9.6,20.3-21.1,20.1
			c-11.5-0.2-20.5-9.5-20.3-20.9c0.2-11.4,9.6-20.3,21.1-20.1C244.7-6.4,253.8,2.8,253.7,14.2"/>
		<path id="Fill-22" class="st8" d="M125.6,69.2c-15.3,0-27.8,12.4-27.8,27.8v3.6h-1.5c-3.4,0-6.2,2.8-6.2,6.2
			c0,3.4,2.8,6.2,6.2,6.2c0.5,0,1-0.1,1.5-0.2v5c0,12.9,8.8,23.7,20.7,26.8l3.4,39.4l14.2-1.2l-3.3-38.3
			c11.8-3.2,20.5-13.9,20.5-26.7V97C153.2,81.6,140.8,69.2,125.6,69.2"/>
		<path id="Fill-24" class="st9" d="M207.9,277.2l-43.9-99.5c-6.4-16.2-23.4-26.3-41.3-23.5c-20,3.1-34.1,21.4-32.1,41.3v0.1
			c0.1,0.7,0.2,1.5,0.3,2.3c0.1,0.7,0.2,1.3,0.4,2.1l14.1,93.3L207.9,277.2L207.9,277.2z"/>
		<path id="Fill-26" class="st8" d="M275.4,197.8l18.4-7l4.9,12.8c0.9,3.6,3.6,18.5-13.7,25.1l-18.4,7l-4.9-12.8
			C260.6,219.3,257.9,204.4,275.4,197.8"/>
		
			<linearGradient id="Fill-28_00000157272764433808933260000008447189472433456768_" gradientUnits="userSpaceOnUse" x1="-0.5673" y1="-347.9038" x2="-1.1226" y2="-348.1189" gradientTransform="matrix(137.599 0 0 79.6678 308.3174 27947.3008)">
			<stop  offset="0" style="stop-color:#F26651"/>
			<stop  offset="1" style="stop-color:#D33F27"/>
		</linearGradient>
		<path id="Fill-28" style="fill:url(#Fill-28_00000157272764433808933260000008447189472433456768_);" d="M132.6,194.4
			c22.1,56.2,85.9,83.7,142.1,61.5l-13-33c-38,15-81.1-3.6-96-41.6L132.6,194.4L132.6,194.4z"/>
		<path id="Fill-30" class="st2" d="M137.8,128c0,5.1-4.1,9.2-9.2,9.2c-5.1,0-9.2-4.1-9.2-9.2H137.8z"/>
		
			<linearGradient id="Fill-32_00000168089747983192056680000004869751353539064730_" gradientUnits="userSpaceOnUse" x1="-2.2577" y1="-351.4717" x2="-1.5572" y2="-351.4458" gradientTransform="matrix(86.256 0 0 38.419 290.8255 13583.6465)">
			<stop  offset="0" style="stop-color:#D34833"/>
			<stop  offset="1" style="stop-color:#F26651"/>
		</linearGradient>
		<path id="Fill-32" style="fill:url(#Fill-32_00000168089747983192056680000004869751353539064730_);" d="M155.4,93.3v-2.7
			c0-16.4-13.3-29.7-29.7-29.7S95.9,74.2,95.9,90.6v9.9h89v-7.3h-29.5L155.4,93.3z"/>
		<path id="Fill-34" class="st12" d="M132.6,121.8h2.9c2,0,3.6-1.7,3.6-3.6v-6.7c0-2.3,1.7-4.1,3.7-4.3c1.1-0.1,2.3,0.3,3.2,1
			c0.8,0.8,1.3,1.9,1.3,3.1h3.1c0-2.1-0.8-4-2.4-5.4c-1.5-1.3-3.5-2.1-5.6-1.9c-3.6,0.3-6.5,3.6-6.5,7.4v6.7c0,0.3-0.2,0.5-0.5,0.5
			h-2.9L132.6,121.8L132.6,121.8z"/>
		<path id="Fill-36" class="st12" d="M109.5,111.3h3.1c0-2.3,1.9-4.1,4.1-4.1c2.3,0,4.1,1.9,4.1,4.1h3.1c0-4-3.2-7.2-7.2-7.2
			C112.9,104,109.5,107.2,109.5,111.3"/>
	</g>
	<g id="Group-4_1_" transform="translate(55 349)">
		<path id="Fill-23_1_" class="st13" d="M150.1-7.8c-15.5-20.1-39.4-33-66.5-33s-51,12.9-66.5,33H150.1z"/>
		<path id="Fill-25_1_" class="st13" d="M43.4-7.8C35.2-19.2,22.1-26.4,7.7-26.4c-14.6,0-27.5,7.2-35.7,18.6H43.4z"/>
		<path id="Fill-27_1_" class="st13" d="M176.3-7.8C168-19.2,155-26.4,140.6-26.4c-14.6,0-27.5,7.2-35.7,18.6H176.3z"/>
	</g>
	<g id="Group-4_2_" transform="translate(277 513)">
		<path id="Fill-23_2_" class="st14" d="M296,21.3c-27.5-34.5-70.1-56.8-118.1-56.8S87.1-13.2,59.6,21.3H296z"/>
		<path id="Fill-25_2_" class="st14" d="M106.2,21.3C91.4,1.9,68.5-10.6,42.7-10.6c-25.9,0-48.8,12.5-63.6,31.9H106.2z"/>
		<path id="Fill-27_2_" class="st14" d="M342.5,21.3c-14.8-19.4-37.7-31.9-63.6-31.9c-25.8,0-48.8,12.5-63.6,31.9
			C215.3,21.3,342.5,21.3,342.5,21.3z"/>
	</g>
</g>
</svg>
