<?xml version="1.0" encoding="utf-8"?>
<!-- Generator: Adobe Illustrator 27.5.0, SVG Export Plug-In . SVG Version: 6.00 Build 0)  -->
<svg version="1.1" id="Layer_1" xmlns="http://www.w3.org/2000/svg" xmlns:xlink="http://www.w3.org/1999/xlink" x="0px" y="0px"
	 viewBox="0 0 200 120" style="enable-background:new 0 0 200 120;" xml:space="preserve">
<style type="text/css">
	.st0{fill:#FF5F00;}
	.st1{fill:#EB001B;}
	.st2{fill:#F79E1B;}
	.st3{fill:#FFFFFF;}
</style>
<g id="Square">
	<g id="Large" transform="translate(-32.000000, -404.000000)">
		<g id="large_x2F_mastercard" transform="translate(32.000000, 404.000000)">
			<g id="Logo" transform="translate(52.000000, 20.000000)">
				<g id="mastercard">
					<rect id="Rectangle-path" x="36.4" y="6.8" class="st0" width="27" height="50"/>
					<path id="Shape" class="st1" d="M38.2,31.8c0-10.1,4.6-19.2,11.7-25C44.7,2.6,38.1,0,30.9,0C13.8,0,0,14.2,0,31.8
						s13.8,31.8,30.9,31.8c7.2,0,13.8-2.6,19-6.8C42.8,51,38.2,41.9,38.2,31.8z"/>
					<path id="Shape_00000104692802893396187240000004588706081980900788_" class="st2" d="M99.9,31.8c0,17.6-13.8,31.8-30.9,31.8
						c-7.2,0-13.8-2.6-19-6.8c7.2-5.8,11.7-14.8,11.7-25S57.1,12.6,50,6.8C55.2,2.6,61.8,0,69,0C86.1,0,99.9,14.3,99.9,31.8z"/>
				</g>
				<path id="Shape_00000178184411345195655400000010176626967832050088_" class="st3" d="M14.6,83.8v-5.3c0-2-1.3-3.4-3.6-3.4
					c-1.1,0-2.4,0.4-3.2,1.5c-0.7-1-1.6-1.5-3-1.5c-1,0-1.9,0.3-2.7,1.2v-1.1H0v8.5h2v-4.7c0-1.5,0.9-2.2,2.2-2.2s2,0.8,2,2.2v4.7h2
					v-4.7c0-1.5,1-2.2,2.2-2.2c1.3,0,2,0.8,2,2.2v4.7H14.6L14.6,83.8z M44.2,75.4H41v-2.6h-2v2.6h-1.8V77H39v3.9
					c0,1.9,0.9,3.1,3.1,3.1c0.9,0,1.8-0.3,2.5-0.6L44,81.8c-0.6,0.4-1.2,0.4-1.7,0.4c-1,0-1.3-0.5-1.3-1.4V77h3.2V75.4L44.2,75.4z
					 M61.1,75.2c-1.1,0-1.9,0.5-2.4,1.2v-1.1h-2v8.5h2v-4.8c0-1.4,0.7-2.2,1.9-2.2c0.4,0,0.9,0.1,1.2,0.2l0.6-1.8
					C62.1,75.2,61.5,75.2,61.1,75.2L61.1,75.2L61.1,75.2z M35.5,76.1c-1-0.6-2.3-0.9-3.7-0.9c-2.3,0-3.8,1.1-3.8,2.7
					c0,1.4,1.1,2.2,3.1,2.5l1,0.1c1,0.2,1.6,0.4,1.6,0.9c0,0.6-0.8,1.1-2.1,1.1c-1.3,0-2.4-0.4-3-0.9l-1,1.4c1,0.7,2.5,1.1,3.9,1.1
					c2.7,0,4.2-1.1,4.2-2.7c0-1.5-1.2-2.3-3.1-2.6l-1-0.1c-0.9-0.1-1.5-0.3-1.5-0.8c0-0.6,0.7-1,1.7-1c1.1,0,2.3,0.4,2.9,0.7
					L35.5,76.1L35.5,76.1z M88.7,75.2c-1.1,0-1.9,0.5-2.4,1.2v-1.1h-2v8.5h2v-4.8c0-1.4,0.7-2.2,1.9-2.2c0.4,0,0.9,0.1,1.2,0.2
					l0.6-1.8C89.6,75.2,89,75.2,88.7,75.2L88.7,75.2L88.7,75.2z M63.1,79.6c0,2.6,1.9,4.4,4.9,4.4c1.3,0,2.3-0.3,3.2-1l-1-1.5
					c-0.8,0.5-1.5,0.8-2.4,0.8c-1.6,0-2.8-1.1-2.8-2.7c0-1.6,1.1-2.6,2.8-2.7c0.9,0,1.6,0.3,2.4,0.8l1-1.5c-1-0.7-1.9-1-3.2-1
					C65,75.2,63.1,77,63.1,79.6L63.1,79.6L63.1,79.6z M81.6,79.6v-4.2h-2v1.1c-0.7-0.8-1.6-1.2-2.9-1.2c-2.6,0-4.6,1.9-4.6,4.4
					s2,4.4,4.6,4.4c1.3,0,2.3-0.4,2.9-1.2v1.1h2V79.6z M74.3,79.6c0-1.5,1-2.7,2.8-2.7c1.6,0,2.8,1.1,2.8,2.7c0,1.5-1.1,2.7-2.8,2.7
					C75.3,82.2,74.3,81.1,74.3,79.6L74.3,79.6z M50.4,75.2c-2.7,0-4.6,1.8-4.6,4.4s1.9,4.4,4.7,4.4c1.3,0,2.7-0.4,3.7-1.1l-1-1.3
					c-0.8,0.5-1.7,0.9-2.7,0.9c-1.2,0-2.5-0.5-2.8-2h6.8v-0.7C54.7,76.9,53,75.2,50.4,75.2L50.4,75.2L50.4,75.2z M50.4,76.8
					c1.2,0,2.1,0.7,2.3,2h-4.8C48.1,77.6,49,76.8,50.4,76.8L50.4,76.8z M100,79.6V72h-2v4.4c-0.7-0.8-1.6-1.2-2.9-1.2
					c-2.6,0-4.6,1.9-4.6,4.4s2,4.4,4.6,4.4c1.3,0,2.3-0.4,2.9-1.2v1.1h2V79.6z M92.7,79.6c0-1.5,1-2.7,2.8-2.7
					c1.6,0,2.8,1.1,2.8,2.7c0,1.5-1.1,2.7-2.8,2.7C93.7,82.2,92.7,81.1,92.7,79.6L92.7,79.6z M25.8,79.6v-4.2h-2v1.1
					c-0.7-0.8-1.6-1.2-2.9-1.2c-2.6,0-4.6,1.9-4.6,4.4s2,4.4,4.6,4.4c1.3,0,2.3-0.4,2.9-1.2v1.1h2V79.6z M18.4,79.6
					c0-1.5,1-2.7,2.8-2.7c1.6,0,2.8,1.1,2.8,2.7c0,1.5-1.1,2.7-2.8,2.7C19.4,82.2,18.4,81.1,18.4,79.6z"/>
			</g>
		</g>
	</g>
</g>
</svg>
