<?xml version="1.0" encoding="utf-8"?>
<!-- Generator: Adobe Illustrator 27.5.0, SVG Export Plug-In . SVG Version: 6.00 Build 0)  -->
<svg version="1.1" id="Layer_1" xmlns="http://www.w3.org/2000/svg" xmlns:xlink="http://www.w3.org/1999/xlink" x="0px" y="0px"
	 viewBox="0 0 200 120" style="enable-background:new 0 0 200 120;" xml:space="preserve">
<style type="text/css">
	.st0{fill:#FFFFFF;}
</style>
<g>
	<path class="st0" d="M54.4,51.3h5.7V27.1h-9.3l-6.7,16.4l-7.3-16.4h-9.1V50l-9.5-22.9H9.9l-10,24.2H6l2.2-5.4h11.7l2.2,5.4h11.4
		v-19l8.1,19h4.7l8.1-19V51.3z M10,40.8l3.8-9.7l3.8,9.7H10z"/>
	<path class="st0" d="M98.8,68.8H80.9l-7.1,7.9l-6.9-7.9H44.4V93h22.2l7.2-8l6.9,8h10.9v-8.1h7c4.9,0,9.8-1.4,9.8-8.1
		C108.3,70,103.3,68.8,98.8,68.8z M63.7,87.9H50v-4.8h12.3v-4.9H50v-4.4h14l6.1,7.1L63.7,87.9z M86,90.8l-8.6-9.9l8.6-9.6V90.8z
		 M98.8,79.9h-7.2v-6.2h7.3c2,0,3.4,0.9,3.4,3C102.3,78.8,100.9,79.9,98.8,79.9z"/>
	<path class="st0" d="M132.3,51.3h6.6l2.1-5.4h11.6l2.2,5.4h11.4V33.1l10.6,18.2h7.9V27.1H179V44l-9.8-16.9h-8.5V50l-9.5-22.9h-8.4
		l-7.9,19.1h-2.6c-1.5,0-3-0.3-3.9-1.2c-1-1.2-1.5-3.1-1.5-5.7c0-2.5,0.7-4.5,1.6-5.5c1.1-1.1,2.3-1.4,4.3-1.4h5.3v-5.2h-5.4
		c-3.9,0-6.7,0.9-8.5,2.8c-2.4,2.6-3,5.9-3,9.5c0,4.4,1,7.2,3,9.2C126.1,50.7,129.5,51.3,132.3,51.3z M146.8,31.2l3.9,9.7H143
		L146.8,31.2z"/>
	<path class="st0" d="M92.6,42.5h6c2,0,3.3,0.2,4.1,1c1,1.2,0.9,3.3,0.9,4.7v3.1h5.6v-4.8c0-2.2-0.1-3.2-0.9-4.4
		c-0.5-0.7-1.5-1.6-2.8-2c1.5-0.6,3.9-2.6,3.9-6.5c0-2.7-1.1-4.3-2.8-5.4c-1.8-1.1-3.9-1.2-6.8-1.2H87v24.2h5.6
		C92.6,51.2,92.6,42.5,92.6,42.5z M92.6,32.1h6.9c1,0,2,0,2.7,0.4s1.2,1.1,1.2,2.1c0,1.1-0.4,1.9-1.2,2.3c-0.8,0.5-1.7,0.5-2.8,0.5
		h-6.8C92.6,37.4,92.6,32.1,92.6,32.1z"/>
	<rect x="112.7" y="27.1" class="st0" width="5.7" height="24.2"/>
	<polygon class="st0" points="83.1,46.3 70,46.3 70,41.4 82.8,41.4 82.8,36.5 70,36.5 70,32.1 83.1,32.1 83.1,27.1 64.4,27.1 
		64.4,51.3 83.1,51.3 	"/>
	<path class="st0" d="M170.2,78.3l-3-0.1c-1,0-1.6-0.1-2.2-0.3c-0.7-0.3-1.2-0.9-1.2-1.8c0-0.8,0.2-1.4,0.8-1.7
		c0.6-0.4,1.2-0.4,2.2-0.4h10.3v-5.2h-11.2c-5.9,0-8,3.7-8,7.2c0,7.7,6.6,7.3,11.8,7.5c1,0,1.6,0.2,2,0.5s0.7,0.9,0.7,1.6
		c0,0.7-0.3,1.2-0.7,1.6c-0.5,0.5-1.2,0.6-2.3,0.6h-10.9V93h10.9c5.6,0,8.8-2.4,8.8-7.6c0-2.5-0.6-4-1.7-5.1
		C175.4,78.9,173.3,78.3,170.2,78.3z"/>
	<path class="st0" d="M192.1,78.3l-3-0.1c-1,0-1.6-0.1-2.2-0.3c-0.7-0.3-1.2-0.9-1.2-1.8c0-0.8,0.2-1.4,0.8-1.7
		c0.6-0.4,1.2-0.4,2.2-0.4H199v-5.2h-11.2c-5.9,0-8,3.7-8,7.2c0,7.7,6.6,7.3,11.8,7.5c1,0,1.6,0.2,2,0.5s0.7,0.9,0.7,1.6
		c0,0.7-0.3,1.2-0.7,1.6c-0.5,0.5-1.2,0.6-2.3,0.6h-10.9V93h10.9c5.6,0,8.8-2.4,8.8-7.6c0-2.5-0.6-4-1.7-5.1
		C197.3,78.9,195.2,78.3,192.1,78.3z"/>
	<polygon class="st0" points="136.6,93 155.2,93 155.2,88 142.1,87.9 142.1,83.1 154.9,83.1 154.9,78.2 142.1,78.2 142.1,73.8 
		155.2,73.8 155.2,68.8 136.6,68.8 	"/>
	<path class="st0" d="M133.5,75.3c0-2.8-1.1-4.3-2.9-5.4c-1.8-1-3.9-1.1-6.7-1.1H111V93h5.6v-8.9h6c2,0,3.3,0.2,4.1,1.1
		c1,1.1,0.9,3.3,0.9,4.7v3h5.6v-4.8c0-2.1-0.1-3.2-0.9-4.4c-0.5-0.7-1.5-1.6-2.7-2C131,81.1,133.5,79.1,133.5,75.3z M126.1,78.7
		c-0.7,0.5-1.7,0.5-2.8,0.5h-6.8v-5.4h6.9c1,0,2,0,2.7,0.4s1.2,1.1,1.2,2.2C127.3,77.4,126.8,78.3,126.1,78.7z"/>
</g>
</svg>
