<?xml version="1.0" encoding="utf-8"?>
<!-- Generator: Adobe Illustrator 27.5.0, SVG Export Plug-In . SVG Version: 6.00 Build 0)  -->
<svg version="1.1" id="Layer_1" xmlns="http://www.w3.org/2000/svg" xmlns:xlink="http://www.w3.org/1999/xlink" x="0px" y="0px"
	 viewBox="0 0 200 120" style="enable-background:new 0 0 200 120;" xml:space="preserve">
<style type="text/css">
	.st0{fill:#FFFFFF;}
	.st1{fill:#F2AD0F;}
</style>
<path class="st0" d="M111.5,51.3c0-1.4,1.4-2.9,4.5-3.2c1.5-0.2,5.7-0.3,10.5,1.7l1.9-8.2c-2.6-0.9-5.9-1.7-10-1.7
	c-10.5,0-18,5.3-18,12.8c-0.1,5.6,5.3,8.7,9.3,10.5c4.2,1.9,5.5,3.1,5.5,4.8c0,2.6-3.3,3.7-6.4,3.8c-5.4,0.1-8.5-1.4-11-2.4L96,77.8
	c2.5,1.1,7.1,2,11.9,2.1c11.2,0,18.5-5.2,18.6-13.2C126.5,56.4,111.4,55.8,111.5,51.3z"/>
<polygon class="st0" points="86.8,40.5 78,79.2 88.7,79.2 97.5,40.5 "/>
<path class="st0" d="M155.5,40.5h-9.1c-2,0-3.8,1.1-4.5,2.8l-16,35.9h11.2l2.2-5.8H153l1.3,5.8h9.9L155.5,40.5z M142.4,65.5L148,51
	l3.2,14.5H142.4z"/>
<path class="st0" d="M71,40.6L71,40.6L59.9,66.9L58.7,61l-1-5.2L44.5,44.9c-0.1,0-0.5,1-0.5,1c0.6,0.6,0.9,1.3,1.2,2.5l8.5,30.9H65
	l17.3-38.7C82.3,40.6,71,40.6,71,40.6z"/>
<path class="st1" d="M58.7,60.9l-3.3-16.4c-0.5-2.5-2.6-3.9-4.9-3.9H32.4l-0.3,1.1c3.7,0.8,8,2,10.5,3.3c0.6,0.3,1,0.6,1.3,0.9
	C48.2,47.5,54.8,52.5,58.7,60.9z"/>
</svg>
