<?xml version="1.0" encoding="utf-8"?>
<!-- Generator: Adobe Illustrator 27.4.1, SVG Export Plug-In . SVG Version: 6.00 Build 0)  -->
<svg version="1.1" id="Layer_1" xmlns="http://www.w3.org/2000/svg" xmlns:xlink="http://www.w3.org/1999/xlink" x="0px" y="0px"
	 viewBox="0 0 910 630" style="enable-background:new 0 0 910 630;" xml:space="preserve">
<style type="text/css">
	.st0{fill:#EC6553;}
	.st1{clip-path:url(#SVGID_00000016071503672065446320000008829342262627064738_);fill:#BF9E9E;}
	.st2{clip-path:url(#SVGID_00000105412300641798927620000001464761487451886983_);fill:#FFFFFF;}
	.st3{clip-path:url(#SVGID_00000127013386269393851470000013990156185876526500_);fill:#141511;}
	.st4{clip-path:url(#SVGID_00000098183199939271539110000017521312729750142386_);fill:#B1A19D;}
	.st5{clip-path:url(#SVGID_00000121960638924763278100000012684668457996928643_);fill:#DDDCDC;}
	.st6{clip-path:url(#SVGID_00000091717128628983933770000009408931100441200311_);fill:#DDDCDC;}
	.st7{clip-path:url(#SVGID_00000090998384268448905310000017566806730513041334_);fill:#DDDCDC;}
	.st8{clip-path:url(#SVGID_00000077302663318462500110000016215530442031380915_);fill:#DDDCDC;}
	.st9{clip-path:url(#SVGID_00000079448388334192233140000017524540488785382834_);fill:#DDDCDC;}
	.st10{clip-path:url(#SVGID_00000047772709046422667600000008803752274549878945_);fill:#DDDCDC;}
	.st11{clip-path:url(#SVGID_00000111153501382159616920000008685848869560984210_);fill:#E8E8E6;}
	.st12{clip-path:url(#SVGID_00000179625999849724697960000013636194253756015276_);fill:#141511;}
	.st13{clip-path:url(#SVGID_00000045591295509705769060000018048213072342075297_);fill:#141511;}
	.st14{clip-path:url(#SVGID_00000141447667216660895860000004269562354108801421_);fill:#DDDCDC;}
	.st15{clip-path:url(#SVGID_00000013184889523761627660000001082480578939633589_);fill:#EC6553;}
	.st16{clip-path:url(#SVGID_00000159442180424990369990000017546448213866647214_);fill:#B1A19D;}
	.st17{clip-path:url(#SVGID_00000085247197839025864090000004611939728121742001_);fill:#B1A19D;}
	.st18{clip-path:url(#SVGID_00000039123998976884260480000015730840388944769169_);fill:#B1A19D;}
	.st19{clip-path:url(#SVGID_00000129196129872990869000000014527840575531164555_);fill:#B1A19D;}
	.st20{clip-path:url(#SVGID_00000037685042078009962910000004641009822197381531_);fill:#BF9E9E;}
	.st21{clip-path:url(#SVGID_00000018919711719155229560000006827049332752488071_);fill:#DDDCDC;}
</style>
<g>
	<g>
		<path class="st0" d="M455.2,67.5C417,30.5,364.6,8.9,308.5,8.9c-115.3,0-209,91.9-209,204.1c0,0.6,0,1.2,0,1.8
			c-1.2,40.2,13.6,218.9,331.8,400.2c2.5,1.2,11.1,6.8,24.1,6.8c11.1,0,20.9-5,24.1-7.4c142.4-81.3,241.1-171.3,293.4-268.2
			c38.3-70.3,38.3-121.5,37.6-135C809.7,98.9,716,8.3,601.4,8.3C545.9,8.9,494,30.5,455.2,67.5"/>
	</g>
	<g>
		<g>
			<g>
				<defs>
					<path id="SVGID_1_" d="M601.9,8.9c-56.1,0-108.5,21.6-146.7,59.2C417,31,364.6,8.9,308.5,8.9c-115.3,0-209,91.9-209,204.1
						c0,0.6,0,1.2,0,1.8c-1.2,40.2,13.6,218.9,331.8,400.2c2.5,1.2,11.1,6.8,24.1,6.8c11.1,0,20.9-5,24.1-7.4
						c142.4-81.3,241.1-171.3,293.4-268.2c33.3-61.7,37.6-108.5,37.6-128.3v-1.2c0-2.5,0-4.3,0-5.5C810.4,99.6,716.7,8.9,601.9,8.9z
						"/>
				</defs>
				<clipPath id="SVGID_00000005953974329454457300000008715845773963437206_">
					<use xlink:href="#SVGID_1_"  style="overflow:visible;"/>
				</clipPath>
				<path style="clip-path:url(#SVGID_00000005953974329454457300000008715845773963437206_);fill:#BF9E9E;" d="M299.3,415.8
					l22.2-32.1v-59.2c0,0,36.3-45.7,109.7-136.2l24.1,204.1l-42.5,108.5L299.3,415.8z"/>
			</g>
		</g>
		<g>
			<g>
				<defs>
					<path id="SVGID_00000124845551892185663600000006503559774531380649_" d="M601.9,8.9c-56.1,0-108.5,21.6-146.7,59.2
						C417,31,364.6,8.9,308.5,8.9c-115.3,0-209,91.9-209,204.1c0,0.6,0,1.2,0,1.8c-1.2,40.2,13.6,218.9,331.8,400.2
						c2.5,1.2,11.1,6.8,24.1,6.8c11.1,0,20.9-5,24.1-7.4c142.4-81.3,241.1-171.3,293.4-268.2c33.3-61.7,37.6-108.5,37.6-128.3v-1.2
						c0-2.5,0-4.3,0-5.5C810.4,99.6,716.7,8.9,601.9,8.9z"/>
				</defs>
				<clipPath id="SVGID_00000178916758428016535700000013965298198991479984_">
					<use xlink:href="#SVGID_00000124845551892185663600000006503559774531380649_"  style="overflow:visible;"/>
				</clipPath>
				<path style="clip-path:url(#SVGID_00000178916758428016535700000013965298198991479984_);fill:#FFFFFF;" d="M402.8,127.2h104.9
					c11.7,0,20.9,9.2,20.9,20.9v256.5c0,11.7-9.2,20.9-20.9,20.9H402.8c-11.7,0-20.9-9.2-20.9-20.9V148.2
					C382.6,136.6,391.8,127.2,402.8,127.2"/>
			</g>
		</g>
		<g>
			<g>
				<defs>
					<path id="SVGID_00000105398511390920816020000013242631956647894926_" d="M601.9,8.9c-56.1,0-108.5,21.6-146.7,59.2
						C417,31,364.6,8.9,308.5,8.9c-115.3,0-209,91.9-209,204.1c0,0.6,0,1.2,0,1.8c-1.2,40.2,13.6,218.9,331.8,400.2
						c2.5,1.2,11.1,6.8,24.1,6.8c11.1,0,20.9-5,24.1-7.4c142.4-81.3,241.1-171.3,293.4-268.2c33.3-61.7,37.6-108.5,37.6-128.3v-1.2
						c0-2.5,0-4.3,0-5.5C810.4,99.6,716.7,8.9,601.9,8.9z"/>
				</defs>
				<clipPath id="SVGID_00000148642365671181234100000002699250510129120181_">
					<use xlink:href="#SVGID_00000105398511390920816020000013242631956647894926_"  style="overflow:visible;"/>
				</clipPath>
				<path style="clip-path:url(#SVGID_00000148642365671181234100000002699250510129120181_);fill:#141511;" d="M172.9,545.9
					l115.9-160.3c147.4,106.7,219.5,160.3,217,160.3c-2.5,0-57.9,95.5-191.1,95.5C277.1,641.5,221.6,545.9,172.9,545.9"/>
			</g>
		</g>
		<g>
			<g>
				<defs>
					<path id="SVGID_00000079463469429498850580000003438207344196686522_" d="M601.9,8.9c-56.1,0-108.5,21.6-146.7,59.2
						C417,31,364.6,8.9,308.5,8.9c-115.3,0-209,91.9-209,204.1c0,0.6,0,1.2,0,1.8c-1.2,40.2,13.6,218.9,331.8,400.2
						c2.5,1.2,11.1,6.8,24.1,6.8c11.1,0,20.9-5,24.1-7.4c142.4-81.3,241.1-171.3,293.4-268.2c33.3-61.7,37.6-108.5,37.6-128.3v-1.2
						c0-2.5,0-4.3,0-5.5C810.4,99.6,716.7,8.9,601.9,8.9z"/>
				</defs>
				<clipPath id="SVGID_00000154387294331696145230000011634470129376993197_">
					<use xlink:href="#SVGID_00000079463469429498850580000003438207344196686522_"  style="overflow:visible;"/>
				</clipPath>
				<path style="clip-path:url(#SVGID_00000154387294331696145230000011634470129376993197_);fill:#B1A19D;" d="M345.5,384.3
					c-11.7,0-22.2-9.2-22.8-21.6c0,0-1.8-28.4-2.5-49.3c-0.6-17.2,5.5-35.8,11.1-51.8c2.5-7.4,5-13.6,5.5-18.5
					c1.8-10.5,0.6-24.6,0-29.6c-1.8-12.4,6.8-24.1,19.1-25.9c12.4-1.8,24.1,6.8,25.9,19.1c0.6,2.5,3.7,25.3,0,45
					c-1.2,7.4-4.3,15.4-6.8,24.1c-3.7,11.7-9.2,26.6-8.7,35.8c0.6,20.4,2.5,48,2.5,48c0.6,12.4-8.7,23.4-21.6,24.1
					C346.1,384.3,345.5,384.3,345.5,384.3"/>
			</g>
		</g>
		<g>
			<g>
				<defs>
					<path id="SVGID_00000179644071917158974420000017025653289060830380_" d="M601.9,8.9c-56.1,0-108.5,21.6-146.7,59.2
						C417,31,364.6,8.9,308.5,8.9c-115.3,0-209,91.9-209,204.1c0,0.6,0,1.2,0,1.8c-1.2,40.2,13.6,218.9,331.8,400.2
						c2.5,1.2,11.1,6.8,24.1,6.8c11.1,0,20.9-5,24.1-7.4c142.4-81.3,241.1-171.3,293.4-268.2c33.3-61.7,37.6-108.5,37.6-128.3v-1.2
						c0-2.5,0-4.3,0-5.5C810.4,99.6,716.7,8.9,601.9,8.9z"/>
				</defs>
				<clipPath id="SVGID_00000005971702800254144780000008110229825970021507_">
					<use xlink:href="#SVGID_00000179644071917158974420000017025653289060830380_"  style="overflow:visible;"/>
				</clipPath>
				
					<rect x="385.6" y="188.3" style="clip-path:url(#SVGID_00000005971702800254144780000008110229825970021507_);fill:#DDDCDC;" width="136.9" height="99.9"/>
			</g>
		</g>
		<g>
			<g>
				<defs>
					<path id="SVGID_00000033333314888636124750000012050370533837103503_" d="M601.9,8.9c-56.1,0-108.5,21.6-146.7,59.2
						C417,31,364.6,8.9,308.5,8.9c-115.3,0-209,91.9-209,204.1c0,0.6,0,1.2,0,1.8c-1.2,40.2,13.6,218.9,331.8,400.2
						c2.5,1.2,11.1,6.8,24.1,6.8c11.1,0,20.9-5,24.1-7.4c142.4-81.3,241.1-171.3,293.4-268.2c33.3-61.7,37.6-108.5,37.6-128.3v-1.2
						c0-2.5,0-4.3,0-5.5C810.4,99.6,716.7,8.9,601.9,8.9z"/>
				</defs>
				<clipPath id="SVGID_00000057855622334129411230000007432652867448122024_">
					<use xlink:href="#SVGID_00000033333314888636124750000012050370533837103503_"  style="overflow:visible;"/>
				</clipPath>
				
					<rect x="395.5" y="155.6" style="clip-path:url(#SVGID_00000057855622334129411230000007432652867448122024_);fill:#DDDCDC;" width="99.9" height="12.9"/>
			</g>
		</g>
		<g>
			<g>
				<defs>
					<path id="SVGID_00000034047840703029639590000011979086793953980567_" d="M601.9,8.9c-56.1,0-108.5,21.6-146.7,59.2
						C417,31,364.6,8.9,308.5,8.9c-115.3,0-209,91.9-209,204.1c0,0.6,0,1.2,0,1.8c-1.2,40.2,13.6,218.9,331.8,400.2
						c2.5,1.2,11.1,6.8,24.1,6.8c11.1,0,20.9-5,24.1-7.4c142.4-81.3,241.1-171.3,293.4-268.2c33.3-61.7,37.6-108.5,37.6-128.3v-1.2
						c0-2.5,0-4.3,0-5.5C810.4,99.6,716.7,8.9,601.9,8.9z"/>
				</defs>
				<clipPath id="SVGID_00000078022853880182833460000013351151913864232836_">
					<use xlink:href="#SVGID_00000034047840703029639590000011979086793953980567_"  style="overflow:visible;"/>
				</clipPath>
				
					<rect x="395.5" y="171" style="clip-path:url(#SVGID_00000078022853880182833460000013351151913864232836_);fill:#DDDCDC;" width="64.7" height="12.9"/>
			</g>
		</g>
		<g>
			<g>
				<defs>
					<path id="SVGID_00000034810350470997412220000002974582624634898873_" d="M601.9,8.9c-56.1,0-108.5,21.6-146.7,59.2
						C417,31,364.6,8.9,308.5,8.9c-115.3,0-209,91.9-209,204.1c0,0.6,0,1.2,0,1.8c-1.2,40.2,13.6,218.9,331.8,400.2
						c2.5,1.2,11.1,6.8,24.1,6.8c11.1,0,20.9-5,24.1-7.4c142.4-81.3,241.1-171.3,293.4-268.2c33.3-61.7,37.6-108.5,37.6-128.3v-1.2
						c0-2.5,0-4.3,0-5.5C810.4,99.6,716.7,8.9,601.9,8.9z"/>
				</defs>
				<clipPath id="SVGID_00000128460223439213421740000008293215253336988086_">
					<use xlink:href="#SVGID_00000034810350470997412220000002974582624634898873_"  style="overflow:visible;"/>
				</clipPath>
				<path style="clip-path:url(#SVGID_00000128460223439213421740000008293215253336988086_);fill:#DDDCDC;" d="M444.2,309.7
					c0,5.5-4.3,9.9-9.9,9.9c-5.5,0-9.9-4.3-9.9-9.9s4.3-9.9,9.9-9.9C439.8,300.5,444.2,304.9,444.2,309.7"/>
			</g>
		</g>
		<g>
			<g>
				<defs>
					<path id="SVGID_00000005951676866452482450000009853692626801452214_" d="M601.9,8.9c-56.1,0-108.5,21.6-146.7,59.2
						C417,31,364.6,8.9,308.5,8.9c-115.3,0-209,91.9-209,204.1c0,0.6,0,1.2,0,1.8c-1.2,40.2,13.6,218.9,331.8,400.2
						c2.5,1.2,11.1,6.8,24.1,6.8c11.1,0,20.9-5,24.1-7.4c142.4-81.3,241.1-171.3,293.4-268.2c33.3-61.7,37.6-108.5,37.6-128.3v-1.2
						c0-2.5,0-4.3,0-5.5C810.4,99.6,716.7,8.9,601.9,8.9z"/>
				</defs>
				<clipPath id="SVGID_00000135666241125588388700000007214428493671566271_">
					<use xlink:href="#SVGID_00000005951676866452482450000009853692626801452214_"  style="overflow:visible;"/>
				</clipPath>
				<path style="clip-path:url(#SVGID_00000135666241125588388700000007214428493671566271_);fill:#DDDCDC;" d="M472.6,309.7
					c0,5.5-4.3,9.9-9.9,9.9c-5.5,0-9.9-4.3-9.9-9.9s4.3-9.9,9.9-9.9C468.2,300.5,472.6,304.9,472.6,309.7"/>
			</g>
		</g>
		<g>
			<g>
				<defs>
					<path id="SVGID_00000018932313155611800750000006526074909768785591_" d="M601.9,8.9c-56.1,0-108.5,21.6-146.7,59.2
						C417,31,364.6,8.9,308.5,8.9c-115.3,0-209,91.9-209,204.1c0,0.6,0,1.2,0,1.8c-1.2,40.2,13.6,218.9,331.8,400.2
						c2.5,1.2,11.1,6.8,24.1,6.8c11.1,0,20.9-5,24.1-7.4c142.4-81.3,241.1-171.3,293.4-268.2c33.3-61.7,37.6-108.5,37.6-128.3v-1.2
						c0-2.5,0-4.3,0-5.5C810.4,99.6,716.7,8.9,601.9,8.9z"/>
				</defs>
				<clipPath id="SVGID_00000049222357941078956690000018231950578965411502_">
					<use xlink:href="#SVGID_00000018932313155611800750000006526074909768785591_"  style="overflow:visible;"/>
				</clipPath>
				<path style="clip-path:url(#SVGID_00000049222357941078956690000018231950578965411502_);fill:#DDDCDC;" d="M500.9,309.7
					c0,5.5-4.3,9.9-9.9,9.9c-5.5,0-9.9-4.3-9.9-9.9s4.3-9.9,9.9-9.9C496.5,300.5,500.9,304.9,500.9,309.7"/>
			</g>
		</g>
		<g>
			<g>
				<defs>
					<path id="SVGID_00000124867676690190618370000016931780851827999901_" d="M601.9,8.9c-56.1,0-108.5,21.6-146.7,59.2
						C417,31,364.6,8.9,308.5,8.9c-115.3,0-209,91.9-209,204.1c0,0.6,0,1.2,0,1.8c-1.2,40.2,13.6,218.9,331.8,400.2
						c2.5,1.2,11.1,6.8,24.1,6.8c11.1,0,20.9-5,24.1-7.4c142.4-81.3,241.1-171.3,293.4-268.2c33.3-61.7,37.6-108.5,37.6-128.3v-1.2
						c0-2.5,0-4.3,0-5.5C810.4,99.6,716.7,8.9,601.9,8.9z"/>
				</defs>
				<clipPath id="SVGID_00000130628393974392169950000010820797155869427345_">
					<use xlink:href="#SVGID_00000124867676690190618370000016931780851827999901_"  style="overflow:visible;"/>
				</clipPath>
				<path style="clip-path:url(#SVGID_00000130628393974392169950000010820797155869427345_);fill:#E8E8E6;" d="M530.5,309.7
					c0,5.5-4.3,9.9-9.9,9.9c-5.5,0-9.9-4.3-9.9-9.9s4.3-9.9,9.9-9.9C526.1,300.5,530.5,304.9,530.5,309.7"/>
			</g>
		</g>
		<g>
			<g>
				<defs>
					<path id="SVGID_00000019654620355397187860000011655737641570040451_" d="M601.9,8.9c-56.1,0-108.5,21.6-146.7,59.2
						C417,31,364.6,8.9,308.5,8.9c-115.3,0-209,91.9-209,204.1c0,0.6,0,1.2,0,1.8c-1.2,40.2,13.6,218.9,331.8,400.2
						c2.5,1.2,11.1,6.8,24.1,6.8c11.1,0,20.9-5,24.1-7.4c142.4-81.3,241.1-171.3,293.4-268.2c33.3-61.7,37.6-108.5,37.6-128.3v-1.2
						c0-2.5,0-4.3,0-5.5C810.4,99.6,716.7,8.9,601.9,8.9z"/>
				</defs>
				<clipPath id="SVGID_00000180352627741629213180000004902688807779359111_">
					<use xlink:href="#SVGID_00000019654620355397187860000011655737641570040451_"  style="overflow:visible;"/>
				</clipPath>
				<path style="clip-path:url(#SVGID_00000180352627741629213180000004902688807779359111_);fill:#141511;" d="M508.9,133.4
					c6.8,0,12.9,5.5,12.9,12.9v262c0,6.8-5.5,12.9-12.9,12.9H401.7c-6.8,0-12.9-5.5-12.9-12.9v-262c0-6.8,5.5-12.9,12.9-12.9H508.9z
					 M508.9,124.2H401.7c-12.4,0-22.2,9.9-22.2,21.6v262c0,12.4,9.9,21.6,22.2,21.6h107.9c12.4,0,21.6-9.9,21.6-21.6v-262
					C531.1,134.1,521.3,124.2,508.9,124.2"/>
			</g>
		</g>
		<g>
			<g>
				<defs>
					<path id="SVGID_00000071531704197464659760000016869605478177918087_" d="M601.9,8.9c-56.1,0-108.5,21.6-146.7,59.2
						C417,31,364.6,8.9,308.5,8.9c-115.3,0-209,91.9-209,204.1c0,0.6,0,1.2,0,1.8c-1.2,40.2,13.6,218.9,331.8,400.2
						c2.5,1.2,11.1,6.8,24.1,6.8c11.1,0,20.9-5,24.1-7.4c142.4-81.3,241.1-171.3,293.4-268.2c33.3-61.7,37.6-108.5,37.6-128.3v-1.2
						c0-2.5,0-4.3,0-5.5C810.4,99.6,716.7,8.9,601.9,8.9z"/>
				</defs>
				<clipPath id="SVGID_00000054237458711940667770000004610004259521978523_">
					<use xlink:href="#SVGID_00000071531704197464659760000016869605478177918087_"  style="overflow:visible;"/>
				</clipPath>
				<path style="clip-path:url(#SVGID_00000054237458711940667770000004610004259521978523_);fill:#141511;" d="M484.8,144.6H425
					c-4.3,0-8-3.7-8-8v-3c0-4.3,3.7-8,8-8h59.9c4.3,0,8,3.7,8,8v3C492.9,141.4,489.2,144.6,484.8,144.6"/>
			</g>
		</g>
		<g>
			<g>
				<defs>
					<path id="SVGID_00000022543169941795566180000018190194453701746105_" d="M601.9,8.9c-56.1,0-108.5,21.6-146.7,59.2
						C417,31,364.6,8.9,308.5,8.9c-115.3,0-209,91.9-209,204.1c0,0.6,0,1.2,0,1.8c-1.2,40.2,13.6,218.9,331.8,400.2
						c2.5,1.2,11.1,6.8,24.1,6.8c11.1,0,20.9-5,24.1-7.4c142.4-81.3,241.1-171.3,293.4-268.2c33.3-61.7,37.6-108.5,37.6-128.3v-1.2
						c0-2.5,0-4.3,0-5.5C810.4,99.6,716.7,8.9,601.9,8.9z"/>
				</defs>
				<clipPath id="SVGID_00000145053386289644787420000014909117158335529149_">
					<use xlink:href="#SVGID_00000022543169941795566180000018190194453701746105_"  style="overflow:visible;"/>
				</clipPath>
				<path style="clip-path:url(#SVGID_00000145053386289644787420000014909117158335529149_);fill:#DDDCDC;" d="M398.5,356.6
					c-1.2,0-1.8-1.2-1.8-2.5v-21.6c0-1.2,0.6-2.5,1.8-2.5h113.4c1.2,0,1.8,1.2,1.8,2.5v21.6c0,1.2-0.6,2.5-1.8,2.5H398.5z"/>
			</g>
		</g>
		<g>
			<g>
				<defs>
					<path id="SVGID_00000048465607930766287600000017497935206115108772_" d="M601.9,8.9c-56.1,0-108.5,21.6-146.7,59.2
						C417,31,364.6,8.9,308.5,8.9c-115.3,0-209,91.9-209,204.1c0,0.6,0,1.2,0,1.8c-1.2,40.2,13.6,218.9,331.8,400.2
						c2.5,1.2,11.1,6.8,24.1,6.8c11.1,0,20.9-5,24.1-7.4c142.4-81.3,241.1-171.3,293.4-268.2c33.3-61.7,37.6-108.5,37.6-128.3v-1.2
						c0-2.5,0-4.3,0-5.5C810.4,99.6,716.7,8.9,601.9,8.9z"/>
				</defs>
				<clipPath id="SVGID_00000132783279143718318900000007026835871226742940_">
					<use xlink:href="#SVGID_00000048465607930766287600000017497935206115108772_"  style="overflow:visible;"/>
				</clipPath>
				<path style="clip-path:url(#SVGID_00000132783279143718318900000007026835871226742940_);fill:#EC6553;" d="M398.5,390.5
					c-1.2,0-1.8-1.2-1.8-2.5v-21.6c0-1.2,0.6-2.5,1.8-2.5h113.4c1.2,0,1.8,1.2,1.8,2.5V388c0,1.2-0.6,2.5-1.8,2.5H398.5z"/>
			</g>
		</g>
		<g>
			<g>
				<defs>
					<path id="SVGID_00000009583897785039143330000006312820125633916852_" d="M601.9,8.9c-56.1,0-108.5,21.6-146.7,59.2
						C417,31,364.6,8.9,308.5,8.9c-115.3,0-209,91.9-209,204.1c0,0.6,0,1.2,0,1.8c-1.2,40.2,13.6,218.9,331.8,400.2
						c2.5,1.2,11.1,6.8,24.1,6.8c11.1,0,20.9-5,24.1-7.4c142.4-81.3,241.1-171.3,293.4-268.2c33.3-61.7,37.6-108.5,37.6-128.3v-1.2
						c0-2.5,0-4.3,0-5.5C810.4,99.6,716.7,8.9,601.9,8.9z"/>
				</defs>
				<clipPath id="SVGID_00000155863301221772381610000001582530831643869578_">
					<use xlink:href="#SVGID_00000009583897785039143330000006312820125633916852_"  style="overflow:visible;"/>
				</clipPath>
				<path style="clip-path:url(#SVGID_00000155863301221772381610000001582530831643869578_);fill:#B1A19D;" d="M523.7,214.9
					c-8.7,0-16.7-5.5-19.7-14.2c-3.7-11.1,2.5-22.8,12.9-26.6l19.7-6.8c11.1-3.7,22.8,2.5,26.6,12.9c3.7,10.5-2.5,22.8-12.9,26.6
					l-19.7,6.8C528,214.9,525.5,214.9,523.7,214.9"/>
			</g>
		</g>
		<g>
			<g>
				<defs>
					<path id="SVGID_00000070084272917104022210000000194052956386303877_" d="M601.9,8.9c-56.1,0-108.5,21.6-146.7,59.2
						C417,31,364.6,8.9,308.5,8.9c-115.3,0-209,91.9-209,204.1c0,0.6,0,1.2,0,1.8c-1.2,40.2,13.6,218.9,331.8,400.2
						c2.5,1.2,11.1,6.8,24.1,6.8c11.1,0,20.9-5,24.1-7.4c142.4-81.3,241.1-171.3,293.4-268.2c33.3-61.7,37.6-108.5,37.6-128.3v-1.2
						c0-2.5,0-4.3,0-5.5C810.4,99.6,716.7,8.9,601.9,8.9z"/>
				</defs>
				<clipPath id="SVGID_00000127727824677607186780000005300630799051926969_">
					<use xlink:href="#SVGID_00000070084272917104022210000000194052956386303877_"  style="overflow:visible;"/>
				</clipPath>
				<path style="clip-path:url(#SVGID_00000127727824677607186780000005300630799051926969_);fill:#B1A19D;" d="M526.8,257.4
					c-9.2,0-17.9-6.2-21.6-15.4c-4.3-11.7,1.8-24.6,14.2-29l25.3-8.7c11.7-4.3,24.6,1.8,29,14.2c4.3,11.7-1.8,24.6-14.2,29
					l-25.3,8.7C531.7,256.7,529.3,257.4,526.8,257.4"/>
			</g>
		</g>
		<g>
			<g>
				<defs>
					<path id="SVGID_00000039816606505827935630000014246561290392522650_" d="M601.9,8.9c-56.1,0-108.5,21.6-146.7,59.2
						C417,31,364.6,8.9,308.5,8.9c-115.3,0-209,91.9-209,204.1c0,0.6,0,1.2,0,1.8c-1.2,40.2,13.6,218.9,331.8,400.2
						c2.5,1.2,11.1,6.8,24.1,6.8c11.1,0,20.9-5,24.1-7.4c142.4-81.3,241.1-171.3,293.4-268.2c33.3-61.7,37.6-108.5,37.6-128.3v-1.2
						c0-2.5,0-4.3,0-5.5C810.4,99.6,716.7,8.9,601.9,8.9z"/>
				</defs>
				<clipPath id="SVGID_00000038392900514577484750000016488157898768709504_">
					<use xlink:href="#SVGID_00000039816606505827935630000014246561290392522650_"  style="overflow:visible;"/>
				</clipPath>
				<path style="clip-path:url(#SVGID_00000038392900514577484750000016488157898768709504_);fill:#B1A19D;" d="M526.8,295
					c-8.7,0-16.7-5.5-19.7-14.2c-3.7-11.1,2.5-22.8,12.9-26.6l19.7-6.8c11.1-3.7,22.8,2.5,26.6,12.9c3.7,11.1-2.5,22.8-12.9,26.6
					l-19.7,6.8C531.1,294.3,528.6,295,526.8,295"/>
			</g>
		</g>
		<g>
			<g>
				<defs>
					<path id="SVGID_00000069378819236993022060000005143899185232969151_" d="M601.9,8.9c-56.1,0-108.5,21.6-146.7,59.2
						C417,31,364.6,8.9,308.5,8.9c-115.3,0-209,91.9-209,204.1c0,0.6,0,1.2,0,1.8c-1.2,40.2,13.6,218.9,331.8,400.2
						c2.5,1.2,11.1,6.8,24.1,6.8c11.1,0,20.9-5,24.1-7.4c142.4-81.3,241.1-171.3,293.4-268.2c33.3-61.7,37.6-108.5,37.6-128.3v-1.2
						c0-2.5,0-4.3,0-5.5C810.4,99.6,716.7,8.9,601.9,8.9z"/>
				</defs>
				<clipPath id="SVGID_00000111191681408937946500000014586411973498715780_">
					<use xlink:href="#SVGID_00000069378819236993022060000005143899185232969151_"  style="overflow:visible;"/>
				</clipPath>
				<path style="clip-path:url(#SVGID_00000111191681408937946500000014586411973498715780_);fill:#B1A19D;" d="M526.8,328.3
					c-8,0-15.4-5-17.9-12.9c-3-9.9,1.8-20.9,12.4-24.1l19.7-6.8c9.9-3,20.9,1.8,24.1,12.4c3,9.9-1.8,20.9-12.4,24.1l-19.7,6.8
					C531.1,328.3,528.6,328.3,526.8,328.3"/>
			</g>
		</g>
		<g>
			<g>
				<defs>
					<path id="SVGID_00000044157173015293636640000015100895473253683590_" d="M601.9,8.9c-56.1,0-108.5,21.6-146.7,59.2
						C417,31,364.6,8.9,308.5,8.9c-115.3,0-209,91.9-209,204.1c0,0.6,0,1.2,0,1.8c-1.2,40.2,13.6,218.9,331.8,400.2
						c2.5,1.2,11.1,6.8,24.1,6.8c11.1,0,20.9-5,24.1-7.4c142.4-81.3,241.1-171.3,293.4-268.2c33.3-61.7,37.6-108.5,37.6-128.3v-1.2
						c0-2.5,0-4.3,0-5.5C810.4,99.6,716.7,8.9,601.9,8.9z"/>
				</defs>
				<clipPath id="SVGID_00000072282642076550216720000003552423379141373844_">
					<use xlink:href="#SVGID_00000044157173015293636640000015100895473253683590_"  style="overflow:visible;"/>
				</clipPath>
				<path style="clip-path:url(#SVGID_00000072282642076550216720000003552423379141373844_);fill:#BF9E9E;" d="M450.3,370.8
					c13.6,1.8,22.8,14.2,20.9,27.8c0,0.6-3,20.9-4.3,49.3c5.5-7.4,14.2-11.7,24.1-9.9c10.5,1.8,18.5,10.5,20.4,20.4
					c5.5-4.3,12.9-6.8,20.9-5c9.9,2.5,17.2,10.5,19.1,19.7c3.7-2.5,8-3.7,12.4-3.7c13.6,0,24.6,10.5,25.3,24.1
					c0,3,1.2,73.4-16,130.1c-2.5,8.7-9.2,14.2-17.2,16.7c-1.2,0-1.8,0.6-3,0.6l0.6,19.7c0,0-125.1,8.7-127-9.2
					c-0.6-9.9-1.2-18.5-1.8-27.1c-4.3-0.6-8-2.5-11.7-5.5c-20.4-18.5-32.1-46.8-33.9-82c-1.2-24.6,3-45,3-46.2
					c2.5-13.6,15.4-22.2,29-19.1c2.5,0.6,5,1.2,7.4,2.5c0-43.8,5.5-79.5,5.5-82C424.4,378.2,436.8,368.9,450.3,370.8"/>
			</g>
		</g>
		<g>
			<g>
				<defs>
					<path id="SVGID_00000079471075120466990870000008911040545450805669_" d="M601.9,8.9c-56.1,0-108.5,21.6-146.7,59.2
						C417,31,364.6,8.9,308.5,8.9c-115.3,0-209,91.9-209,204.1c0,0.6,0,1.2,0,1.8c-1.2,40.2,13.6,218.9,331.8,400.2
						c2.5,1.2,11.1,6.8,24.1,6.8c11.1,0,20.9-5,24.1-7.4c142.4-81.3,241.1-171.3,293.4-268.2c33.3-61.7,37.6-108.5,37.6-128.3v-1.2
						c0-2.5,0-4.3,0-5.5C810.4,99.6,716.7,8.9,601.9,8.9z"/>
				</defs>
				<clipPath id="SVGID_00000076603947086580700440000001999602862873351615_">
					<use xlink:href="#SVGID_00000079471075120466990870000008911040545450805669_"  style="overflow:visible;"/>
				</clipPath>
				<path style="clip-path:url(#SVGID_00000076603947086580700440000001999602862873351615_);fill:#DDDCDC;" d="M415.9,309.7
					c0,5.5-4.3,9.9-9.9,9.9c-5.5,0-9.9-4.3-9.9-9.9s4.3-9.9,9.9-9.9C411.5,300.5,415.9,304.9,415.9,309.7"/>
			</g>
		</g>
	</g>
</g>
</svg>
