<?xml version="1.0" encoding="utf-8"?>
<!-- Generator: Adobe Illustrator 26.4.1, SVG Export Plug-In . SVG Version: 6.00 Build 0)  -->
<svg version="1.1" id="Layer_1" xmlns="http://www.w3.org/2000/svg" xmlns:xlink="http://www.w3.org/1999/xlink" x="0px" y="0px"
	 viewBox="0 0 632 632" style="enable-background:new 0 0 632 632;" xml:space="preserve">
<style type="text/css">
	.st0{fill:#EEEEED;}
	.st1{fill:#EC6553;}
	.st2{fill:#FFFFFF;}
	.st3{fill:#141511;}
	.st4{fill:#B1A19D;}
	.st5{fill:#DAC1AD;}
	.st6{fill:none;stroke:#EC6553;stroke-width:0.72;stroke-linecap:round;stroke-linejoin:round;}
</style>
<g>
	<path class="st0" d="M326.8,592.6c123.7,0,223.5-100.4,223.5-223.5c0-123.7-100.4-223.5-223.5-223.5S103.3,245.9,103.3,369
		C103.3,492.2,203.7,592.6,326.8,592.6"/>
	<path class="st1" d="M431.7,63.8c-90.2,1.7-161.7,77.2-160,167.4c1.7,87.9,156,268.3,162.8,275.7c1.7,2.3,6.8,7.9,6.8,7.9
		s5.1-6.2,6.8-7.9c6.2-7.9,152.6-195.2,150.3-282.5C597.4,133.6,521.9,62.1,431.7,63.8"/>
	<path class="st2" d="M510.6,226.6c0,41.4-33.5,74.9-74.9,74.9s-74.9-33.5-74.9-74.9s33.5-74.9,74.9-74.9
		C477.1,151.8,510.6,185.2,510.6,226.6"/>
	<path class="st2" d="M595.1,96.7c-3.4,0-6.2,0.6-9.1,1.1C571.9,88.2,554.8,82,536.1,82c-21.6,0-41.4,7.9-56.7,21
		c-6.8-4-14.2-6.2-22.7-6.2c-15.3,0-28.4,7.4-37.4,19.3H632C623.5,104.1,609.9,96.7,595.1,96.7"/>
	<path class="st3" d="M361.4,514.8c-1.7-5.7-6.8-10.2-13-10.2l0,0c-11.9-0.6-22.1-10.2-22.1-22.1l-5.1-1.1v33.5H361.4z"/>
	<path class="st3" d="M10.2,478.5c5.7-1.7,10.2-6.8,10.2-13l0,0c0.6-11.9,10.2-22.1,22.1-22.1l1.1-5.1H10.2V478.5z"/>
	<path class="st4" d="M41.4,419.5c51.6,0,93.6-42,93.6-93.6h40.3c0,73.8-60.1,133.9-133.9,133.9V419.5z"/>
	<path class="st4" d="M276.9,344.1c-36.3-36.3-84-56.7-135-57.3c-1.1,0-2.3-0.6-4-0.6c-11.3,0-20.4,9.1-20.4,20.4
		s9.1,20.4,20.4,20.4h0.6c86.2,0,156,70.3,156,156.6h40.3C334.2,430.3,313.7,381,276.9,344.1"/>
	<path class="st3" d="M229.2,89.4c0,9.1-7.4,15.9-16.5,15.9s-15.9-7.4-15.9-16.5s7.4-15.9,16.5-15.9
		C222.4,72.9,229.2,80.3,229.2,89.4 M286.5,162l-20.4-60.7l18.7-34.6h-30.1c-7.4-15.9-23.3-27.2-42.5-27.2c-20.4,0-38,13-44.3,31.8
		l0,0L137.9,162c-2.8,7.9-4.5,16.5-4.5,25.5c0,43.1,35.2,77.7,78.9,77.7s78.9-34.6,78.9-77.7C291,178.4,289.3,169.9,286.5,162"/>
	<path class="st5" d="M128.8,132.5c-11.9,0-21.6,9.6-21.6,21.6v2.8h-1.1c-2.8,0-5.1,2.3-5.1,5.1s2.3,5.1,5.1,5.1c0.6,0,0.6,0,1.1,0
		v4c0,10.2,6.8,18.7,15.9,21l2.8,30.6l11.3-1.1l-2.8-30.1c9.1-2.3,15.9-10.8,15.9-21v-4v-7.4V154
		C150.9,142.1,141.3,132.5,128.8,132.5"/>
	<path class="st1" d="M193.5,294.7l-34-77.7c-5.1-12.5-18.2-20.4-32.3-18.2c-15.9,2.3-26.7,16.5-25,32.3l0,0c0,0.6,0,1.1,0,1.7
		c0,0.6,0,1.1,0.6,1.7l10.8,72.6L193.5,294.7z"/>
	<path class="st5" d="M245.7,232.3l14.2-5.7l4,10.2c0.6,2.8,2.8,14.2-10.8,19.9l-14.2,5.7l-4-10.2
		C234.3,249.3,232.6,238,245.7,232.3"/>
	<path class="st1" d="M134.5,230.1c17,43.7,66.9,65.2,110.6,48.2l-10.2-25.5c-29.5,11.9-63-2.8-74.9-32.3L134.5,230.1z"/>
	<path class="st2" d="M138.4,177.9c0,4-3.4,7.4-7.4,7.4c-4,0-7.4-3.4-7.4-7.4H138.4z"/>
	<path class="st1" d="M152,151.2v-2.3c0-13-10.2-23.3-23.3-23.3c-13,0-23.3,10.2-23.3,23.3v7.9h1.7H152h23.3v-5.7H152z"/>
	<path class="st3" d="M134.5,173.3h2.3c1.7,0,2.8-1.1,2.8-2.8v-5.1c0-1.7,1.1-3.4,2.8-3.4c1.1,0,1.7,0,2.3,0.6
		c0.6,0.6,1.1,1.7,1.1,2.3h2.3c0-1.7-0.6-2.8-1.7-4c-1.1-1.1-2.8-1.7-4.5-1.7c-2.8,0-5.1,2.8-5.1,5.7v5.1c0,0,0,0.6-0.6,0.6h-2.3
		v2.8H134.5z"/>
	<path class="st3" d="M116.9,164.8h2.3c0-1.7,1.7-3.4,3.4-3.4c1.7,0,3.4,1.7,3.4,3.4h2.3c0-2.8-2.3-5.7-5.7-5.7
		C119.1,159.1,116.9,162,116.9,164.8"/>
	<path class="st0" d="M131.6,260.7c-2.3,0-4.5,0-6.8,0.6c-10.8-7.4-23.8-11.9-37.4-11.9c-16.5,0-31.2,6.2-42.5,15.9
		c-5.1-2.8-10.8-4.5-17-4.5c-11.3,0-21.6,5.7-27.8,14.8h159.4C152.6,266.4,143,260.7,131.6,260.7"/>
	<path class="st2" d="M385.8,415.6c-4,0-8.5,0.6-11.9,1.1c-18.7-13-42-20.4-66.9-20.4c-28.9,0-55,10.2-75.5,27.2
		c-9.1-5.1-19.3-7.9-30.1-7.9c-20.4,0-38,9.6-49.4,25h283.7C424.4,425.2,406.2,415.6,385.8,415.6"/>
	<path class="st6" d="M402.2,229.5c0,18.7,15.3,34,34,34s34-15.3,34-34 M402.2,209.6c0-4.5,4-8.5,8.5-8.5c4.5,0,8.5,4,8.5,8.5
		 M453.9,209.6c0-4.5,4-8.5,8.5-8.5c4.5,0,8.5,4,8.5,8.5"/>
</g>
</svg>
