<?xml version="1.0" encoding="utf-8"?>
<!-- Generator: Adobe Illustrator 27.4.1, SVG Export Plug-In . SVG Version: 6.00 Build 0)  -->
<svg version="1.1" id="Layer_1" xmlns="http://www.w3.org/2000/svg" xmlns:xlink="http://www.w3.org/1999/xlink" x="0px" y="0px"
	 viewBox="0 0 910 630" style="enable-background:new 0 0 910 630;" xml:space="preserve">
<style type="text/css">
	.st0{fill:#EEEEED;}
	.st1{clip-path:url(#SVGID_00000101082589964145319030000001253460887218353293_);fill:#B1A19D;}
	.st2{clip-path:url(#SVGID_00000041280441635996332750000015079570905590684092_);fill:#FFFFFF;}
	.st3{clip-path:url(#SVGID_00000160883186857338286870000002492684130763646117_);fill:#EC6553;}
	.st4{clip-path:url(#SVGID_00000090983358031098690670000007733180759772205962_);fill:#FFFFFF;}
	.st5{clip-path:url(#SVGID_00000106130087587315141650000004983272493083221395_);fill:#FFFFFF;}
	.st6{clip-path:url(#SVGID_00000042730259661533470680000015982491358845194157_);fill:#FFFFFF;}
	.st7{clip-path:url(#SVGID_00000003822529181294296880000006514696600300867976_);fill:#FFFFFF;}
	.st8{clip-path:url(#SVGID_00000107555728608030858410000008514195537113349271_);fill:#FFFFFF;}
	.st9{clip-path:url(#SVGID_00000043426156014618674510000000730951771193541527_);fill:#EC6553;}
	.st10{clip-path:url(#SVGID_00000041982216853793778280000015803040448779115651_);fill:#FFFFFF;}
	.st11{clip-path:url(#SVGID_00000098923817104942714930000000744149452873281212_);fill:#FFFFFF;}
	.st12{clip-path:url(#SVGID_00000047042202921552551970000017321995809528636825_);fill:#FFFFFF;}
	.st13{clip-path:url(#SVGID_00000181054284361771471040000004064409082152569773_);fill:#FFFFFF;}
	.st14{clip-path:url(#SVGID_00000023274360606063036970000018435822710176197253_);fill:#141511;}
	.st15{clip-path:url(#SVGID_00000173847498319502995400000002978443229366545032_);fill:#141511;}
	.st16{clip-path:url(#SVGID_00000008147974596358073860000011910533675368974979_);fill:#FFFFFF;}
	.st17{clip-path:url(#SVGID_00000033354797453784311300000010285058810903011742_);fill:#141511;}
	.st18{clip-path:url(#SVGID_00000040551282472441086940000017421141981019522439_);fill:#B1A19D;}
	.st19{clip-path:url(#SVGID_00000044888695566313370330000013300587533055779479_);fill:#141511;}
	.st20{clip-path:url(#SVGID_00000066507518473010493030000006249695276921774747_);fill:#141511;}
	.st21{clip-path:url(#SVGID_00000032635697320228942850000015960120533378365058_);fill:#141511;}
	.st22{clip-path:url(#SVGID_00000038381119415994964900000011419909734093525683_);fill:#FFFFFF;}
	.st23{clip-path:url(#SVGID_00000088832130290273573740000012224096457345292419_);fill:#141511;}
	.st24{clip-path:url(#SVGID_00000027585587742569845790000000823768483491807653_);fill:#EC6553;}
	.st25{clip-path:url(#SVGID_00000098207190443306198660000003423775119524264373_);fill:#FFFFFF;}
	.st26{clip-path:url(#SVGID_00000065057742251282465550000000838669526229555845_);fill:#FFFFFF;}
	.st27{clip-path:url(#SVGID_00000032638798226999242890000003950736027934017189_);fill:#FFFFFF;}
	.st28{clip-path:url(#SVGID_00000074442894031055753870000009308075808788922007_);fill:#FFFFFF;}
	.st29{clip-path:url(#SVGID_00000003827878732614018900000010654250840949639313_);fill:#FFFFFF;}
</style>
<g>
	<path class="st0" d="M225.5,10.5h459.1c41.2,0,75,33.7,75,75v459.1c0,41.2-33.7,75-75,75H225.5c-41.2,0-75-33.7-75-75V85.4
		C150.5,44.2,184.2,10.5,225.5,10.5"/>
</g>
<g>
	<g>
		<g>
			<defs>
				<path id="SVGID_1_" d="M225.5,10.5c-41.2,0-75,33.7-75,75v459.1c0,41.2,33.7,75,75,75h459.1c41.2,0,75-33.7,75-75V85.4
					c0-41.2-33.7-75-75-75H225.5V10.5z"/>
			</defs>
			<clipPath id="SVGID_00000112629364691436388110000011162881701229921462_">
				<use xlink:href="#SVGID_1_"  style="overflow:visible;"/>
			</clipPath>
			<path style="clip-path:url(#SVGID_00000112629364691436388110000011162881701229921462_);fill:#B1A19D;" d="M332.9,543.9
				c-5.6,0-12.5,1.9-19.4,8.1l-18.7,16.2v1.2l11.2,12.5l0.6,0.6c2.5,1.9,9.4,6.9,17.5,6.9c5.6,0,12.5-1.9,19.4-8.1l19.4-16.9
				l-11.9-13l-0.6-0.6C347.9,548.9,341,543.9,332.9,543.9"/>
		</g>
	</g>
	<g>
		<g>
			<defs>
				<path id="SVGID_00000106833432502317475290000002460868609886133132_" d="M225.5,10.5c-41.2,0-75,33.7-75,75v459.1
					c0,41.2,33.7,75,75,75h459.1c41.2,0,75-33.7,75-75V85.4c0-41.2-33.7-75-75-75H225.5V10.5z"/>
			</defs>
			<clipPath id="SVGID_00000157292405250980424750000009576305686898557330_">
				<use xlink:href="#SVGID_00000106833432502317475290000002460868609886133132_"  style="overflow:visible;"/>
			</clipPath>
			
				<rect x="133.6" y="286.6" style="clip-path:url(#SVGID_00000157292405250980424750000009576305686898557330_);fill:#FFFFFF;" width="643.4" height="28.1"/>
		</g>
	</g>
	<g>
		<g>
			<defs>
				<path id="SVGID_00000158029742247458625250000008077086434296169658_" d="M225.5,10.5c-41.2,0-75,33.7-75,75v459.1
					c0,41.2,33.7,75,75,75h459.1c41.2,0,75-33.7,75-75V85.4c0-41.2-33.7-75-75-75H225.5V10.5z"/>
			</defs>
			<clipPath id="SVGID_00000173845539801830399210000008004963343576528280_">
				<use xlink:href="#SVGID_00000158029742247458625250000008077086434296169658_"  style="overflow:visible;"/>
			</clipPath>
			
				<rect x="469.1" y="79.8" style="clip-path:url(#SVGID_00000173845539801830399210000008004963343576528280_);fill:#EC6553;" width="241.1" height="207.4"/>
		</g>
	</g>
	<g>
		<g>
			<defs>
				<path id="SVGID_00000157278451670508769580000002722330562723702149_" d="M225.5,10.5c-41.2,0-75,33.7-75,75v459.1
					c0,41.2,33.7,75,75,75h459.1c41.2,0,75-33.7,75-75V85.4c0-41.2-33.7-75-75-75H225.5V10.5z"/>
			</defs>
			<clipPath id="SVGID_00000075884416020054344760000014344909469005267870_">
				<use xlink:href="#SVGID_00000157278451670508769580000002722330562723702149_"  style="overflow:visible;"/>
			</clipPath>
			<polygon style="clip-path:url(#SVGID_00000075884416020054344760000014344909469005267870_);fill:#FFFFFF;" points="615.8,79.8 
				608.3,79.8 608.3,79.8 608.3,96.7 564.6,96.7 564.6,79.8 557.1,79.8 557.1,104.2 615.8,104.2 			"/>
		</g>
	</g>
	<g>
		<g>
			<defs>
				<path id="SVGID_00000126316755934543226550000010111334324000780162_" d="M225.5,10.5c-41.2,0-75,33.7-75,75v459.1
					c0,41.2,33.7,75,75,75h459.1c41.2,0,75-33.7,75-75V85.4c0-41.2-33.7-75-75-75H225.5V10.5z"/>
			</defs>
			<clipPath id="SVGID_00000004533605549931352730000002305182178813695122_">
				<use xlink:href="#SVGID_00000126316755934543226550000010111334324000780162_"  style="overflow:visible;"/>
			</clipPath>
			<polygon style="clip-path:url(#SVGID_00000004533605549931352730000002305182178813695122_);fill:#FFFFFF;" points="616.5,262.2 
				557.7,262.2 557.7,285.9 565.2,285.9 565.2,269.7 609,269.7 609,285.9 616.5,285.9 			"/>
		</g>
	</g>
	<g>
		<g>
			<defs>
				<path id="SVGID_00000080898833082147549930000002987054574096100747_" d="M225.5,10.5c-41.2,0-75,33.7-75,75v459.1
					c0,41.2,33.7,75,75,75h459.1c41.2,0,75-33.7,75-75V85.4c0-41.2-33.7-75-75-75H225.5V10.5z"/>
			</defs>
			<clipPath id="SVGID_00000000204389112323799630000016116303703074621845_">
				<use xlink:href="#SVGID_00000080898833082147549930000002987054574096100747_"  style="overflow:visible;"/>
			</clipPath>
			<path style="clip-path:url(#SVGID_00000000204389112323799630000016116303703074621845_);fill:#FFFFFF;" d="M548.4,196
				c-0.6,0-1.9,0-2.5,0.6c-2.5,1.2-2.5,4.4-1.2,6.9c5,7.5,11.2,13.1,19.4,17.5c7.5,4.4,16.9,6.9,26.2,6.9l0,0
				c9.4,0,18.1-2.5,26.2-6.9c7.5-4.4,14.4-10,19.4-17.5c1.2-2.5,0.6-5-1.2-6.9c-0.6-0.6-1.9-0.6-2.5-0.6c-1.2,0-3.1,0.6-3.7,1.9
				c-3.7,6.2-9.4,10.6-15.6,14.4c-6.2,3.7-13.7,5.6-21.2,5.6s-15-1.9-21.2-5.6c-6.2-3.7-11.9-8.1-15.6-14.4
				C551.5,197.2,549.6,196,548.4,196"/>
		</g>
	</g>
	<g>
		<g>
			<defs>
				<path id="SVGID_00000178191445797480311750000013209636134767793287_" d="M225.5,10.5c-41.2,0-75,33.7-75,75v459.1
					c0,41.2,33.7,75,75,75h459.1c41.2,0,75-33.7,75-75V85.4c0-41.2-33.7-75-75-75H225.5V10.5z"/>
			</defs>
			<clipPath id="SVGID_00000004516584501565133140000006215228045788448652_">
				<use xlink:href="#SVGID_00000178191445797480311750000013209636134767793287_"  style="overflow:visible;"/>
			</clipPath>
			<path style="clip-path:url(#SVGID_00000004516584501565133140000006215228045788448652_);fill:#FFFFFF;" d="M560.2,147.3
				L560.2,147.3L560.2,147.3c-5.6,0-10.6,2.5-14.4,5.6c-3.7,3.7-5.6,8.7-5.6,14.4c0,2.5,1.9,4.4,4.4,4.4s4.4-1.9,4.4-4.4
				c0-3.1,1.2-5.6,3.1-7.5c1.9-1.9,4.4-3.1,7.5-3.1c3.1,0,5.6,1.2,7.5,3.1c1.9,1.9,3.1,4.4,3.1,7.5c0,2.5,1.9,4.4,4.4,4.4
				s4.4-1.9,4.4-4.4c0-5.6-2.5-10.6-5.6-14.4C570.9,149.8,565.9,147.3,560.2,147.3"/>
		</g>
	</g>
	<g>
		<g>
			<defs>
				<path id="SVGID_00000168838867546467215080000013762302532607878077_" d="M225.5,10.5c-41.2,0-75,33.7-75,75v459.1
					c0,41.2,33.7,75,75,75h459.1c41.2,0,75-33.7,75-75V85.4c0-41.2-33.7-75-75-75H225.5V10.5z"/>
			</defs>
			<clipPath id="SVGID_00000027565128905979997090000007584520515424185782_">
				<use xlink:href="#SVGID_00000168838867546467215080000013762302532607878077_"  style="overflow:visible;"/>
			</clipPath>
			<path style="clip-path:url(#SVGID_00000027565128905979997090000007584520515424185782_);fill:#FFFFFF;" d="M618.3,147.3
				L618.3,147.3L618.3,147.3c-5.6,0-10.6,2.5-14.4,5.6c-3.7,3.7-5.6,8.7-5.6,14.4c0,2.5,1.9,4.4,4.4,4.4s4.4-1.9,4.4-4.4
				c0-3.1,1.2-5.6,3.1-7.5c1.9-1.9,4.4-3.1,7.5-3.1c3.1,0,5.6,1.2,7.5,3.1c1.9,1.9,3.1,4.4,3.1,7.5c0,2.5,1.9,4.4,4.4,4.4
				s4.4-1.9,4.4-4.4c0-5.6-2.5-10.6-5.6-14.4C629,149.8,624,147.3,618.3,147.3"/>
		</g>
	</g>
	<g>
		<g>
			<defs>
				<path id="SVGID_00000084521877336351633370000000465534399309486776_" d="M225.5,10.5c-41.2,0-75,33.7-75,75v459.1
					c0,41.2,33.7,75,75,75h459.1c41.2,0,75-33.7,75-75V85.4c0-41.2-33.7-75-75-75H225.5V10.5z"/>
			</defs>
			<clipPath id="SVGID_00000042014369666533213820000010728903263874934448_">
				<use xlink:href="#SVGID_00000084521877336351633370000000465534399309486776_"  style="overflow:visible;"/>
			</clipPath>
			
				<rect x="200.5" y="79.8" style="clip-path:url(#SVGID_00000042014369666533213820000010728903263874934448_);fill:#EC6553;" width="241.1" height="207.4"/>
		</g>
	</g>
	<g>
		<g>
			<defs>
				<path id="SVGID_00000109000338622641930540000010661981821539082429_" d="M225.5,10.5c-41.2,0-75,33.7-75,75v459.1
					c0,41.2,33.7,75,75,75h459.1c41.2,0,75-33.7,75-75V85.4c0-41.2-33.7-75-75-75H225.5V10.5z"/>
			</defs>
			<clipPath id="SVGID_00000070114692652918362480000011866142326390920095_">
				<use xlink:href="#SVGID_00000109000338622641930540000010661981821539082429_"  style="overflow:visible;"/>
			</clipPath>
			<polygon style="clip-path:url(#SVGID_00000070114692652918362480000011866142326390920095_);fill:#FFFFFF;" points="347.3,79.8 
				340.4,79.8 340.4,79.8 340.4,96.7 296.7,96.7 296.7,79.8 289.2,79.8 289.2,104.2 347.3,104.2 			"/>
		</g>
	</g>
	<g>
		<g>
			<defs>
				<path id="SVGID_00000078755901367499383450000010420664248907195795_" d="M225.5,10.5c-41.2,0-75,33.7-75,75v459.1
					c0,41.2,33.7,75,75,75h459.1c41.2,0,75-33.7,75-75V85.4c0-41.2-33.7-75-75-75H225.5V10.5z"/>
			</defs>
			<clipPath id="SVGID_00000169560154475711591250000001663317281578706850_">
				<use xlink:href="#SVGID_00000078755901367499383450000010420664248907195795_"  style="overflow:visible;"/>
			</clipPath>
			<path style="clip-path:url(#SVGID_00000169560154475711591250000001663317281578706850_);fill:#FFFFFF;" d="M279.8,196
				c-0.6,0-1.9,0-2.5,0.6c-2.5,1.2-2.5,4.4-1.2,6.9c5,7.5,11.2,13.1,19.4,17.5c7.5,4.4,16.9,6.9,26.2,6.9l0,0
				c9.4,0,18.1-2.5,26.2-6.9c7.5-4.4,14.4-10,19.4-17.5c1.2-2.5,0.6-5-1.2-6.9c-0.6-0.6-1.9-0.6-2.5-0.6c-1.2,0-3.1,0.6-3.7,1.9
				c-3.7,6.2-9.4,10.6-15.6,14.4c-6.2,3.7-13.7,5.6-21.2,5.6s-15-1.9-21.2-5.6c-6.2-3.7-11.9-8.1-15.6-14.4
				C282.9,197.2,281.7,196,279.8,196"/>
		</g>
	</g>
	<g>
		<g>
			<defs>
				<path id="SVGID_00000123418109040614433080000012197527184914883758_" d="M225.5,10.5c-41.2,0-75,33.7-75,75v459.1
					c0,41.2,33.7,75,75,75h459.1c41.2,0,75-33.7,75-75V85.4c0-41.2-33.7-75-75-75H225.5V10.5z"/>
			</defs>
			<clipPath id="SVGID_00000054226884856811004280000004951734692957361572_">
				<use xlink:href="#SVGID_00000123418109040614433080000012197527184914883758_"  style="overflow:visible;"/>
			</clipPath>
			<path style="clip-path:url(#SVGID_00000054226884856811004280000004951734692957361572_);fill:#FFFFFF;" d="M291.7,147.3
				L291.7,147.3L291.7,147.3c-5.6,0-10.6,2.5-14.4,5.6c-3.7,3.7-5.6,8.7-5.6,14.4c0,2.5,1.9,4.4,4.4,4.4s4.4-1.9,4.4-4.4
				c0-3.1,1.2-5.6,3.1-7.5s4.4-3.1,7.5-3.1s5.6,1.2,7.5,3.1c1.9,1.9,3.1,4.4,3.1,7.5c0,2.5,1.9,4.4,4.4,4.4s4.4-1.9,4.4-4.4
				c0-5.6-2.5-10.6-5.6-14.4C302.3,149.8,297.3,147.3,291.7,147.3"/>
		</g>
	</g>
	<g>
		<g>
			<defs>
				<path id="SVGID_00000137850213703588703440000010583429008665468316_" d="M225.5,10.5c-41.2,0-75,33.7-75,75v459.1
					c0,41.2,33.7,75,75,75h459.1c41.2,0,75-33.7,75-75V85.4c0-41.2-33.7-75-75-75H225.5V10.5z"/>
			</defs>
			<clipPath id="SVGID_00000106852126158065551750000000982514087694601864_">
				<use xlink:href="#SVGID_00000137850213703588703440000010583429008665468316_"  style="overflow:visible;"/>
			</clipPath>
			<path style="clip-path:url(#SVGID_00000106852126158065551750000000982514087694601864_);fill:#FFFFFF;" d="M350.4,147.3
				L350.4,147.3L350.4,147.3c-5.6,0-10.6,2.5-14.4,5.6c-3.7,3.7-5.6,8.7-5.6,14.4c0,2.5,1.9,4.4,4.4,4.4s4.4-1.9,4.4-4.4
				c0-3.1,1.2-5.6,3.1-7.5c1.9-1.9,4.4-3.1,7.5-3.1s5.6,1.2,7.5,3.1c1.9,1.9,3.1,4.4,3.1,7.5c0,2.5,1.9,4.4,4.4,4.4s4.4-1.9,4.4-4.4
				c0-5.6-2.5-10.6-5.6-14.4C361,149.8,355.4,147.3,350.4,147.3"/>
		</g>
	</g>
	<g>
		<g>
			<defs>
				<path id="SVGID_00000052794777348907043820000005867708534467211173_" d="M225.5,10.5c-41.2,0-75,33.7-75,75v459.1
					c0,41.2,33.7,75,75,75h459.1c41.2,0,75-33.7,75-75V85.4c0-41.2-33.7-75-75-75H225.5V10.5z"/>
			</defs>
			<clipPath id="SVGID_00000139273124549332593730000014739670887126348176_">
				<use xlink:href="#SVGID_00000052794777348907043820000005867708534467211173_"  style="overflow:visible;"/>
			</clipPath>
			<path style="clip-path:url(#SVGID_00000139273124549332593730000014739670887126348176_);fill:#141511;" d="M387.9,422.7
				c8.1,9.4,13.7,21.2,15,33.7l8.7,31.9c13.7,4.4,28.7,6.9,43.1,6.9c6.2,0,13.1-0.6,19.4-1.2v-44.3c-6.9,1.2-13.7,2.5-20,2.5
				C429.7,452.1,405.3,442.1,387.9,422.7"/>
		</g>
	</g>
	<g>
		<g>
			<defs>
				<path id="SVGID_00000129198591091219379350000014875743856472101548_" d="M225.5,10.5c-41.2,0-75,33.7-75,75v459.1
					c0,41.2,33.7,75,75,75h459.1c41.2,0,75-33.7,75-75V85.4c0-41.2-33.7-75-75-75H225.5V10.5z"/>
			</defs>
			<clipPath id="SVGID_00000142874930360197922160000014894928474841310606_">
				<use xlink:href="#SVGID_00000129198591091219379350000014875743856472101548_"  style="overflow:visible;"/>
			</clipPath>
			<path style="clip-path:url(#SVGID_00000142874930360197922160000014894928474841310606_);fill:#141511;" d="M279.8,282.2
				c-3.7,9.4-5,19.4-3.7,28.7c1.2,10,5.6,20,11.9,27.5c2.5,3.1,5,5.6,8.1,8.1c-1.9-4.4-2.5-9.4-2.5-14.4v-8.7l0,0
				c-5,0-8.7-3.7-8.7-8.7c0-4.4,3.1-8.1,7.5-8.7c-7.5-2.5-13.1-9.4-13.1-18.1C278.5,286.6,279.2,284.7,279.8,282.2L279.8,282.2z"/>
		</g>
	</g>
	<g>
		<g>
			<defs>
				<path id="SVGID_00000111155196371352875430000010383151340801445518_" d="M225.5,10.5c-41.2,0-75,33.7-75,75v459.1
					c0,41.2,33.7,75,75,75h459.1c41.2,0,75-33.7,75-75V85.4c0-41.2-33.7-75-75-75H225.5V10.5z"/>
			</defs>
			<clipPath id="SVGID_00000013887171360803603850000012717422417916873091_">
				<use xlink:href="#SVGID_00000111155196371352875430000010383151340801445518_"  style="overflow:visible;"/>
			</clipPath>
			<path style="clip-path:url(#SVGID_00000013887171360803603850000012717422417916873091_);fill:#FFFFFF;" d="M364.1,340.9h-35
				c0,10,8.1,17.5,17.5,17.5S364.1,350.9,364.1,340.9"/>
		</g>
	</g>
	<g>
		<g>
			<defs>
				<path id="SVGID_00000072254211772593069520000007062543047117450663_" d="M225.5,10.5c-41.2,0-75,33.7-75,75v459.1
					c0,41.2,33.7,75,75,75h459.1c41.2,0,75-33.7,75-75V85.4c0-41.2-33.7-75-75-75H225.5V10.5z"/>
			</defs>
			<clipPath id="SVGID_00000041267543990284946890000002465698052056499629_">
				<use xlink:href="#SVGID_00000072254211772593069520000007062543047117450663_"  style="overflow:visible;"/>
			</clipPath>
			<path style="clip-path:url(#SVGID_00000041267543990284946890000002465698052056499629_);fill:#141511;" d="M362.9,235.3
				c-1.2,0-2.5,0-3.7,0c-11.2,1.2-18.1,6.2-24.4,11.9c-1.9,1.9-3.7,3.7-5,5.6c-8.1,8.7-17.5,14.4-30,17.5c-0.6,0-1.2,0-1.9,0h-0.6
				c-7.5,0-14.4,5-16.9,11.9c-0.6,1.9-1.2,4.4-1.2,6.2c0,8.7,5.6,15.6,13.1,18.1c0.6,0,0.6,0,1.2,0c1.2,0,2.5,0,3.7,0.6h0.6l0,0
				c18.7,0,11.2-16.9,43.1-16.9c6.2,0,13.7,0.6,23.1,1.9c1.2,0,2.5,0,3.1,0c2.5,0,5.6-0.6,8.1-1.2c10-4.4,17.5-15.6,17.5-27.5
				c0-15.6-13.1-28.7-28.7-28.7C363.5,235.3,363.5,235.3,362.9,235.3"/>
		</g>
	</g>
	<g>
		<g>
			<defs>
				<path id="SVGID_00000171715194050058686040000010562097208836973441_" d="M225.5,10.5c-41.2,0-75,33.7-75,75v459.1
					c0,41.2,33.7,75,75,75h459.1c41.2,0,75-33.7,75-75V85.4c0-41.2-33.7-75-75-75H225.5V10.5z"/>
			</defs>
			<clipPath id="SVGID_00000155115290418216658660000002061624292537970856_">
				<use xlink:href="#SVGID_00000171715194050058686040000010562097208836973441_"  style="overflow:visible;"/>
			</clipPath>
			<path style="clip-path:url(#SVGID_00000155115290418216658660000002061624292537970856_);fill:#B1A19D;" d="M364.1,340.9
				c0,10-8.1,17.5-17.5,17.5c-10,0-17.5-8.1-17.5-17.5H364.1z M341.6,313.4h-5c0-4.4-3.1-7.5-6.9-7.5s-6.9,3.1-6.9,7.5h-5
				c0-6.9,5.6-13.1,11.9-13.1S341.6,306.5,341.6,313.4 M362.2,312.2v11.9c0,3.1-2.5,6.2-6.2,6.2h-5v-5.6h5c0.6,0,0.6-0.6,0.6-0.6
				v-11.9c0-6.2,5-11.9,11.2-12.5c0.6,0,0.6,0,1.2,0c2.5,0,5,0.6,6.9,2.5c0-3.7-0.6-6.9-1.2-10c-2.5,1.2-5,1.2-8.1,1.2
				c-1.2,0-2.5,0-3.1,0c-9.4-1.2-17.5-1.9-23.1-1.9c-31.9,0-24.4,16.9-43.1,16.9l0,0h-0.6c3.1,1.2,5,4.4,5,8.1l0,0
				c0-3.7-1.9-6.9-5-8.1c-1.2-0.6-2.5-0.6-3.7-0.6c-0.6,0-0.6,0-1.2,0c-4.4,0.6-7.5,4.4-7.5,8.7c0,5,3.7,8.7,8.7,8.7l0,0v8.7
				c0,5,0.6,10,2.5,14.4c4.4,11.9,14.4,21.2,26.9,25.6l1.2,14.4h21.2l-1.2-13.7c16.9-3.7,29.4-17.5,31.9-34.4c0-1.9,0.6-3.7,0.6-5.6
				v-21.9l0,0c0-1.9-0.6-3.7-2.5-5c-1.2-1.2-3.1-1.9-5-1.9H368C364.7,304.7,362.2,308.4,362.2,312.2"/>
		</g>
	</g>
	<g>
		<g>
			<defs>
				<path id="SVGID_00000085219259715987631470000002705790526684381330_" d="M225.5,10.5c-41.2,0-75,33.7-75,75v459.1
					c0,41.2,33.7,75,75,75h459.1c41.2,0,75-33.7,75-75V85.4c0-41.2-33.7-75-75-75H225.5V10.5z"/>
			</defs>
			<clipPath id="SVGID_00000127727115024486713330000014761259840342368415_">
				<use xlink:href="#SVGID_00000085219259715987631470000002705790526684381330_"  style="overflow:visible;"/>
			</clipPath>
			<path style="clip-path:url(#SVGID_00000127727115024486713330000014761259840342368415_);fill:#141511;" d="M369.1,299.1
				c-0.6,0-0.6,0-1.2,0c-6.2,0.6-11.2,6.2-11.2,12.5v11.9c0,0.6-0.6,0.6-0.6,0.6h-5v5.6h5c3.1,0,6.2-2.5,6.2-6.2v-11.2
				c0-3.7,2.5-6.9,6.2-7.5h0.6c1.9,0,3.7,0.6,5,1.9c1.2,1.2,2.5,3.1,2.5,5l0,0h5c0,0,0,0,0-0.6c0-3.1-1.2-6.9-3.7-8.7
				c-0.6-0.6-0.6-0.6-1.2-1.2C374.1,300.3,371.6,299.1,369.1,299.1"/>
		</g>
	</g>
	<g>
		<g>
			<defs>
				<path id="SVGID_00000065780889847865046860000003854258190347513533_" d="M225.5,10.5c-41.2,0-75,33.7-75,75v459.1
					c0,41.2,33.7,75,75,75h459.1c41.2,0,75-33.7,75-75V85.4c0-41.2-33.7-75-75-75H225.5V10.5z"/>
			</defs>
			<clipPath id="SVGID_00000018226952673751777680000002094116207016722363_">
				<use xlink:href="#SVGID_00000065780889847865046860000003854258190347513533_"  style="overflow:visible;"/>
			</clipPath>
			<path style="clip-path:url(#SVGID_00000018226952673751777680000002094116207016722363_);fill:#141511;" d="M329.1,300.3
				c-6.9,0-11.9,5.6-11.9,13.1h5c0-4.4,3.1-7.5,6.9-7.5c3.7,0,6.9,3.1,6.9,7.5h5C341.6,306.5,336,300.3,329.1,300.3"/>
		</g>
	</g>
	<g>
		<g>
			<defs>
				<path id="SVGID_00000013882294606575617970000008788509708207021700_" d="M225.5,10.5c-41.2,0-75,33.7-75,75v459.1
					c0,41.2,33.7,75,75,75h459.1c41.2,0,75-33.7,75-75V85.4c0-41.2-33.7-75-75-75H225.5V10.5z"/>
			</defs>
			<clipPath id="SVGID_00000183928434921210557160000011787844140561045381_">
				<use xlink:href="#SVGID_00000013882294606575617970000008788509708207021700_"  style="overflow:visible;"/>
			</clipPath>
			<path style="clip-path:url(#SVGID_00000183928434921210557160000011787844140561045381_);fill:#141511;" d="M309.2,387.1v14.4
				h30.6v50h-42.5c-6.9,0-13.7,1.2-19.4,4.4c0,2.5-0.6,4.4-0.6,6.9l0,0v29.4h101.8v129.9h68.7l-36.2-133l-8.7-31.9
				c-1.2-13.1-6.9-24.4-15-33.7c-6.9-8.1-16.2-14.4-26.9-18.1v-17.5h-15.6h-21.2L309.2,387.1z M318.5,471.4L318.5,471.4
				c0-5,4.4-9.4,9.4-9.4s9.4,4.4,9.4,9.4h6.2c4.4,0,7.5,3.1,7.5,7.5V492h-46.2v-13.1c0-4.4,3.1-7.5,7.5-7.5H318.5z"/>
		</g>
	</g>
	<g>
		<g>
			<defs>
				<path id="SVGID_00000143575417045347845170000014171353327987326105_" d="M225.5,10.5c-41.2,0-75,33.7-75,75v459.1
					c0,41.2,33.7,75,75,75h459.1c41.2,0,75-33.7,75-75V85.4c0-41.2-33.7-75-75-75H225.5V10.5z"/>
			</defs>
			<clipPath id="SVGID_00000049937674973453880930000014468214653374300349_">
				<use xlink:href="#SVGID_00000143575417045347845170000014171353327987326105_"  style="overflow:visible;"/>
			</clipPath>
			<path style="clip-path:url(#SVGID_00000049937674973453880930000014468214653374300349_);fill:#FFFFFF;" d="M379.1,492.1H277.3
				l0,0v49.3c6.2,3.1,13.1,4.4,20,4.4v23.7l17.5-15.6c6.9-6.2,13.1-8.1,18.7-8.1c8.1,0,14.4,4.4,16.9,6.9h0.6l11.2,12.5l-18.7,16.2
				c-6.9,6.2-13.1,8.1-18.7,8.1c-8.1,0-14.4-4.4-16.9-6.9h-0.6l-10.6-11.9v25c-6.9,0-13.7-0.6-20-1.9v27.5h101.8V492.1H379.1z"/>
		</g>
	</g>
	<g>
		<g>
			<defs>
				<path id="SVGID_00000057140674967813864240000011629628670247229341_" d="M225.5,10.5c-41.2,0-75,33.7-75,75v459.1
					c0,41.2,33.7,75,75,75h459.1c41.2,0,75-33.7,75-75V85.4c0-41.2-33.7-75-75-75H225.5V10.5z"/>
			</defs>
			<clipPath id="SVGID_00000127022939581404176670000012917772110147832713_">
				<use xlink:href="#SVGID_00000057140674967813864240000011629628670247229341_"  style="overflow:visible;"/>
			</clipPath>
			<path style="clip-path:url(#SVGID_00000127022939581404176670000012917772110147832713_);fill:#141511;" d="M339.1,401.5h-30.6
				h-11.9c-53.7,0-97.4,43.7-97.4,97.4c0,46.8,33.1,86.2,77.5,94.9c6.2,1.2,13.1,1.9,20,1.9v-25v-1.2v-23.7c-7.5,0-13.7-1.9-20-4.4
				c-16.2-7.5-26.9-23.7-26.9-42.5c0-19.4,11.2-35.6,28.1-43.1c5.6-2.5,12.5-4.4,19.4-4.4h42.5v-50h-0.7V401.5z"/>
		</g>
	</g>
	<g>
		<g>
			<defs>
				<path id="SVGID_00000019659959937971413830000000765598245896135094_" d="M225.5,10.5c-41.2,0-75,33.7-75,75v459.1
					c0,41.2,33.7,75,75,75h459.1c41.2,0,75-33.7,75-75V85.4c0-41.2-33.7-75-75-75H225.5V10.5z"/>
			</defs>
			<clipPath id="SVGID_00000008145062587380006720000003974166090736573359_">
				<use xlink:href="#SVGID_00000019659959937971413830000000765598245896135094_"  style="overflow:visible;"/>
			</clipPath>
			
				<rect x="469.1" y="412.7" style="clip-path:url(#SVGID_00000008145062587380006720000003974166090736573359_);fill:#EC6553;" width="241.1" height="207.4"/>
		</g>
	</g>
	<g>
		<g>
			<defs>
				<path id="SVGID_00000044156823035371860870000011441108632983804857_" d="M225.5,10.5c-41.2,0-75,33.7-75,75v459.1
					c0,41.2,33.7,75,75,75h459.1c41.2,0,75-33.7,75-75V85.4c0-41.2-33.7-75-75-75H225.5V10.5z"/>
			</defs>
			<clipPath id="SVGID_00000112628786701912317170000016756317383572862137_">
				<use xlink:href="#SVGID_00000044156823035371860870000011441108632983804857_"  style="overflow:visible;"/>
			</clipPath>
			<polygon style="clip-path:url(#SVGID_00000112628786701912317170000016756317383572862137_);fill:#FFFFFF;" points="615.8,412.7 
				608.3,412.7 608.3,412.7 608.3,429.6 564.6,429.6 564.6,412.7 557.1,412.7 557.1,437.1 615.8,437.1 			"/>
		</g>
	</g>
	<g>
		<g>
			<defs>
				<path id="SVGID_00000102514474633254785250000006490594799304321468_" d="M225.5,10.5c-41.2,0-75,33.7-75,75v459.1
					c0,41.2,33.7,75,75,75h459.1c41.2,0,75-33.7,75-75V85.4c0-41.2-33.7-75-75-75H225.5V10.5z"/>
			</defs>
			<clipPath id="SVGID_00000031183438905741457070000014694878192918143678_">
				<use xlink:href="#SVGID_00000102514474633254785250000006490594799304321468_"  style="overflow:visible;"/>
			</clipPath>
			<polygon style="clip-path:url(#SVGID_00000031183438905741457070000014694878192918143678_);fill:#FFFFFF;" points="616.5,595.1 
				557.7,595.1 557.7,618.9 565.2,618.9 565.2,602.6 609,602.6 609,618.9 616.5,618.9 			"/>
		</g>
	</g>
	<g>
		<g>
			<defs>
				<path id="SVGID_00000118364842970612434800000016958039115860048311_" d="M225.5,10.5c-41.2,0-75,33.7-75,75v459.1
					c0,41.2,33.7,75,75,75h459.1c41.2,0,75-33.7,75-75V85.4c0-41.2-33.7-75-75-75H225.5V10.5z"/>
			</defs>
			<clipPath id="SVGID_00000115496334561135262770000008044087744070839448_">
				<use xlink:href="#SVGID_00000118364842970612434800000016958039115860048311_"  style="overflow:visible;"/>
			</clipPath>
			<path style="clip-path:url(#SVGID_00000115496334561135262770000008044087744070839448_);fill:#FFFFFF;" d="M548.4,528.9
				c-0.6,0-1.9,0-2.5,0.6c-2.5,1.2-2.5,4.4-1.2,6.9c5,7.5,11.2,13.1,19.4,17.5c7.5,4.4,16.9,6.9,26.2,6.9l0,0
				c9.4,0,18.1-2.5,26.2-6.9c7.5-4.4,14.4-10,19.4-17.5c1.2-2.5,0.6-5-1.2-6.9c-0.6-0.6-1.9-0.6-2.5-0.6c-1.2,0-3.1,0.6-3.7,1.9
				c-3.7,6.2-9.4,10.6-15.6,14.4s-13.7,5.6-21.2,5.6s-15-1.9-21.2-5.6c-6.2-3.7-11.9-8.1-15.6-14.4
				C551.5,529.5,549.6,528.9,548.4,528.9"/>
		</g>
	</g>
	<g>
		<g>
			<defs>
				<path id="SVGID_00000049939944157013558790000010208312897905216387_" d="M225.5,10.5c-41.2,0-75,33.7-75,75v459.1
					c0,41.2,33.7,75,75,75h459.1c41.2,0,75-33.7,75-75V85.4c0-41.2-33.7-75-75-75H225.5V10.5z"/>
			</defs>
			<clipPath id="SVGID_00000051359049495636802630000015223413850922984369_">
				<use xlink:href="#SVGID_00000049939944157013558790000010208312897905216387_"  style="overflow:visible;"/>
			</clipPath>
			<path style="clip-path:url(#SVGID_00000051359049495636802630000015223413850922984369_);fill:#FFFFFF;" d="M560.2,480.2
				L560.2,480.2L560.2,480.2c-5.6,0-10.6,2.5-14.4,5.6c-3.7,3.7-5.6,8.7-5.6,14.4c0,2.5,1.9,4.4,4.4,4.4s4.4-1.9,4.4-4.4
				c0-3.1,1.2-5.6,3.1-7.5c1.9-1.9,4.4-3.1,7.5-3.1c3.1,0,5.6,1.2,7.5,3.1c1.9,1.9,3.1,4.4,3.1,7.5c0,2.5,1.9,4.4,4.4,4.4
				s4.4-1.9,4.4-4.4c0-5.6-2.5-10.6-5.6-14.4C570.9,482.7,565.9,480.2,560.2,480.2"/>
		</g>
	</g>
	<g>
		<g>
			<defs>
				<path id="SVGID_00000146498752750185260620000002902013467238511001_" d="M225.5,10.5c-41.2,0-75,33.7-75,75v459.1
					c0,41.2,33.7,75,75,75h459.1c41.2,0,75-33.7,75-75V85.4c0-41.2-33.7-75-75-75H225.5V10.5z"/>
			</defs>
			<clipPath id="SVGID_00000033354721786747199420000011247566898849581700_">
				<use xlink:href="#SVGID_00000146498752750185260620000002902013467238511001_"  style="overflow:visible;"/>
			</clipPath>
			<path style="clip-path:url(#SVGID_00000033354721786747199420000011247566898849581700_);fill:#FFFFFF;" d="M618.3,480.2
				L618.3,480.2L618.3,480.2c-5.6,0-10.6,2.5-14.4,5.6c-3.7,3.7-5.6,8.7-5.6,14.4c0,2.5,1.9,4.4,4.4,4.4s4.4-1.9,4.4-4.4
				c0-3.1,1.2-5.6,3.1-7.5c1.9-1.9,4.4-3.1,7.5-3.1c3.1,0,5.6,1.2,7.5,3.1c1.9,1.9,3.1,4.4,3.1,7.5c0,2.5,1.9,4.4,4.4,4.4
				s4.4-1.9,4.4-4.4c0-5.6-2.5-10.6-5.6-14.4C629,482.7,624,480.2,618.3,480.2"/>
		</g>
	</g>
</g>
</svg>
