<?xml version="1.0" encoding="utf-8"?>
<!-- Generator: Adobe Illustrator 27.4.1, SVG Export Plug-In . SVG Version: 6.00 Build 0)  -->
<svg version="1.1" id="Layer_1" xmlns="http://www.w3.org/2000/svg" xmlns:xlink="http://www.w3.org/1999/xlink" x="0px" y="0px"
	 viewBox="0 0 910 630" style="enable-background:new 0 0 910 630;" xml:space="preserve">
<style type="text/css">
	.st0{fill:#EEEEED;}
	.st1{fill:#141511;}
	.st2{fill:#EC6553;}
	
		.st3{clip-path:url(#SVGID_00000163034995138916015360000015195116727981608627_);fill:none;stroke:#FFFFFF;stroke-width:0.484;stroke-miterlimit:10;}
	
		.st4{clip-path:url(#SVGID_00000158018327797139481310000018169117988007119538_);fill:none;stroke:#FFFFFF;stroke-width:0.484;stroke-miterlimit:10;}
	
		.st5{clip-path:url(#SVGID_00000042718094068435882660000001628366997227086991_);fill:none;stroke:#FFFFFF;stroke-width:0.484;stroke-miterlimit:10;}
	
		.st6{clip-path:url(#SVGID_00000163073302920603086150000010828719740761745323_);fill:none;stroke:#FFFFFF;stroke-width:0.484;stroke-miterlimit:10;}
	
		.st7{clip-path:url(#SVGID_00000085970052994792529220000002255430306361093764_);fill:none;stroke:#FFFFFF;stroke-width:0.484;stroke-miterlimit:10;}
	
		.st8{clip-path:url(#SVGID_00000052783288200174365700000016797945338363951030_);fill:none;stroke:#FFFFFF;stroke-width:0.484;stroke-miterlimit:10;}
	
		.st9{clip-path:url(#SVGID_00000098914527912223453590000010868583428117735552_);fill:none;stroke:#FFFFFF;stroke-width:0.484;stroke-miterlimit:10;}
	
		.st10{clip-path:url(#SVGID_00000181057500136972727330000016174567623394418337_);fill:none;stroke:#FFFFFF;stroke-width:0.484;stroke-miterlimit:10;}
	
		.st11{clip-path:url(#SVGID_00000150810947615753051660000015021355417975813772_);fill:none;stroke:#FFFFFF;stroke-width:0.484;stroke-miterlimit:10;}
	
		.st12{clip-path:url(#SVGID_00000079443686063685925930000014120749918617449918_);fill:none;stroke:#FFFFFF;stroke-width:0.484;stroke-miterlimit:10;}
	
		.st13{clip-path:url(#SVGID_00000112615743314849223040000003538609503212820904_);fill:none;stroke:#FFFFFF;stroke-width:0.484;stroke-miterlimit:10;}
	
		.st14{clip-path:url(#SVGID_00000103243650053894414490000010487623843371466133_);fill:none;stroke:#FFFFFF;stroke-width:0.484;stroke-miterlimit:10;}
	
		.st15{clip-path:url(#SVGID_00000170964867576483130810000016759028482099868341_);fill:none;stroke:#FFFFFF;stroke-width:0.484;stroke-miterlimit:10;}
	
		.st16{clip-path:url(#SVGID_00000042718105735906767870000008335653831650968201_);fill:none;stroke:#FFFFFF;stroke-width:0.484;stroke-miterlimit:10;}
	
		.st17{clip-path:url(#SVGID_00000049938421895570444900000004342890584455268770_);fill:none;stroke:#FFFFFF;stroke-width:0.484;stroke-miterlimit:10;}
	.st18{clip-path:url(#SVGID_00000120552733151384149580000005934678101608534700_);fill:#DAC1AD;}
	.st19{fill:none;stroke:#141511;stroke-width:0.775;stroke-miterlimit:10;}
	.st20{fill:#FFFFFF;}
	.st21{fill:none;stroke:#141511;stroke-width:0.775;stroke-linejoin:round;stroke-miterlimit:10;}
	.st22{fill:none;stroke:#FFFFFF;stroke-width:0.912;stroke-miterlimit:10;}
	.st23{fill:#B1A19D;}
	.st24{fill:#C6C4C4;}
	.st25{clip-path:url(#SVGID_00000058582926509977005760000013554663293938587827_);fill:none;stroke:#FFFFFF;}
	.st26{clip-path:url(#SVGID_00000084511570740413007350000003331265803941555643_);fill:none;stroke:#FFFFFF;}
	.st27{clip-path:url(#SVGID_00000056423268281791302520000006792969420166570884_);fill:none;stroke:#FFFFFF;}
	.st28{clip-path:url(#SVGID_00000097475847923073126780000005796107995919467144_);fill:none;stroke:#FFFFFF;}
	.st29{clip-path:url(#SVGID_00000010312776070160321820000017150472844588719781_);fill:none;stroke:#FFFFFF;}
	.st30{clip-path:url(#SVGID_00000084514817396090787570000010571593236876039067_);fill:none;stroke:#FFFFFF;}
	.st31{clip-path:url(#SVGID_00000098207852836281595090000006296252046408052651_);fill:none;stroke:#FFFFFF;}
	.st32{clip-path:url(#SVGID_00000015312240774402385580000017524050659281835140_);fill:none;stroke:#FFFFFF;}
	.st33{clip-path:url(#SVGID_00000076581756719335255670000001950974810678284216_);fill:none;stroke:#FFFFFF;}
	.st34{clip-path:url(#SVGID_00000160881039612929105680000017599170121807584644_);fill:none;stroke:#FFFFFF;}
	.st35{clip-path:url(#SVGID_00000011745360130672054870000004200391021149035175_);fill:none;stroke:#FFFFFF;}
	.st36{clip-path:url(#SVGID_00000009568468987524891670000007387093260671772297_);fill:none;stroke:#FFFFFF;}
	.st37{fill:#DAC1AD;}
	.st38{fill:none;stroke:#C6C4C4;stroke-width:6;}
</style>
<g>
	<polygon class="st0" points="140,0 140,630 770,630 	"/>
	<polygon class="st1" points="315.6,372.5 574.3,163.7 618.4,230.1 364.9,441.7 	"/>
	<g>
		<path class="st1" d="M607.5,229.5c29.7,0,58.9,2.9,58.9-26.9s-24-54.3-54.3-54.3c-30.3,0-54.4,24-54.4,54.3
			C557.7,232.4,577.7,229.5,607.5,229.5"/>
		<path class="st1" d="M140,629.4l1.1-164.2c0-22.3,8.6-68.1,85.2-82.9l126-20l41.2,266.7H140V629.4z"/>
		<path class="st2" d="M662.4,502.4c0-70.4-56.6-127-127-127c-26.9,0-60.6,10.3-98.4,40.7c-37.2,30.3-97.9,110.4-144.2,112.1
			c-9.8,0.6-20-4.6-31.5-4.6c-28,0-52.6,23.4-52.6,52.6c0,29.2,23.4,52.6,52.6,52.6h273.5C605.8,630,662.4,572.8,662.4,502.4"/>
	</g>
	<g>
		<g>
			<g>
				<defs>
					<path id="SVGID_1_" d="M437,416c-37.2,30.3-97.9,110.4-144.2,112.1c-9.8,0.6-20-4.6-31.5-4.6c-28,0-52.6,23.4-52.6,52.6
						s23.4,52.6,52.6,52.6h273.5l0,0c70.4,0,127-56.6,127-127s-56.5-127-126.9-127l0,0C508.5,375.4,474.7,385.7,437,416"/>
				</defs>
				<clipPath id="SVGID_00000153695471843639431000000005010543105922190995_">
					<use xlink:href="#SVGID_1_"  style="overflow:visible;"/>
				</clipPath>
				
					<path style="clip-path:url(#SVGID_00000153695471843639431000000005010543105922190995_);fill:none;stroke:#FFFFFF;stroke-width:0.484;stroke-miterlimit:10;" d="
					M386,675.8c2.9-8,44.7-88.7,115-158.5s68.1-153.3,68.1-153.3"/>
			</g>
		</g>
		<g>
			<g>
				<defs>
					<path id="SVGID_00000168809362127783901960000002212720926768621468_" d="M437,416c-37.2,30.3-97.9,110.4-144.2,112.1
						c-9.8,0.6-20-4.6-31.5-4.6c-28,0-52.6,23.4-52.6,52.6s23.4,52.6,52.6,52.6h273.5l0,0c70.4,0,127-56.6,127-127
						s-56.5-127-126.9-127l0,0C508.5,375.4,474.7,385.7,437,416"/>
				</defs>
				<clipPath id="SVGID_00000154427162615584977400000016984625788190540216_">
					<use xlink:href="#SVGID_00000168809362127783901960000002212720926768621468_"  style="overflow:visible;"/>
				</clipPath>
				
					<path style="clip-path:url(#SVGID_00000154427162615584977400000016984625788190540216_);fill:none;stroke:#FFFFFF;stroke-width:0.484;stroke-miterlimit:10;" d="
					M544.5,366.7c-51.5,24.6-32,80.1-82.4,141.4c-54.9,67.5-114.4,127-114.4,127"/>
			</g>
		</g>
		<g>
			<g>
				<defs>
					<path id="SVGID_00000040535732394608717270000005867504738074704025_" d="M437,416c-37.2,30.3-97.9,110.4-144.2,112.1
						c-9.8,0.6-20-4.6-31.5-4.6c-28,0-52.6,23.4-52.6,52.6s23.4,52.6,52.6,52.6h273.5l0,0c70.4,0,127-56.6,127-127
						s-56.5-127-126.9-127l0,0C508.5,375.4,474.7,385.7,437,416"/>
				</defs>
				<clipPath id="SVGID_00000149367065903672093260000016588181173293257900_">
					<use xlink:href="#SVGID_00000040535732394608717270000005867504738074704025_"  style="overflow:visible;"/>
				</clipPath>
				
					<path style="clip-path:url(#SVGID_00000149367065903672093260000016588181173293257900_);fill:none;stroke:#FFFFFF;stroke-width:0.484;stroke-miterlimit:10;" d="
					M496.5,380c-1.7,21.7,8,68.1-76.7,136.2c-85.2,68.1-76.7,115.6-76.7,115.6"/>
			</g>
		</g>
		<g>
			<g>
				<defs>
					<path id="SVGID_00000026851661904805523360000006691119138521277347_" d="M437,416c-37.2,30.3-97.9,110.4-144.2,112.1
						c-9.8,0.6-20-4.6-31.5-4.6c-28,0-52.6,23.4-52.6,52.6s23.4,52.6,52.6,52.6h273.5l0,0c70.4,0,127-56.6,127-127
						s-56.5-127-126.9-127l0,0C508.5,375.4,474.7,385.7,437,416"/>
				</defs>
				<clipPath id="SVGID_00000027589644904197395900000013786695522572420287_">
					<use xlink:href="#SVGID_00000026851661904805523360000006691119138521277347_"  style="overflow:visible;"/>
				</clipPath>
				
					<path style="clip-path:url(#SVGID_00000027589644904197395900000013786695522572420287_);fill:none;stroke:#FFFFFF;stroke-width:0.484;stroke-miterlimit:10;" d="
					M693.3,343.9c0,0-19.4,4.6-108.8,91.5S451.8,632.3,451.8,632.3"/>
			</g>
		</g>
		<g>
			<g>
				<defs>
					<path id="SVGID_00000078766444746487473020000005548801629417071800_" d="M437,416c-37.2,30.3-97.9,110.4-144.2,112.1
						c-9.8,0.6-20-4.6-31.5-4.6c-28,0-52.6,23.4-52.6,52.6s23.4,52.6,52.6,52.6h273.5l0,0c70.4,0,127-56.6,127-127
						s-56.5-127-126.9-127l0,0C508.5,375.4,474.7,385.7,437,416"/>
				</defs>
				<clipPath id="SVGID_00000183935621965797311090000004351886814961212814_">
					<use xlink:href="#SVGID_00000078766444746487473020000005548801629417071800_"  style="overflow:visible;"/>
				</clipPath>
				
					<path style="clip-path:url(#SVGID_00000183935621965797311090000004351886814961212814_);fill:none;stroke:#FFFFFF;stroke-width:0.484;stroke-miterlimit:10;" d="
					M490.8,646.5c0,0-13.2-51.5,34.3-108.2c47.4-57.2,75-48.6,99-107.6c24-58.9,80.6-100.2,80.6-100.2"/>
			</g>
		</g>
		<g>
			<g>
				<defs>
					<path id="SVGID_00000050626449551863347870000011045987164158699649_" d="M437,416c-37.2,30.3-97.9,110.4-144.2,112.1
						c-9.8,0.6-20-4.6-31.5-4.6c-28,0-52.6,23.4-52.6,52.6s23.4,52.6,52.6,52.6h273.5l0,0c70.4,0,127-56.6,127-127
						s-56.5-127-126.9-127l0,0C508.5,375.4,474.7,385.7,437,416"/>
				</defs>
				<clipPath id="SVGID_00000070100850618196786080000012644672422986744458_">
					<use xlink:href="#SVGID_00000050626449551863347870000011045987164158699649_"  style="overflow:visible;"/>
				</clipPath>
				
					<path style="clip-path:url(#SVGID_00000070100850618196786080000012644672422986744458_);fill:none;stroke:#FFFFFF;stroke-width:0.484;stroke-miterlimit:10;" d="
					M744.3,333.6c-4,3.4-5.2,85.2-103.6,152.8S560,634,560,634"/>
			</g>
		</g>
		<g>
			<g>
				<defs>
					<path id="SVGID_00000067194434126398332140000006952301260846524040_" d="M437,416c-37.2,30.3-97.9,110.4-144.2,112.1
						c-9.8,0.6-20-4.6-31.5-4.6c-28,0-52.6,23.4-52.6,52.6s23.4,52.6,52.6,52.6h273.5l0,0c70.4,0,127-56.6,127-127
						s-56.5-127-126.9-127l0,0C508.5,375.4,474.7,385.7,437,416"/>
				</defs>
				<clipPath id="SVGID_00000180328171097716261690000003007717809831148982_">
					<use xlink:href="#SVGID_00000067194434126398332140000006952301260846524040_"  style="overflow:visible;"/>
				</clipPath>
				
					<path style="clip-path:url(#SVGID_00000180328171097716261690000003007717809831148982_);fill:none;stroke:#FFFFFF;stroke-width:0.484;stroke-miterlimit:10;" d="
					M767.7,318.2c-3.4,3.4,2.3,85.8-90.4,160.8c-92.7,75.6-68.1,153.9-68.1,153.9"/>
			</g>
		</g>
		<g>
			<g>
				<defs>
					<path id="SVGID_00000123403864503035093500000000670344793929510026_" d="M437,416c-37.2,30.3-97.9,110.4-144.2,112.1
						c-9.8,0.6-20-4.6-31.5-4.6c-28,0-52.6,23.4-52.6,52.6s23.4,52.6,52.6,52.6h273.5l0,0c70.4,0,127-56.6,127-127
						s-56.5-127-126.9-127l0,0C508.5,375.4,474.7,385.7,437,416"/>
				</defs>
				<clipPath id="SVGID_00000135678678300618261810000002120182933469541003_">
					<use xlink:href="#SVGID_00000123403864503035093500000000670344793929510026_"  style="overflow:visible;"/>
				</clipPath>
				
					<path style="clip-path:url(#SVGID_00000135678678300618261810000002120182933469541003_);fill:none;stroke:#FFFFFF;stroke-width:0.484;stroke-miterlimit:10;" d="
					M733.9,340.4c-4,2.9-10.9,84.7-113.8,145.3s-91.5,150.5-91.5,150.5"/>
			</g>
		</g>
		<g>
			<g>
				<defs>
					<path id="SVGID_00000147937036616682024810000007024396771269886624_" d="M437,416c-37.2,30.3-97.9,110.4-144.2,112.1
						c-9.8,0.6-20-4.6-31.5-4.6c-28,0-52.6,23.4-52.6,52.6s23.4,52.6,52.6,52.6h273.5l0,0c70.4,0,127-56.6,127-127
						s-56.5-127-126.9-127l0,0C508.5,375.4,474.7,385.7,437,416"/>
				</defs>
				<clipPath id="SVGID_00000098204251922139385190000012118021599693711272_">
					<use xlink:href="#SVGID_00000147937036616682024810000007024396771269886624_"  style="overflow:visible;"/>
				</clipPath>
				
					<path style="clip-path:url(#SVGID_00000098204251922139385190000012118021599693711272_);fill:none;stroke:#FFFFFF;stroke-width:0.484;stroke-miterlimit:10;" d="
					M423.2,417.7c0,0-9.2,56.1-49.2,120.1s-80.1,95-80.1,95"/>
			</g>
		</g>
		<g>
			<g>
				<defs>
					<path id="SVGID_00000051365862682705401780000009246271765894891967_" d="M437,416c-37.2,30.3-97.9,110.4-144.2,112.1
						c-9.8,0.6-20-4.6-31.5-4.6c-28,0-52.6,23.4-52.6,52.6s23.4,52.6,52.6,52.6h273.5l0,0c70.4,0,127-56.6,127-127
						s-56.5-127-126.9-127l0,0C508.5,375.4,474.7,385.7,437,416"/>
				</defs>
				<clipPath id="SVGID_00000010286011630385854760000011583871554123887280_">
					<use xlink:href="#SVGID_00000051365862682705401780000009246271765894891967_"  style="overflow:visible;"/>
				</clipPath>
				
					<path style="clip-path:url(#SVGID_00000010286011630385854760000011583871554123887280_);fill:none;stroke:#FFFFFF;stroke-width:0.484;stroke-miterlimit:10;" d="
					M370.1,479c0,0,24.6,32.6-37.8,77.9c-61.8,45.2-61.2,86.4-61.2,86.4"/>
			</g>
		</g>
		<g>
			<g>
				<defs>
					<path id="SVGID_00000049900512459822519200000017494199878070345613_" d="M437,416c-37.2,30.3-97.9,110.4-144.2,112.1
						c-9.8,0.6-20-4.6-31.5-4.6c-28,0-52.6,23.4-52.6,52.6s23.4,52.6,52.6,52.6h273.5l0,0c70.4,0,127-56.6,127-127
						s-56.5-127-126.9-127l0,0C508.5,375.4,474.7,385.7,437,416"/>
				</defs>
				<clipPath id="SVGID_00000028299380092026793310000013519994625262886558_">
					<use xlink:href="#SVGID_00000049900512459822519200000017494199878070345613_"  style="overflow:visible;"/>
				</clipPath>
				
					<path style="clip-path:url(#SVGID_00000028299380092026793310000013519994625262886558_);fill:none;stroke:#FFFFFF;stroke-width:0.484;stroke-miterlimit:10;" d="
					M307.7,482.4c0,0,25.7,36.1-15.5,85.2c-41.8,49.2-36.6,99.6-36.6,99.6"/>
			</g>
		</g>
		<g>
			<g>
				<defs>
					<path id="SVGID_00000075126723627527627670000012994192326408226705_" d="M437,416c-37.2,30.3-97.9,110.4-144.2,112.1
						c-9.8,0.6-20-4.6-31.5-4.6c-28,0-52.6,23.4-52.6,52.6s23.4,52.6,52.6,52.6h273.5l0,0c70.4,0,127-56.6,127-127
						s-56.5-127-126.9-127l0,0C508.5,375.4,474.7,385.7,437,416"/>
				</defs>
				<clipPath id="SVGID_00000160889106799754099390000015508504238544997547_">
					<use xlink:href="#SVGID_00000075126723627527627670000012994192326408226705_"  style="overflow:visible;"/>
				</clipPath>
				
					<path style="clip-path:url(#SVGID_00000160889106799754099390000015508504238544997547_);fill:none;stroke:#FFFFFF;stroke-width:0.484;stroke-miterlimit:10;" d="
					M273.3,486.4c0,0,28.6,43.5-3.4,86.4s-21.7,103.6-21.7,103.6"/>
			</g>
		</g>
		<g>
			<g>
				<defs>
					<path id="SVGID_00000061446507274796827160000001770137138039985850_" d="M437,416c-37.2,30.3-97.9,110.4-144.2,112.1
						c-9.8,0.6-20-4.6-31.5-4.6c-28,0-52.6,23.4-52.6,52.6s23.4,52.6,52.6,52.6h273.5l0,0c70.4,0,127-56.6,127-127
						s-56.5-127-126.9-127l0,0C508.5,375.4,474.7,385.7,437,416"/>
				</defs>
				<clipPath id="SVGID_00000006701443841512974210000008125407540466234243_">
					<use xlink:href="#SVGID_00000061446507274796827160000001770137138039985850_"  style="overflow:visible;"/>
				</clipPath>
				
					<path style="clip-path:url(#SVGID_00000006701443841512974210000008125407540466234243_);fill:none;stroke:#FFFFFF;stroke-width:0.484;stroke-miterlimit:10;" d="
					M251.5,485.8c0,0,32,41.2,2.9,86.4c-29.2,45.2-14.4,104.7-14.4,104.7"/>
			</g>
		</g>
		<g>
			<g>
				<defs>
					<path id="SVGID_00000164482940416877176310000015848236620276183709_" d="M437,416c-37.2,30.3-97.9,110.4-144.2,112.1
						c-9.8,0.6-20-4.6-31.5-4.6c-28,0-52.6,23.4-52.6,52.6s23.4,52.6,52.6,52.6h273.5l0,0c70.4,0,127-56.6,127-127
						s-56.5-127-126.9-127l0,0C508.5,375.4,474.7,385.7,437,416"/>
				</defs>
				<clipPath id="SVGID_00000013885615529138865980000018089620206261345207_">
					<use xlink:href="#SVGID_00000164482940416877176310000015848236620276183709_"  style="overflow:visible;"/>
				</clipPath>
				
					<path style="clip-path:url(#SVGID_00000013885615529138865980000018089620206261345207_);fill:none;stroke:#FFFFFF;stroke-width:0.484;stroke-miterlimit:10;" d="
					M247,486.4c0,0,24.6,48-5.7,86.4s-24.6,103-24.6,103"/>
			</g>
		</g>
		<g>
			<g>
				<defs>
					<path id="SVGID_00000075140581457753862810000001756154067652459966_" d="M437,416c-37.2,30.3-97.9,110.4-144.2,112.1
						c-9.8,0.6-20-4.6-31.5-4.6c-28,0-52.6,23.4-52.6,52.6s23.4,52.6,52.6,52.6h273.5l0,0c70.4,0,127-56.6,127-127
						s-56.5-127-126.9-127l0,0C508.5,375.4,474.7,385.7,437,416"/>
				</defs>
				<clipPath id="SVGID_00000142172550829839018580000005993500451600262832_">
					<use xlink:href="#SVGID_00000075140581457753862810000001756154067652459966_"  style="overflow:visible;"/>
				</clipPath>
				
					<path style="clip-path:url(#SVGID_00000142172550829839018580000005993500451600262832_);fill:none;stroke:#FFFFFF;stroke-width:0.484;stroke-miterlimit:10;" d="
					M243,486.4c0,0,23.4,47-13.8,85.2c-37.2,38.9-34.3,100.2-34.3,100.2"/>
			</g>
		</g>
	</g>
	<g>
		<path class="st1" d="M309.4,263.8c0,37.8-30.3,68.1-68.1,68.1s-68.1-30.3-68.1-68.1s30.3-68.1,68.1-68.1S309.4,226,309.4,263.8"/>
	</g>
	<g>
		<g>
			<g>
				<defs>
					
						<rect id="SVGID_00000039115299438344358150000015028320638429041552_" x="202.3" y="211.7" transform="matrix(0.9766 -0.2152 0.2152 0.9766 -60.6755 61.2484)" width="97.3" height="195.1"/>
				</defs>
				<clipPath id="SVGID_00000083068078311425742350000005060034987611137161_">
					<use xlink:href="#SVGID_00000039115299438344358150000015028320638429041552_"  style="overflow:visible;"/>
				</clipPath>
				<path style="clip-path:url(#SVGID_00000083068078311425742350000005060034987611137161_);fill:#DAC1AD;" d="M277.9,343.9
					c17.7-9.8,22.9-35.5,18.3-54.9l-8.6-37.8c-5.7-26.3-32-43-58.4-37.2c-26.3,5.7-43,32-37.2,58.4l8.6,37.8
					c4.6,20.6,21.1,34.9,40.7,37.8c2.3,12.1,6.3,23.4-5.7,25.7l4,1.7l3.4,0.6c4.6,21.7,7.5,33.8,29.2,28.6
					c21.7-4.6,6.3-8.6,1.7-30.3l13.8,7.5V372c-5.2,1.7,5.7-13.2,1.7-14.4C283.6,355.9,279.1,351.9,277.9,343.9"/>
			</g>
		</g>
	</g>
	<g>
		<path d="M194.3,238c0,0,16,28,54.3,29.7c38.4,1.7,51.5-12.6,51.5-12.6l-6.3-22.9c0,0-29.2-20.6-32-20.6c-2.9,0-17.7-4.6-22.9-3.4
			c-5.2,0.6-29.7,6.3-29.7,6.3L194.3,238z"/>
		<path class="st19" d="M214.4,297.6c-1.1-6.3,2.9-12.6,9.2-13.8c6.3-1.2,12.6,2.9,13.8,9.2"/>
		<path class="st20" d="M232.1,321.6c1.7,8.6,12.6,12.6,25.2,11.5c11.5-1.7,20-10.3,18.8-19.4"/>
	</g>
	<polyline class="st21" points="279.1,271.8 259.6,286.7 281.4,285 	"/>
	<g>
		<path class="st1" d="M232.7,184.8c0,14.9-12.1,27.5-27.5,27.5c-14.9,0-27.5-12.1-27.5-27.5c0-14.9,12.1-27.5,27.5-27.5
			C220.6,157.9,232.7,170,232.7,184.8"/>
		<path class="st22" d="M288.2,244.3c1.1,7.5-8.6,14.9-22.3,17.1c-13.2,2.3-25.2-1.7-26.3-9.2c-1.1-7.5,8.6-14.9,22.3-17.1
			C275.1,233.5,287,237.4,288.2,244.3z M238.4,253.5c1.1,7.5-8.6,14.9-22.3,17.1c-13.2,2.3-25.2-1.7-26.3-9.2
			c-1.1-7.5,8.6-14.9,22.3-17.1C225.2,242.6,237.3,246.6,238.4,253.5z"/>
	</g>
	<polygon class="st2" points="289.9,262.1 307.1,244.3 313.9,260.4 294.5,279.8 	"/>
	<polygon class="st20" points="307.1,244.3 313.9,260.4 321.9,239.1 	"/>
	<polygon class="st1" points="316.2,241.4 318.5,247.8 321.9,239.1 	"/>
	<polygon class="st23" points="224.7,381.7 244.2,472.1 222.9,468.6 198.9,387.4 	"/>
	<polygon class="st23" points="325.4,364.5 358.6,467.5 324.2,466.9 306.5,369 	"/>
	<polygon class="st23" points="221.2,382.2 317.3,366.2 327.7,458.9 300.8,490.3 255.6,474.4 235.6,470.9 	"/>
	<polygon class="st24" points="643.5,204.3 614.4,180.2 319.6,480.7 347.7,505.8 	"/>
	<g>
		<g>
			<g>
				<defs>
					<polygon id="SVGID_00000067225403861027931880000009016965933458080413_" points="319.1,480.7 347.7,505.8 643.5,204.3 
						614.4,180.2 					"/>
				</defs>
				<clipPath id="SVGID_00000126321966381409616130000004550718485890162311_">
					<use xlink:href="#SVGID_00000067225403861027931880000009016965933458080413_"  style="overflow:visible;"/>
				</clipPath>
				
					<line style="clip-path:url(#SVGID_00000126321966381409616130000004550718485890162311_);fill:none;stroke:#FFFFFF;" x1="349.4" y1="477.2" x2="364.9" y2="492.6"/>
			</g>
		</g>
		<g>
			<g>
				<defs>
					<polygon id="SVGID_00000142874363207725644320000008845850753694964616_" points="319.1,480.7 347.7,505.8 643.5,204.3 
						614.4,180.2 					"/>
				</defs>
				<clipPath id="SVGID_00000052092777436886116220000007904845454423744909_">
					<use xlink:href="#SVGID_00000142874363207725644320000008845850753694964616_"  style="overflow:visible;"/>
				</clipPath>
				
					<line style="clip-path:url(#SVGID_00000052092777436886116220000007904845454423744909_);fill:none;stroke:#FFFFFF;" x1="399.2" y1="425.7" x2="414.6" y2="441.2"/>
			</g>
		</g>
		<g>
			<g>
				<defs>
					<polygon id="SVGID_00000106126863642643483910000012640559359139043513_" points="319.1,480.7 347.7,505.8 643.5,204.3 
						614.4,180.2 					"/>
				</defs>
				<clipPath id="SVGID_00000008871272205787286280000006768117018840058032_">
					<use xlink:href="#SVGID_00000106126863642643483910000012640559359139043513_"  style="overflow:visible;"/>
				</clipPath>
				
					<line style="clip-path:url(#SVGID_00000008871272205787286280000006768117018840058032_);fill:none;stroke:#FFFFFF;" x1="449" y1="374.8" x2="464.5" y2="390.3"/>
			</g>
		</g>
		<g>
			<g>
				<defs>
					<polygon id="SVGID_00000048501174967637463730000001511181764070252976_" points="319.1,480.7 347.7,505.8 643.5,204.3 
						614.4,180.2 					"/>
				</defs>
				<clipPath id="SVGID_00000034048311877905496540000008402087204841092257_">
					<use xlink:href="#SVGID_00000048501174967637463730000001511181764070252976_"  style="overflow:visible;"/>
				</clipPath>
				
					<line style="clip-path:url(#SVGID_00000034048311877905496540000008402087204841092257_);fill:none;stroke:#FFFFFF;" x1="498.8" y1="323.3" x2="514.2" y2="338.7"/>
			</g>
		</g>
		<g>
			<g>
				<defs>
					<polygon id="SVGID_00000149363254100633386490000011078219289561762692_" points="319.1,480.7 347.7,505.8 643.5,204.3 
						614.4,180.2 					"/>
				</defs>
				<clipPath id="SVGID_00000032649846477669050390000005730899471119282308_">
					<use xlink:href="#SVGID_00000149363254100633386490000011078219289561762692_"  style="overflow:visible;"/>
				</clipPath>
				
					<line style="clip-path:url(#SVGID_00000032649846477669050390000005730899471119282308_);fill:none;stroke:#FFFFFF;" x1="548.6" y1="272.3" x2="564.6" y2="287.8"/>
			</g>
		</g>
		<g>
			<g>
				<defs>
					<polygon id="SVGID_00000182526799857058200080000002916003480432551100_" points="319.1,480.7 347.7,505.8 643.5,204.3 
						614.4,180.2 					"/>
				</defs>
				<clipPath id="SVGID_00000034050692048217549220000010682080612102344345_">
					<use xlink:href="#SVGID_00000182526799857058200080000002916003480432551100_"  style="overflow:visible;"/>
				</clipPath>
				
					<line style="clip-path:url(#SVGID_00000034050692048217549220000010682080612102344345_);fill:none;stroke:#FFFFFF;" x1="598.9" y1="221.4" x2="614.4" y2="236.3"/>
			</g>
		</g>
		<g>
			<g>
				<defs>
					<polygon id="SVGID_00000061431527620696524360000016428069891151498896_" points="319.1,480.7 347.7,505.8 643.5,204.3 
						614.4,180.2 					"/>
				</defs>
				<clipPath id="SVGID_00000068663586681558381290000009461470466464572320_">
					<use xlink:href="#SVGID_00000061431527620696524360000016428069891151498896_"  style="overflow:visible;"/>
				</clipPath>
				
					<line style="clip-path:url(#SVGID_00000068663586681558381290000009461470466464572320_);fill:none;stroke:#FFFFFF;" x1="374.1" y1="451.5" x2="390" y2="466.9"/>
			</g>
		</g>
		<g>
			<g>
				<defs>
					<polygon id="SVGID_00000093882232920568547630000003355050947010988445_" points="319.1,480.7 347.7,505.8 643.5,204.3 
						614.4,180.2 					"/>
				</defs>
				<clipPath id="SVGID_00000134941535605014779210000014166010017020847751_">
					<use xlink:href="#SVGID_00000093882232920568547630000003355050947010988445_"  style="overflow:visible;"/>
				</clipPath>
				
					<line style="clip-path:url(#SVGID_00000134941535605014779210000014166010017020847751_);fill:none;stroke:#FFFFFF;" x1="423.8" y1="400.5" x2="439.8" y2="415.4"/>
			</g>
		</g>
		<g>
			<g>
				<defs>
					<polygon id="SVGID_00000021086696517546022740000009212605159338716351_" points="319.1,480.7 347.7,505.8 643.5,204.3 
						614.4,180.2 					"/>
				</defs>
				<clipPath id="SVGID_00000031177983437515661870000017337597789360411533_">
					<use xlink:href="#SVGID_00000021086696517546022740000009212605159338716351_"  style="overflow:visible;"/>
				</clipPath>
				
					<line style="clip-path:url(#SVGID_00000031177983437515661870000017337597789360411533_);fill:none;stroke:#FFFFFF;" x1="474.1" y1="349.1" x2="489.6" y2="364.5"/>
			</g>
		</g>
		<g>
			<g>
				<defs>
					<polygon id="SVGID_00000173128162775109209620000001509814182377805713_" points="319.1,480.7 347.7,505.8 643.5,204.3 
						614.4,180.2 					"/>
				</defs>
				<clipPath id="SVGID_00000121278511181754660820000016898793478618918075_">
					<use xlink:href="#SVGID_00000173128162775109209620000001509814182377805713_"  style="overflow:visible;"/>
				</clipPath>
				
					<line style="clip-path:url(#SVGID_00000121278511181754660820000016898793478618918075_);fill:none;stroke:#FFFFFF;" x1="524" y1="298.2" x2="539.4" y2="313"/>
			</g>
		</g>
		<g>
			<g>
				<defs>
					<polygon id="SVGID_00000150801847993135841960000007402323463302608026_" points="319.1,480.7 347.7,505.8 643.5,204.3 
						614.4,180.2 					"/>
				</defs>
				<clipPath id="SVGID_00000174600878781292324810000000808921127871333287_">
					<use xlink:href="#SVGID_00000150801847993135841960000007402323463302608026_"  style="overflow:visible;"/>
				</clipPath>
				
					<line style="clip-path:url(#SVGID_00000174600878781292324810000000808921127871333287_);fill:none;stroke:#FFFFFF;" x1="573.7" y1="246.6" x2="589.2" y2="262.1"/>
			</g>
		</g>
		<g>
			<g>
				<defs>
					<polygon id="SVGID_00000111898233165731100680000007558191142874236861_" points="319.1,480.7 347.7,505.8 643.5,204.3 
						614.4,180.2 					"/>
				</defs>
				<clipPath id="SVGID_00000110455636973938093020000001424403265939950002_">
					<use xlink:href="#SVGID_00000111898233165731100680000007558191142874236861_"  style="overflow:visible;"/>
				</clipPath>
				
					<line style="clip-path:url(#SVGID_00000110455636973938093020000001424403265939950002_);fill:none;stroke:#FFFFFF;" x1="623.5" y1="195.7" x2="638.9" y2="210.5"/>
			</g>
		</g>
	</g>
	<g>
		<path class="st37" d="M354,493.8l-31.5-16l9.8-10.3c2.3-2.9,3.4-6.3,3.4-9.8v-9.2l-41.2,20c-8,4-16.5,5.7-25.2,5.7h-10.9
			c-13.8-2.3-27.5,6.9-30.3,20.6c-2.9,13.8,5.7,27.5,19.4,30.9l60.1,17.7c5.2,1.7,10.3,0.6,14.4-3.4l36.1-24.6
			C364.3,509.3,362.6,497.8,354,493.8"/>
	</g>
	<polygon class="st1" points="236.1,416.6 312.3,401.7 298.5,346.8 220.1,367.9 	"/>
	<g>
		<path class="st24" d="M606.3,209.4c-7.5,10.9-7.5,25.2,0.6,36.1c8,10.3,18.8,14.9,35.5,10.3c16.5-4.6,30.3,4,30.3,4"/>
		<path class="st38" d="M606.3,209.4c-7.5,10.9-7.5,25.2,0.6,36.1c8,10.3,18.8,14.9,35.5,10.3c16.5-4.6,30.3,4,30.3,4"/>
		<path class="st37" d="M603.5,173.3l-34.3,30.9l8.6,3.4c3.4,1.1,6.9,1.7,10.3,0.6l27.5-10.3C614.9,197.4,609.8,168.3,603.5,173.3"
			/>
		<path class="st37" d="M601.2,186l15.5,44.7c2.3,6.9,9.2,10.9,16,9.8l25.7-11.5c6.3-1.1,10.9-6.9,10.9-13.2l1.1-34.3
			c0-8-6.3-14.4-14.4-14.4l-41.8,1.1C605.2,168.3,598.9,176.8,601.2,186"/>
	</g>
</g>
</svg>
