<?xml version="1.0" encoding="utf-8"?>
<!-- Generator: Adobe Illustrator 27.4.1, SVG Export Plug-In . SVG Version: 6.00 Build 0)  -->
<svg version="1.1" id="Layer_1" xmlns="http://www.w3.org/2000/svg" xmlns:xlink="http://www.w3.org/1999/xlink" x="0px" y="0px"
	 viewBox="0 0 910 630" style="enable-background:new 0 0 910 630;" xml:space="preserve">
<style type="text/css">
	
		.st0{clip-path:url(#SVGID_00000152984641237443651600000010597658962357327522_);fill:url(#SVGID_00000086676913761692496690000011153575013500297098_);}
	.st1{fill:#C6C4C4;}
	.st2{fill:#141511;}
	.st3{fill:none;stroke:#EC6553;stroke-width:1.75;}
	.st4{fill:#B1A19D;}
	.st5{fill:#E2E1E1;}
	.st6{fill:#FFFFFF;}
	.st7{clip-path:url(#SVGID_00000075156987359511077340000003375925439095921801_);fill:#FFFFFF;}
	.st8{fill:#DAC1AD;}
	.st9{fill:#EC6553;}
	.st10{fill:none;stroke:#141511;stroke-width:0.133;}
</style>
<g>
	<g>
		<g>
			<g>
				<defs>
					<rect id="SVGID_1_" x="67" y="52.2" width="776" height="300.1"/>
				</defs>
				<clipPath id="SVGID_00000150093193417048131510000001889299685346434965_">
					<use xlink:href="#SVGID_1_"  style="overflow:visible;"/>
				</clipPath>
				
					<linearGradient id="SVGID_00000121279407278580167880000013087287177876377217_" gradientUnits="userSpaceOnUse" x1="-782.8584" y1="412.4903" x2="-776.3916" y2="412.4903" gradientTransform="matrix(120 0 0 -120 94010 49701.0234)">
					<stop  offset="0" style="stop-color:#FFFFFF"/>
					<stop  offset="1.095450e-02" style="stop-color:#FFFFFF"/>
					<stop  offset="0.1" style="stop-color:#E8E8E8"/>
					<stop  offset="0.9" style="stop-color:#E8E8E8"/>
					<stop  offset="0.9935" style="stop-color:#FFFFFF"/>
					<stop  offset="1" style="stop-color:#FFFFFF"/>
				</linearGradient>
				
					<rect x="67" y="52.2" style="clip-path:url(#SVGID_00000150093193417048131510000001889299685346434965_);fill:url(#SVGID_00000121279407278580167880000013087287177876377217_);" width="776" height="300.1"/>
			</g>
		</g>
	</g>
	<g>
		<path class="st1" d="M212.5,282.9c-38.2,0-68.5,3.2-68.5,7.7c0,4.5,31.1,7.7,68.5,7.7c38.2,0,68.5-3.2,68.5-7.7
			C281.1,286.1,250.6,282.9,212.5,282.9"/>
	</g>
	<rect x="158.1" y="279.1" class="st2" width="109.3" height="9.7"/>
	<g>
		<path class="st1" d="M455.6,282.9c-49.7,0-89.9,3.2-89.9,7.7c0,4.5,40,7.7,89.9,7.7s89.9-3.2,89.9-7.7
			C545.5,286.1,505.5,282.9,455.6,282.9"/>
		<path class="st3" d="M580.4,536.5H328.9c-9.7,0-17.4-7.7-17.4-17.4V24.9c0-9.7,7.7-17.4,17.4-17.4h251.5c9.7,0,17.4,7.7,17.4,17.4
			v494C598,528.7,590.1,536.5,580.4,536.5z"/>
	</g>
	<polygon class="st2" points="518.4,272.6 456.4,253.2 453.8,253.2 391,272.6 387.7,272.6 387.7,288.8 395.6,288.8 395.6,279.7 
		451.1,262.3 451.1,288.8 458.9,288.8 458.9,262.3 513.8,279.7 513.8,288.8 521.6,288.8 521.6,272.6 	"/>
	<g>
		<path class="st4" d="M394.2,231.2l7.7,15.5c4.5,7.7,12.9,7.7,19.4,7.7h67.3c5.8,0,14.9,0,19.4-7.7l7.7-15.5H394.2z"/>
	</g>
	<rect x="423.3" y="150.4" class="st4" width="7.7" height="17.4"/>
	<rect x="478.3" y="150.4" class="st4" width="7.7" height="17.4"/>
	<g>
		<path class="st2" d="M490.6,109c11.1,0,19.4,9.1,19.4,19.4v11.7c0,6.5-5.2,11.7-11.7,11.7h-86.6c-6.5,0-11.7-5.2-11.7-11.7v-11.7
			c0-11.1,9.1-19.4,19.4-19.4H490.6z"/>
		<path class="st2" d="M395.6,203.5v-31.1c0-4.5,3.2-7.7,7.7-7.7h102.2c4.5,0,7.7,3.2,7.7,7.7v32.3l-64.6,12.9L395.6,203.5z"/>
		<path class="st2" d="M455,239.6h41.4c5.8,0,14.9,0,19.4-7.7l6.5-12.9c2.6-5.2,2-10.3-2-14.2l-0.6-0.6c-3.2-2.6-7.7-3.2-11.7-2
			l-7.7,3.2c-3.9,1.4-7.7,2.6-11.7,2.6H455l0,0h-33.7c-3.9,0-7.7-0.6-11.7-2.6l-7.7-3.2c-3.9-1.4-8.4-0.6-11.7,2c0,0-0.6,0-0.6,0.6
			c-3.9,3.9-3.9,9.1-2,14.2l6.5,12.9c4.5,7.7,12.9,7.7,19.4,7.7H455L455,239.6z"/>
		<path class="st4" d="M431,187.9c0,2-2,3.9-3.9,3.9s-3.9-2-3.9-3.9c0-2,2-3.9,3.9-3.9C429.8,184.1,431,185.9,431,187.9"/>
		<path class="st4" d="M431,133c0,2-2,3.9-3.9,3.9s-3.9-2-3.9-3.9c0-2,2-3.9,3.9-3.9C429.8,129,431,131,431,133"/>
		<path class="st4" d="M478.3,187.9c0,2,2,3.9,3.9,3.9s3.9-2,3.9-3.9c0-2-2-3.9-3.9-3.9C480.2,184.1,478.3,185.9,478.3,187.9"/>
		<path class="st4" d="M478.3,133c0,2,2,3.9,3.9,3.9s3.9-2,3.9-3.9c0-2-2-3.9-3.9-3.9C480.2,129,478.3,131,478.3,133"/>
		<path class="st2" d="M519.7,204.7h-5.9v-12.3c0-3.9,2.6-7.7,6.5-11.1c3.9-2.6,7.7-3.9,11.7-3.9h7.7c2,0,3.2,0.6,4.5,2
			c1.4,1.4,2,3.2,2,4.5v7.7c0,3.9-3.2,6.5-6.5,6.5H532C530.7,199.5,519.7,199.5,519.7,204.7"/>
		<path class="st2" d="M377.4,199.5h-7.7c-3.9,0-6.5-3.2-6.5-6.5v-7.7c0-2,0.6-3.2,2-4.5c1.4-1.4,3.2-2,4.5-2h7.7
			c3.9,0,8.4,1.4,11.7,3.9c4.5,3.2,6.5,6.5,6.5,11.1v11.7h-5.8C390.4,199.5,379.3,199.5,377.4,199.5"/>
		<path class="st2" d="M464.1,427.8c0,4.5-3.9,8.4-8.4,8.4s-8.4-3.9-8.4-8.4c0-4.5,3.9-8.4,8.4-8.4S464.1,423.3,464.1,427.8"/>
		<path class="st5" d="M431.8,427.8c0,4.5-3.9,8.4-8.4,8.4s-8.4-3.9-8.4-8.4c0-4.5,3.9-8.4,8.4-8.4S431.8,423.3,431.8,427.8"/>
		<path class="st5" d="M391,436.2c-4.5,0-8.4-3.9-8.4-8.4c0-4.5,3.9-8.4,8.4-8.4c4.4,0,8.4,3.9,8.4,8.4S396.2,436.2,391,436.2"/>
		<path class="st5" d="M528.1,427.8c0,4.5-3.9,8.4-8.4,8.4s-8.4-3.9-8.4-8.4c0-4.5,3.9-8.4,8.4-8.4S528.1,423.3,528.1,427.8"/>
		<path class="st5" d="M495.8,427.8c0,4.5-3.9,8.4-8.4,8.4c-4.5,0-8.4-3.9-8.4-8.4c0-4.5,3.9-8.4,8.4-8.4
			C491.8,419.4,495.8,423.3,495.8,427.8"/>
		<path class="st1" d="M711.7,282.9c-34.3,0-62,3.2-62,7.7c0,4.5,27.8,7.7,62,7.7c34.3,0,62-3.2,62-7.7
			C773.9,286.1,746,282.9,711.7,282.9"/>
		<path class="st6" d="M704,153h13.6h7.1v-7.1c0-7.1-6.5-13.6-13.6-13.6s-13.6,5.8-13.6,13.6L704,153z"/>
		<path class="st6" d="M700.8,207.3c0,0,6.5,9.1,5.2,34.9c-1.4,25.9-9.1,34.3-14.9,38.8c-5.8,4.5-17.4,7.7-17.4,7.7h37.5l0,0h37.5
			c0,0-11.7-2.6-17.4-7.7c-5.8-4.5-13.6-12.9-14.9-38.8c-1.4-25.9,5.2-34.9,5.2-34.9L700.8,207.3z"/>
		<path class="st2" d="M649.7,204.1v7.1h7.1h108.7h7.1v-7.1c-0.6-33.7-27.8-60.8-60.8-60.8S650.3,170.4,649.7,204.1"/>
	</g>
	<rect x="147.2" y="132.2" class="st6" width="131.3" height="147.4"/>
	<g>
		<path class="st1" d="M248,207.9h-70.5c-5.8,0-11.1,5.2-11.1,11.1v32.3c0,5.8,5.2,11.1,11.1,11.1H248c5.8,0,11.1-5.2,11.1-11.1V219
			C259.1,213.2,253.9,207.9,248,207.9v2.6c2,0,4.5,0.6,5.8,2.6c1.4,1.4,2.6,3.2,2.6,5.8v32.3c0,2.6-0.6,4.5-2.6,5.8
			c-1.4,1.4-3.2,2.6-5.8,2.6h-70.5c-2,0-4.5-0.6-5.8-2.6c-1.4-1.4-2.6-3.2-2.6-5.8v-32.3c0-2.6,0.6-4.5,2.6-5.8
			c1.4-1.4,3.2-2.6,5.8-2.6H248V207.9z"/>
		<path class="st1" d="M247.4,148.4h-69.9c-3.2,0-5.8,1.4-7.7,3.2c-2,2-3.2,4.5-3.2,7.7v32.3c0,3.2,1.4,5.8,3.2,7.7
			c2,2,4.5,3.2,7.7,3.2H248c3.2,0,5.8-1.4,7.7-3.2c2-2,3.2-4.5,3.2-7.7v-32.3c0-3.2-1.4-5.8-3.2-7.7
			C253.2,149.8,250.6,148.4,247.4,148.4v2.6c2,0,4.5,0.6,5.8,2.6c1.4,1.4,2.6,3.9,2.6,5.8v32.3c0,2.6-0.6,4.5-2.6,5.8
			c-1.4,1.4-3.2,2.6-5.8,2.6h-69.9c-2,0-4.5-0.6-5.8-2.6c-1.4-1.4-2.6-3.9-2.6-5.8v-32.3c0-2.6,0.6-4.5,2.6-5.8
			c1.4-1.4,3.2-2.6,5.8-2.6H248v-2.6H247.4z"/>
		<path class="st1" d="M235.1,169.2c-3.2,0-6.5,2.6-6.5,6.5c0,3.2,2.6,6.5,6.5,6.5s6.5-2.6,6.5-6.5
			C241.7,172.4,239.1,169.2,235.1,169.2"/>
	</g>
	<path class="st6" d="M201.5,224.1h-22v22h22C201.5,246.1,201.5,224.1,201.5,224.1z M178.9,224.1h22v22h-22V224.1"/>
	<g>
		<g>
			<g>
				<defs>
					<rect id="SVGID_00000168106149432597565780000015295356173457335716_" x="178.9" y="224.1" width="22" height="22"/>
				</defs>
				<clipPath id="SVGID_00000115505815447068397210000000413013317859163318_">
					<use xlink:href="#SVGID_00000168106149432597565780000015295356173457335716_"  style="overflow:visible;"/>
				</clipPath>
				<path style="clip-path:url(#SVGID_00000115505815447068397210000000413013317859163318_);fill:#FFFFFF;" d="M182.8,270h-19.4
					v19.4h19.4V270z M173.1,285.5c-3.2,0-5.8-2.6-5.8-5.8c0-3.2,2.6-5.8,5.8-5.8c3.2,0,5.8,2.6,5.8,5.8
					C178.3,282.9,175.7,285.5,173.1,285.5"/>
			</g>
		</g>
	</g>
	<g>
		<path class="st1" d="M190.6,228.7c-3.2,0-6.5,2.6-6.5,6.5c0,3.9,2.6,6.5,6.5,6.5c3.2,0,6.5-2.6,6.5-6.5
			C196.9,231.2,193.8,228.7,190.6,228.7"/>
		<path class="st8" d="M511.9,345.7l5.8,9.1l6.5-3.9c2-1.4,7.7-7.1,2.6-15.5l-5.8-9.1l-6.5,3.9C512.6,331.5,506.1,337.2,511.9,345.7
			"/>
		<path class="st8" d="M557.2,357.4l1.4,11.1l7.7-0.6c2-0.6,10.3-2.6,9.1-12.9l-1.4-11.1l-7.7,0.6
			C564.3,345.1,555.8,347.7,557.2,357.4"/>
		<path class="st2" d="M489.3,623.8c1.4-6.5,7.1-11.1,14.2-11.1c13.6,0,24-11.1,24-24.6l6.5-1.4l-7.7,36.8h-37V623.8z"/>
		<path class="st2" d="M572.1,623.8c1.4-5.8,6.5-9.7,12.9-9.7c12.3,0,22-10.3,22-22l5.2-1.4v33H572.1L572.1,623.8z"/>
	</g>
	<polygon class="st2" points="541.7,605.6 513.2,593.3 587.5,431.7 619.2,455 	"/>
	<g>
		<path class="st9" d="M504.7,362.5c20.6,33.7,65.3,44,99.6,23.3l-12.3-20c-22.6,14.2-53.1,7.1-67.3-16.2L504.7,362.5z"/>
		<path class="st2" d="M627.7,436.2v-2h-41.4l3.2,163.6h32.3l5.8-136.5c5.2-6.5,7.7-14.2,8.4-22L627.7,436.2z"/>
		<path class="st9" d="M579.8,387.7c0-13.6,11.1-24.6,24.6-24.6c11.7,0,21.4,8.4,24,18.8l18.8,57.6h-67.3
			C579.8,439.4,579.8,387.7,579.8,387.7"/>
		<path class="st8" d="M582.4,334.7c0,2-1.4,3.2-3.2,3.2c-2,0-3.2-1.4-3.2-3.2s1.4-3.2,3.2-3.2C581.1,332.1,582.4,333.4,582.4,334.7
			"/>
		<path class="st8" d="M593.4,358l-8.4-3.9c-7.1-3.2-11.1-11.7-7.7-19.4c3.2-7.1,11.7-11.1,19.4-7.7l8.4,3.9
			c7.1,3.2,11.1,11.7,7.7,19.4C609.5,357.4,601.2,360.6,593.4,358"/>
		<path class="st2" d="M625.1,362.5c0.6-2,1.4-3.9,1.4-5.8c0-6.5-3.9-12.3-9.7-14.9c0.6-2,1.4-4.5,1.4-7.1c0-6.5-3.9-12.3-9.1-14.9
			c-2-1.4-14.2-7.7-18.1-7.7c-3.9,0-7.7,3.2-7.7,7.7c0,3.2,2,5.8,4.5,7.1c4.5,2,5.2,7.1,4.5,11.1c-2.6,1.4-4.5,3.9-4.5,7.1
			c0,3.2,2,6.5,5.2,7.1c-3.2,3.2-5.8,8.4-5.8,13.6c0,10.3,8.4,18.8,18.8,18.8c2.6,0,5.8-0.6,7.7-2l29.1-10.3
			C641.2,365.7,633.5,361.2,625.1,362.5"/>
		<path class="st10" d="M581.8,331.5c0.6-1.4,0.6-2.6-0.6-3.2c-1.4-0.6-2.6-0.6-3.9,0 M588.9,338c0.6-1.4,0.6-2.6-0.6-3.2
			c-1.4-0.6-2.6-0.6-3.9,0"/>
		<path class="st9" d="M384.5,6.2h141c5.8,0,10.3,4.5,10.3,10.3c0,5.8-4.5,10.3-10.3,10.3h-141c-5.8,0-10.3-4.5-10.3-10.3
			C374.2,10.8,378.7,6.2,384.5,6.2"/>
	</g>
</g>
</svg>
