<?xml version="1.0" encoding="utf-8"?>
<!-- Generator: Adobe Illustrator 27.4.1, SVG Export Plug-In . SVG Version: 6.00 Build 0)  -->
<svg version="1.1" id="Layer_1" xmlns="http://www.w3.org/2000/svg" xmlns:xlink="http://www.w3.org/1999/xlink" x="0px" y="0px"
	 viewBox="0 0 910 630" style="enable-background:new 0 0 910 630;" xml:space="preserve">
<style type="text/css">
	.st0{fill:#EEEEED;}
	.st1{clip-path:url(#SVGID_00000088837196713795375630000004155532414831236541_);fill:#A51D16;}
	.st2{clip-path:url(#SVGID_00000165914303088099909060000005532135603724716459_);fill:#141511;}
	.st3{clip-path:url(#SVGID_00000050661236202848998230000001867092478084481681_);fill:#EC6553;}
	.st4{clip-path:url(#SVGID_00000048496317627515626710000007469111143019365542_);fill:#E5D3C5;}
	.st5{clip-path:url(#SVGID_00000083051392944824933840000017960483378283124372_);fill:#EC6553;}
	.st6{clip-path:url(#SVGID_00000016068862418982988020000012524052370443677858_);fill:#141511;}
	.st7{clip-path:url(#SVGID_00000110456706254558668730000012778190585934102951_);fill:#FFFFFF;}
	.st8{clip-path:url(#SVGID_00000155837666101433526560000000678559777428957849_);fill:#FFFFFF;}
	.st9{fill:#EC6553;}
	.st10{fill:#FFFFFF;}
</style>
<g>
	<g>
		<path class="st0" d="M123.1,629l142.7-38.1c40.5,23,87.6,36.3,137.9,36.3c154.1,0,279.2-125.1,279.2-279.2S557.8,68.7,403.7,68.7
			S124.3,193.8,124.3,348c0,50.7,13.3,98,36.9,139.1L123.1,629z"/>
	</g>
	<g>
		<g>
			<g>
				<defs>
					<path id="SVGID_1_" d="M123.7,348c0,50.7,13.3,98,36.9,139.1l-38.1,142l142.7-38.1c40.5,23,87.6,36.3,137.9,36.3
						c154.1,0,279.2-125.1,279.2-279.2S557.2,68.7,403.1,68.7S123.7,193.2,123.7,348"/>
				</defs>
				<clipPath id="SVGID_00000139283474729477079690000007410307099566172556_">
					<use xlink:href="#SVGID_1_"  style="overflow:visible;"/>
				</clipPath>
				
					<rect x="434.4" y="310.5" style="clip-path:url(#SVGID_00000139283474729477079690000007410307099566172556_);fill:#A51D16;" width="154.1" height="204.3"/>
			</g>
		</g>
		<g>
			<g>
				<defs>
					<path id="SVGID_00000083791939912314695230000002823991712042487470_" d="M123.7,348c0,50.7,13.3,98,36.9,139.1l-38.1,142
						l142.7-38.1c40.5,23,87.6,36.3,137.9,36.3c154.1,0,279.2-125.1,279.2-279.2S557.2,68.7,403.1,68.7S123.7,193.2,123.7,348"/>
				</defs>
				<clipPath id="SVGID_00000051368730199108153450000004443199265518340519_">
					<use xlink:href="#SVGID_00000083791939912314695230000002823991712042487470_"  style="overflow:visible;"/>
				</clipPath>
				<path style="clip-path:url(#SVGID_00000051368730199108153450000004443199265518340519_);fill:#141511;" d="M411.5,115.9
					c-94.2,1.2-169.2,78.6-168,172.8c0.6,44.7,18.1,84.6,46.5,114.8c24.2,31.5,30.2,74.4,13.3,113c-6,13.3-14.5,24.8-24.2,34.5
					c-59.9,45.3-98,117.9-96.8,198.8c1.8,136.1,113,244.2,249,242.3l111.2-481.1c12.1,2.4,42.9-132.9,41.7-226.7
					C583.1,190.2,505.7,114.7,411.5,115.9"/>
			</g>
		</g>
		<g>
			<g>
				<defs>
					<path id="SVGID_00000073001419193877693630000007597135251352594330_" d="M123.7,348c0,50.7,13.3,98,36.9,139.1l-38.1,142
						l142.7-38.1c40.5,23,87.6,36.3,137.9,36.3c154.1,0,279.2-125.1,279.2-279.2S557.2,68.7,403.1,68.7S123.7,193.2,123.7,348"/>
				</defs>
				<clipPath id="SVGID_00000011006813434053055930000000777731352701991102_">
					<use xlink:href="#SVGID_00000073001419193877693630000007597135251352594330_"  style="overflow:visible;"/>
				</clipPath>
				<path style="clip-path:url(#SVGID_00000011006813434053055930000000777731352701991102_);fill:#EC6553;" d="M319.5,738.4
					c-62.3,8.4-119.7-35.7-128.1-98s35.7-119.7,98-128.1l71.9-9.6l134.1,163.8L319.5,738.4z"/>
			</g>
		</g>
		<g>
			<g>
				<defs>
					<path id="SVGID_00000124880675464884587320000011363343466465703079_" d="M123.7,348c0,50.7,13.3,98,36.9,139.1l-38.1,142
						l142.7-38.1c40.5,23,87.6,36.3,137.9,36.3c154.1,0,279.2-125.1,279.2-279.2S557.2,68.7,403.1,68.7S123.7,193.2,123.7,348"/>
				</defs>
				<clipPath id="SVGID_00000014627190954960934990000009957714958699572397_">
					<use xlink:href="#SVGID_00000124880675464884587320000011363343466465703079_"  style="overflow:visible;"/>
				</clipPath>
				<path style="clip-path:url(#SVGID_00000014627190954960934990000009957714958699572397_);fill:#E5D3C5;" d="M476.8,473.1l6-3.6
					c33.9-14.5,51.3-59.3,51.3-98.6v-75.6c0-52.5-42.9-95.4-95.4-95.4s-95.4,42.9-95.4,95.4v75.6c0,41.1,25.4,75.6,61.7,89.4
					c-0.6,23.6-20.6,42.9-44.1,42.9h0.6h-0.6c0,43.5,35.1,79.2,79.2,79.2c43.5,0,78.6-35.1,79.2-78.6l0,0h1.8
					C496.7,502.7,476.8,497.9,476.8,473.1"/>
			</g>
		</g>
		<g>
			<g>
				<defs>
					<path id="SVGID_00000077294114493496729850000006530538481872603274_" d="M123.7,348c0,50.7,13.3,98,36.9,139.1l-38.1,142
						l142.7-38.1c40.5,23,87.6,36.3,137.9,36.3c154.1,0,279.2-125.1,279.2-279.2S557.2,68.7,403.1,68.7S123.7,193.2,123.7,348"/>
				</defs>
				<clipPath id="SVGID_00000088115831853968921730000016375601738428180363_">
					<use xlink:href="#SVGID_00000077294114493496729850000006530538481872603274_"  style="overflow:visible;"/>
				</clipPath>
				<path style="clip-path:url(#SVGID_00000088115831853968921730000016375601738428180363_);fill:#EC6553;" d="M491.9,332.8
					c-12.1,0-21.8-10.2-21.8-22.4s9.6-22.4,21.8-22.4c12.1,0,21.8,10.2,21.8,22.4S503.9,332.8,491.9,332.8 M386.1,332.8
					c-12.1,0-22.4-10.2-22.4-22.4s9.6-22.4,22.4-22.4c12.8,0,21.8,10.2,21.8,22.4S398.2,332.8,386.1,332.8 M491.9,267.6
					c-14.5,0-27.8,7.2-35.1,18.7c-4.8-3.6-10.8-5.4-17.5-5.4c-6.6,0-12.7,2.4-17.5,5.4c-7.8-11.4-20.6-18.7-35.1-18.7
					c-23.6,0-42.3,19.4-42.3,42.9s19.4,42.9,42.3,42.9c23.6,0,42.3-19.4,42.3-42.9v-0.6c0.6-4.8,4.8-9,10.2-9c4.8,0,9.6,3.6,10.2,9
					v0.6c0,23.6,19.4,42.9,42.3,42.9c23.6,0,42.3-19.4,42.3-42.9S515.5,267.6,491.9,267.6"/>
			</g>
		</g>
		<g>
			<g>
				<defs>
					<path id="SVGID_00000121256319791506612690000003246088897949402284_" d="M123.7,348c0,50.7,13.3,98,36.9,139.1l-38.1,142
						l142.7-38.1c40.5,23,87.6,36.3,137.9,36.3c154.1,0,279.2-125.1,279.2-279.2S557.2,68.7,403.1,68.7S123.7,193.2,123.7,348"/>
				</defs>
				<clipPath id="SVGID_00000032635553045234808330000017312448971309970878_">
					<use xlink:href="#SVGID_00000121256319791506612690000003246088897949402284_"  style="overflow:visible;"/>
				</clipPath>
				<path style="clip-path:url(#SVGID_00000032635553045234808330000017312448971309970878_);fill:#141511;" d="M756,428.3
					l16.3-32.7c-13.9-8.4,58.1-61.1,51.3-76.8c-14.5-33.3-144.5-59.3-119.1-82.2c0,0-96.8-18.1-95.4-29.6c6-52.5-31.5-99.8-84-105.2
					c-51.9-6-99.8,31.5-105.2,84c-4.8,42.3,18.7,81,55.6,97.4c38.1,18.1,62.9,59.3,57.4,103.4c-3.6,30.2-20,56.2-43.5,71.9
					c-55,29-95.4,84-103.4,150.5c-12.1,107,64.7,203.7,171.6,216.4l9.6-87c85.2-12.7,154.1-81.6,164.4-171
					C741.5,490.6,817.6,467,756,428.3"/>
			</g>
		</g>
		<g>
			<g>
				<defs>
					<path id="SVGID_00000069383502325245008780000009126413234994515588_" d="M123.7,348c0,50.7,13.3,98,36.9,139.1l-38.1,142
						l142.7-38.1c40.5,23,87.6,36.3,137.9,36.3c154.1,0,279.2-125.1,279.2-279.2S557.2,68.7,403.1,68.7S123.7,193.2,123.7,348"/>
				</defs>
				<clipPath id="SVGID_00000171720391616037638210000001222359610467891853_">
					<use xlink:href="#SVGID_00000069383502325245008780000009126413234994515588_"  style="overflow:visible;"/>
				</clipPath>
				<path style="clip-path:url(#SVGID_00000171720391616037638210000001222359610467891853_);fill:#FFFFFF;" d="M400,381.8
					c0,21.8,17.5,39.3,39.3,39.3c21.8,0,39.3-17.5,39.3-39.3"/>
			</g>
		</g>
		<g>
			<g>
				<defs>
					<path id="SVGID_00000122002443562666075510000009673663254677822605_" d="M123.7,348c0,50.7,13.3,98,36.9,139.1l-38.1,142
						l142.7-38.1c40.5,23,87.6,36.3,137.9,36.3c154.1,0,279.2-125.1,279.2-279.2S557.2,68.7,403.1,68.7S123.7,193.2,123.7,348"/>
				</defs>
				<clipPath id="SVGID_00000037661383776836877580000002084953190810858126_">
					<use xlink:href="#SVGID_00000122002443562666075510000009673663254677822605_"  style="overflow:visible;"/>
				</clipPath>
				<path style="clip-path:url(#SVGID_00000037661383776836877580000002084953190810858126_);fill:#FFFFFF;" d="M440.5,435.6
					c-10.2,0-19.4,6.6-23.6,15.7c-41.1-6-72.5-41.7-72.5-84.6v-67.7c-18.1,0-33.3,14.5-33.3,33.3c0,10.8,5.4,20.6,13.3,26.6v7.8
					c0,53.7,40.5,98,92.4,104.6c3.6,9,12.7,15.1,23.6,15.1c13.9,0,25.4-11.4,25.4-25.4C465.2,447,454.4,435.6,440.5,435.6"/>
			</g>
		</g>
	</g>
	<g>
		<path class="st9" d="M787.5,257.9L770,192.6c10.8-18.7,16.9-39.9,16.9-63.5C786.9,58.4,729.5,1,658.8,1S530.6,58.4,530.6,129.1
			s57.4,128.1,128.1,128.1c23,0,44.7-6,63.5-16.9L787.5,257.9z"/>
		<path class="st10" d="M627.2,93.4v27.2h29.6V93.4h16.9v70.7h-16.9v-27.8h-29.6v27.8h-16.9V93.4L627.2,93.4L627.2,93.4z
			 M685.9,164.2h15.7v-49.5h-15.7V164.2z M687.1,92.2c1.8-1.8,4.2-2.4,6.6-2.4s4.8,1.2,6.6,2.4c1.8,1.8,3,4.2,3,6.6s-1.2,4.8-3,6.6
			c-1.8,1.8-4.2,3-6.6,3s-4.8-1.2-6.6-3c-1.8-1.8-2.4-4.2-2.4-6.6C684.1,96.5,685.3,94,687.1,92.2"/>
	</g>
</g>
</svg>
