<?xml version="1.0" encoding="utf-8"?>
<!-- Generator: Adobe Illustrator 27.5.0, SVG Export Plug-In . SVG Version: 6.00 Build 0)  -->
<svg version="1.1" id="Layer_1" xmlns="http://www.w3.org/2000/svg" xmlns:xlink="http://www.w3.org/1999/xlink" x="0px" y="0px"
	 viewBox="0 0 32 32" style="enable-background:new 0 0 32 32;" xml:space="preserve">
<path d="M26.5,17.3L26.5,17.3L23.9,8l2.3-4.1h-3.6C21.3,1.6,18.9,0,16.1,0c-3.5,0-6.3,2.3-7.2,5.5l0,0L5.5,17.3l0,0
	c-0.4,1.1-0.6,2.3-0.6,3.6C4.9,27,9.9,32,16,32s11.1-5,11.1-11.1C27.2,19.6,26.9,18.4,26.5,17.3z M16.1,9.5c-1.3,0-2.3-1.1-2.3-2.3
	s1.1-2.3,2.3-2.3c1.3,0,2.3,1.1,2.3,2.3S17.3,9.5,16.1,9.5z"/>
</svg>
