<svg width="120" height="100" xmlns="http://www.w3.org/2000/svg"><g fill="none" fill-rule="evenodd"><circle fill="#D53C25" cx="26" cy="17" r="4"/><circle fill="#F26651" cx="17" cy="55" r="4"/><circle fill="#F26651" cx="108" cy="8" r="4"/><path fill="#D53C25" d="M47.657 1l5.657 5.657-5.657 5.657L42 6.657z"/><path fill="#F26651" d="M8.657 27l5.657 5.657-5.657 5.657L3 32.657z"/><path fill="#D53C25" d="M93.657 13l5.657 5.657-5.657 5.657L88 18.657z"/><path fill="#F26651" d="M9 6l4 7H5z"/><path fill="#D53C25" d="M27 36l4 7h-8z"/><path fill="#F26651" d="M71 7l4 7h-8zM112 29l4 7h-8z"/><circle fill="#D53C25" cx="91" cy="40" r="4"/><path fill="#F26651" d="M103.657 50l5.657 5.657-5.657 5.657L98 55.657z"/><path fill="#E9E9E5" d="M39 48l-9 8 1 41 58 1 2-6-1-38-8-7v13L64 77l-3.5 2-4.5-3-17-15z"/><path fill="#E9E9E5" d="M40 54h41V28H40z"/><path fill="#2B2B2B" d="M46 61h28v-4H46zM51 67h17.999v-4H51z"/><path d="M88.013 93.082l-20.17-17.481 20.17-17.482v34.963zm-52.972 2.653L55.22 78.247l.856.741a5.98 5.98 0 0 0 3.928 1.455c1.405 0 2.81-.485 3.93-1.455l.855-.741 20.178 17.488H35.041zm-3.028-37.6l20.153 17.466-20.153 17.465V58.135zm59.965-3.388c.024-1-.116-1.022-.64-1.49L81.002 44v5.369l5.409 4.845-25.096 21.751a2.01 2.01 0 0 1-2.62 0L33.597 54.214l5.405-4.841v-5.37L28.67 53.257c-.537.48-.668.49-.668 1.49-.008.098.011 41.329.011 41.329a3.669 3.669 0 0 0 3.659 3.659h56.682a3.669 3.669 0 0 0 3.659-3.659l-.035-41.329z" fill="#2B2B2B"/><path d="M39 59h42V21H39v38z" stroke="#2B2B2B" stroke-width="4"/></g></svg>