<?xml version="1.0" encoding="utf-8"?>
<!-- Generator: Adobe Illustrator 25.4.1, SVG Export Plug-In . SVG Version: 6.00 Build 0)  -->
<svg version="1.1" id="Layer_1" xmlns="http://www.w3.org/2000/svg" xmlns:xlink="http://www.w3.org/1999/xlink" x="0px" y="0px"
	 viewBox="0 0 30 30" style="enable-background:new 0 0 30 30;" xml:space="preserve">
<style type="text/css">
	.st0{fill:#FFFFFF;}
</style>
<g>
	<path class="st0" d="M19.6,6.5c-1.9,0-3.7,1-4.6,2.7v0.1l-0.1-0.1c-0.9-1.7-2.6-2.7-4.6-2.7c-3,0-5.4,2.4-5.4,5.4
		c0,1.3,0.6,2.8,1.6,4c1.4,1.5,5.3,5,7,6.6c0.4,0.4,0.7,0.7,0.8,0.7l0.3,0.3c0.1,0.1,0.2,0.1,0.3,0.1c0.2,0,0.3-0.1,0.3-0.1l0.3-0.3
		c0,0,0.3-0.3,0.8-0.7c1.7-1.5,5.6-5,7-6.6c1-1.2,1.6-2.7,1.6-4C25,8.9,22.6,6.5,19.6,6.5z M22.8,15.2c-1.7,1.8-7.2,6.8-7.7,7.2H15
		h-0.1c-0.6-0.4-6-5.4-7.7-7.2c-0.4-0.5-1.4-1.7-1.4-3.3c0-2.5,2.1-4.5,4.5-4.5c1.9,0,3.7,1.3,4.2,3.1c0.1,0.1,0.2,0.2,0.4,0.2
		s0.4-0.1,0.4-0.2c0.5-1.8,2.3-3.1,4.2-3.1c2.5,0,4.5,2.1,4.5,4.5C24.2,13.4,23.2,14.7,22.8,15.2z"/>
</g>
</svg>
