<?xml version="1.0" encoding="utf-8"?>
<!-- Generator: Adobe Illustrator 27.2.0, SVG Export Plug-In . SVG Version: 6.00 Build 0)  -->
<svg version="1.1" id="Layer_1" xmlns="http://www.w3.org/2000/svg" xmlns:xlink="http://www.w3.org/1999/xlink" x="0px" y="0px"
	 viewBox="0 0 40 40" style="enable-background:new 0 0 40 40;" xml:space="preserve">
<style type="text/css">
	.st0{opacity:0.5;fill:#FFFFFF;}
	.st1{fill:#2E2E2E;}
</style>
<circle class="st0" cx="20" cy="20" r="19.5"/>
<g>
	<path class="st1" d="M20,1c10.5,0,19,8.5,19,19s-8.5,19-19,19S1,30.5,1,20S9.5,1,20,1 M20,0C9,0,0,9,0,20s9,20,20,20s20-9,20-20
		S31,0,20,0L20,0z"/>
</g>
<rect x="15" y="16" class="st1" width="10" height="1"/>
<g>
	<polygon class="st1" points="15.7,25.2 15,24.5 20,19.4 25,24.5 24.3,25.2 20,20.9 	"/>
</g>
</svg>
