<?xml version="1.0" encoding="utf-8"?>
<!-- Generator: Adobe Illustrator 27.2.0, SVG Export Plug-In . SVG Version: 6.00 Build 0)  -->
<svg version="1.1" id="Layer_1" xmlns="http://www.w3.org/2000/svg" xmlns:xlink="http://www.w3.org/1999/xlink" x="0px" y="0px"
	 viewBox="0 0 26 26" style="enable-background:new 0 0 26 26;" xml:space="preserve">
<g>
	<path d="M15.6,1c1.4,0,2.5,1.1,2.5,2.5S17,6,15.6,6s-2.5-1.1-2.5-2.5S14.2,1,15.6,1 M15.6,0c-1.9,0-3.5,1.6-3.5,3.5S13.7,7,15.6,7
		s3.5-1.6,3.5-3.5S17.5,0,15.6,0L15.6,0z"/>
	<g>
		<rect x="18.6" y="3" width="7.4" height="1"/>
		<rect y="3" width="12.6" height="1"/>
	</g>
</g>
<g>
	<path d="M8.6,10.5c1.4,0,2.5,1.1,2.5,2.5s-1.1,2.5-2.5,2.5S6.1,14.4,6.1,13S7.2,10.5,8.6,10.5 M8.6,9.5c-1.9,0-3.5,1.6-3.5,3.5
		s1.6,3.5,3.5,3.5s3.5-1.6,3.5-3.5S10.5,9.5,8.6,9.5L8.6,9.5z"/>
	<g>
		<rect y="12.5" width="5.7" height="1"/>
		<rect x="11.6" y="12.5" width="14.4" height="1"/>
	</g>
</g>
<g>
	<path d="M18.3,20c1.4,0,2.5,1.1,2.5,2.5S19.7,25,18.3,25s-2.5-1.1-2.5-2.5S17,20,18.3,20 M18.3,19c-1.9,0-3.5,1.6-3.5,3.5
		s1.6,3.5,3.5,3.5s3.5-1.6,3.5-3.5S20.3,19,18.3,19L18.3,19z"/>
	<g>
		<rect y="22" width="15.5" height="1"/>
		<rect x="21.1" y="22" width="4.9" height="1"/>
	</g>
</g>
</svg>
