<?xml version="1.0" encoding="utf-8"?>
<!-- Generator: Adobe Illustrator 27.5.0, SVG Export Plug-In . SVG Version: 6.00 Build 0)  -->
<svg version="1.1" id="Layer_1" xmlns="http://www.w3.org/2000/svg" xmlns:xlink="http://www.w3.org/1999/xlink" x="0px" y="0px"
	 viewBox="0 0 30 30" style="enable-background:new 0 0 30 30;" xml:space="preserve">
<style type="text/css">
	.st0{fill:#FFFFFF;}
</style>
<path class="st0" d="M18.6,10.4V8.6C18.6,6.6,17,5,15,5s-3.6,1.6-3.6,3.6v1.8H6.2v9.4c0,2.9,2.3,5.2,5.2,5.2h7.2
	c2.9,0,5.2-2.3,5.2-5.2v-9.4H18.6z M12.4,8.6C12.4,7.2,13.6,6,15,6s2.6,1.2,2.6,2.6v1.8h-5.2C12.4,10.4,12.4,8.6,12.4,8.6z
	 M22.8,19.8c0,2.3-1.9,4.2-4.2,4.2h-7.2c-2.3,0-4.2-1.9-4.2-4.2v-8.4h4.2v3.9h1v-3.9h5.2v3.9h1v-3.9h4.2V19.8z"/>
</svg>
