<?xml version="1.0" encoding="UTF-8"?>
<svg width="940px" height="710px" viewBox="0 0 940 710" version="1.1" xmlns="http://www.w3.org/2000/svg" xmlns:xlink="http://www.w3.org/1999/xlink">
    <!-- Generator: Sketch 53.2 (72643) - https://sketchapp.com -->
    <title>Experts</title>
    <desc>Created with Sketch.</desc>
    <defs>
        <path d="M1.376,294.448 C1.376,347.686 15.531,397.618 40.282,440.687 L40.282,440.687 L0.147,590.375 L150.252,550.128 C193.049,574.458 242.544,588.365 295.292,588.365 L295.292,588.365 C457.618,588.365 589.21,456.775 589.21,294.448 L589.21,294.448 C589.21,132.123 457.618,0.531 295.293,0.531 L295.293,0.531 C132.968,0.531 1.376,132.122 1.376,294.448 L1.376,294.448 Z" id="path-1"></path>
        <linearGradient x1="46.1864671%" y1="32.6017648%" x2="51.4413496%" y2="55.318914%" id="linearGradient-3">
            <stop stop-color="#F26651" offset="0%"></stop>
            <stop stop-color="#A51904" offset="100%"></stop>
        </linearGradient>
        <linearGradient x1="47.2801771%" y1="24.129387%" x2="57.8965034%" y2="53.8491849%" id="linearGradient-4">
            <stop stop-color="#F26651" offset="0%"></stop>
            <stop stop-color="#A91D08" offset="100%"></stop>
        </linearGradient>
    </defs>
    <g id="Experts" stroke="none" stroke-width="1" fill="none" fill-rule="evenodd">
        <g id="Group-22" transform="translate(119.000000, 58.000000)">
            <path d="M0.147,590.9222 L150.252,550.6752 C193.049,575.0042 242.544,588.9122 295.293,588.9122 C457.619,588.9122 589.21,457.3212 589.21,294.9952 C589.21,132.6702 457.619,1.0782 295.293,1.0782 C132.967,1.0782 1.376,132.6692 1.376,294.9942 C1.376,348.2332 15.531,398.1652 40.282,441.2342 L0.147,590.9222 Z" id="Fill-2" fill="#FFFFFF"></path>
            <g id="Group-16" transform="translate(0.000000, 0.547000)">
                <mask id="mask-2" fill="white">
                    <use xlink:href="#path-1"></use>
                </mask>
                <g id="Clip-5"></g>
                <polygon id="Fill-4" fill="#F16651" mask="url(#mask-2)" points="236.768 523.583 306.889 523.583 306.889 394.565 236.768 394.565"></polygon>
                <polygon id="Fill-6" fill="#A51904" mask="url(#mask-2)" points="325.455 523.583 423.924 523.583 423.924 267.002 325.455 267.002"></polygon>
                <path d="M233.6831,104.7521 C163.5661,104.7521 106.7251,161.5931 106.7251,231.7101 C106.7251,264.8651 119.4401,295.0481 140.2531,317.6601 C157.8351,341.2511 162.2321,373.4961 148.9231,402.0311 C144.2911,411.9641 137.9311,420.5341 130.3751,427.5701 C85.4321,460.9661 56.3081,514.4541 56.3081,574.7491 C56.3081,675.9561 138.3531,758.0001 239.5591,758.0001 L327.2131,400.4531 C336.0651,402.4071 360.6421,301.8271 360.6421,231.7101 C360.6421,161.5931 303.8001,104.7521 233.6831,104.7521 Z" id="Fill-7" fill="url(#linearGradient-3)" mask="url(#mask-2)"></path>
                <path d="M207.0151,662.0373 C152.0611,662.0373 107.5111,617.4873 107.5111,562.5323 C107.5111,507.5783 152.0611,463.0283 207.0151,463.0283 L400.2641,463.0283 L368.1631,620.0353 L207.0151,662.0373 Z" id="Fill-8" fill="#2B2B2B" mask="url(#mask-2)"></path>
                <path d="M373.2612,462.9084 L373.2612,462.8544 C373.2612,462.8734 373.2602,462.8904 373.2602,462.9084 L373.2612,462.9084 Z" id="Fill-9" fill="#E5A5A1" mask="url(#mask-2)"></path>
                <path d="M331.9067,419.5998 L331.8537,419.5698 C365.0027,405.4008 388.2317,372.4988 388.2317,334.1698 C388.2317,334.0828 388.2307,260.9208 388.2307,260.7358 C388.2307,209.4648 346.6677,167.9018 295.3957,167.9018 C244.1267,167.9018 202.5627,209.4658 202.5637,260.7368 L202.5637,334.1698 C202.5647,373.9438 227.5797,407.8688 262.7317,421.0868 C261.9457,444.2698 242.9177,462.8258 219.5437,462.8258 L220.2187,462.8258 C219.7907,462.8298 219.5437,462.8348 219.5437,462.8408 C219.5447,505.2888 253.9557,539.7008 296.4037,539.7008 C338.8287,539.7008 373.2237,505.3258 373.2607,462.9088 C373.2357,462.9088 373.2607,462.8258 373.2607,462.8258 L373.2607,462.8548 C373.2607,462.8498 373.2617,462.8448 373.2617,462.8408 L373.2617,462.8258 L375.1327,462.8258 C351.2597,462.8258 331.9067,443.4728 331.9067,419.5998" id="Fill-10" fill="#E5A5A1" mask="url(#mask-2)"></path>
                <path d="M346.5,297.453 C334.644592,297.453 325,287.584116 325,275.453 C325,263.321884 334.644592,253.453 346.5,253.453 C358.355408,253.453 368,263.321884 368,275.453 C368,287.584116 358.355408,297.453 346.5,297.453 M243.500552,297.453 C231.645448,297.453 222,287.584116 222,275.453 C222,263.321884 231.645448,253.453 243.500552,253.453 C255.354552,253.453 265,263.321884 265,275.453 C265,287.584116 255.354552,297.453 243.500552,297.453 M346.468513,233.453 C332.171426,233.453 319.537644,240.797434 312.063889,251.95126 C307.248531,248.485928 301.368035,246.438437 295.020569,246.438437 C288.659761,246.438437 282.769258,248.492674 277.948342,251.970374 C270.475698,240.805305 257.836357,233.453 243.531487,233.453 C220.629908,233.453 202,252.294195 202,275.453 C202,298.611805 220.629908,317.453 243.531487,317.453 C266.431954,317.453 285.062974,298.611805 285.062974,275.453 C285.062974,275.246115 285.050744,275.041478 285.047408,274.835717 C285.730075,269.880585 289.935035,266.050955 295.020569,266.050955 C300.02605,266.050955 304.18209,269.768147 304.957039,274.614214 C304.952592,274.894184 304.937026,275.171906 304.937026,275.453 C304.937026,298.611805 323.566934,317.453 346.468513,317.453 C369.370092,317.453 388,298.611805 388,275.453 C388,252.294195 369.370092,233.453 346.468513,233.453" id="Fill-11" fill="#F16651" mask="url(#mask-2)"></path>
                <path d="M508.1537,333.7853 C507.9257,333.6323 507.6867,333.4943 507.4347,333.3763 C493.6107,326.9363 481.5057,316.2783 473.1847,302.2283 C455.8577,272.9693 460.2267,236.8743 481.5067,212.6353 C481.5067,212.6353 458.7197,186.2833 458.7197,175.7903 C458.7197,126.4323 418.7067,86.4183 369.3467,86.4183 C319.9887,86.4183 279.9747,126.4323 279.9747,175.7903 C279.9747,215.5993 306.0057,249.3223 341.9697,260.8853 C379.5737,273.7103 406.6257,309.3243 406.6257,351.2693 C406.6257,379.9713 393.9587,405.7093 373.9147,423.2143 C325.5107,456.1973 293.7247,511.7593 293.7247,574.7493 C293.7247,675.9563 375.7687,758.0003 476.9757,758.0003 L476.9757,675.8923 C554.8417,654.7593 612.1147,583.5933 612.1147,499.0383 C612.1147,426.2343 569.6577,363.3493 508.1537,333.7853 Z" id="Fill-12" fill="url(#linearGradient-4)" mask="url(#mask-2)"></path>
                <path d="M256.8608,345.2072 C256.8618,366.4912 274.1148,383.7452 295.3968,383.7452 C316.6798,383.7452 333.9328,366.4912 333.9318,345.2072" id="Fill-13" fill="#FEFEFE" mask="url(#mask-2)"></path>
                <path d="M285.1392,318.6721 C285.1392,324.3371 289.7322,328.9301 295.3972,328.9301 C301.0622,328.9301 305.6552,324.3371 305.6542,318.6721" id="Fill-14" fill="#C35750" mask="url(#mask-2)"></path>
                <path d="M296.0171,397.6262 C285.7501,397.6262 276.9451,403.8782 273.1971,412.7812 C233.2831,406.6822 202.6091,372.1192 202.6091,330.5272 L202.5881,264.6152 C184.8161,264.6152 170.4101,279.0222 170.4101,296.7932 C170.4101,307.3552 175.4991,316.7292 183.3591,322.5952 L183.3591,330.5272 C183.3591,382.7892 222.6911,426.0322 273.3081,432.2232 C277.1151,440.9912 285.8481,447.1262 296.0171,447.1262 C309.6861,447.1262 320.7671,436.0452 320.7671,422.3762 C320.7671,408.7072 309.6861,397.6262 296.0171,397.6262" id="Fill-15" fill="#2B2B2B" mask="url(#mask-2)"></path>
            </g>
            <g id="Group-21" transform="translate(399.000000, 0.547000)">
                <path d="M302.853,302.5568 L282.217,225.5948 C294.692,203.6518 301.823,178.2738 301.823,151.2288 C301.823,68.0008 234.353,0.5318 151.124,0.5318 C67.897,0.5318 0.427,68.0008 0.427,151.2288 C0.427,234.4568 67.897,301.9268 151.124,301.9268 C178.421,301.9268 204.023,294.6688 226.104,281.9788 L302.853,302.5568 Z" id="Fill-17" fill="#2B2B2B"></path>
                <path d="M114.3521,109.217 L114.3521,141.228 L149.3321,141.228 L149.3321,109.217 L169.1691,109.217 L169.1691,192.363 L149.3321,192.363 L149.3321,159.58 L114.3521,159.58 L114.3521,192.363 L94.5151,192.363 L94.5151,109.217 L114.3521,109.217 Z M183.2441,192.363 L201.8341,192.363 L201.8341,134.101 L183.2441,134.101 L183.2441,192.363 Z M184.5511,108.207 C186.6901,106.069 189.3231,105 192.4511,105 C195.5791,105 198.2111,106.079 200.3491,108.237 C202.4881,110.395 203.5561,113.038 203.5561,116.166 C203.5561,119.294 202.4881,121.917 200.3491,124.035 C198.2111,126.153 195.5791,127.212 192.4511,127.212 C189.3231,127.212 186.6901,126.153 184.5511,124.035 C182.4141,121.917 181.3441,119.294 181.3441,116.166 C181.3441,112.998 182.4141,110.345 184.5511,108.207 L184.5511,108.207 Z" id="Fill-19" fill="#F26651"></path>
            </g>
        </g>
    </g>
</svg>