<?xml version="1.0" encoding="utf-8"?>
<!-- Generator: Adobe Illustrator 25.4.1, SVG Export Plug-In . SVG Version: 6.00 Build 0)  -->
<svg version="1.1" id="Layer_1" xmlns="http://www.w3.org/2000/svg" xmlns:xlink="http://www.w3.org/1999/xlink" x="0px" y="0px"
	 viewBox="0 0 30 30" style="enable-background:new 0 0 30 30;" xml:space="preserve">
<style type="text/css">
	.st0{fill:#FFFFFF;}
</style>
<g>
	<g>
		<path class="st0" d="M15,15.1c-2.8,0-5-2.3-5-5s2.3-5,5-5s5,2.3,5,5S17.8,15.1,15,15.1z M15,6c-2.2,0-4,1.7-4,4c0,2.2,1.7,4,4,4
			c2.2,0,4-1.7,4-4S17.2,6,15,6z"/>
	</g>
	<g>
		<path class="st0" d="M25.7,25H4.3v-4c0-2.4,5.3-3.5,10.7-3.5s10.7,1.2,10.7,3.5V25z M5.4,24h19.4v-3c0-1-3.7-2.6-9.6-2.6
			S5.5,19.9,5.5,21L5.4,24L5.4,24z"/>
	</g>
</g>
</svg>
