<?xml version="1.0" encoding="utf-8"?>
<!-- Generator: Adobe Illustrator 27.0.0, SVG Export Plug-In . SVG Version: 6.00 Build 0)  -->
<svg version="1.1" xmlns="http://www.w3.org/2000/svg" xmlns:xlink="http://www.w3.org/1999/xlink" x="0px" y="0px"
	 viewBox="0 0 400.58 117.97" style="enable-background:new 0 0 400.58 117.97;" xml:space="preserve">
<style type="text/css">
	.st0{fill:none;stroke:#E30613;stroke-width:2;stroke-linecap:round;stroke-linejoin:round;stroke-miterlimit:10;}
	.st1{fill:#E30613;}
	.st2{fill:none;stroke:#E30613;stroke-width:2;stroke-miterlimit:10;}
	.st3{fill:#FDFDFD;}
</style>
<g id="Layer_1">
</g>
<g id="Layer_2">
	<g>
		<path d="M103.73,103.08c0-2.11,0.1-8.37,0.29-18.76c0.19-10.39,0.29-17.83,0.29-22.31c0-12.82-2.6-22.59-7.79-29.31
			c-5.19-6.72-12.21-10.08-21.83-10.08c-15.14,0-27.72,7.09-32.98,21.28c0-10.93-7.86-19.79-18.79-19.79H0v0.37l9.43,9.33
			c1.15,1.25,1.73,2.8,1.73,4.67v64.59c0,1.99-0.58,3.49-1.73,4.48L0,116.15v0.37h53.87v-0.37l-10.43-8.59
			c-1.15-0.99-1.73-2.49-1.73-4.48V46.34c3.85-5.47,11.81-8.21,17.46-8.21c5.64,0,9.27,2.36,11.32,7.09
			c2.05,4.73,3.08,11.76,3.08,21.09c0,3.49-0.1,10.43-0.29,20.81c-0.19,10.39-0.29,15.77-0.29,16.15c0,1.74-0.58,3.17-1.73,4.29
			l-9.23,8.59v0.37h53.06v-0.37l-9.62-8.59C104.31,106.44,103.73,104.95,103.73,103.08z"/>
		<path d="M189.26,31.03c-4.04-2.86-8.35-4.97-12.94-6.34c-4.59-1.37-9.5-2.05-14.71-2.05c-13.53,0-24.7,3.98-33.52,11.94
			c-8.82,7.96-13.22,20.09-13.22,36.38c0,15.42,4.4,27.12,13.22,35.08c8.81,7.96,19.61,11.94,32.4,11.94
			c22.72,0,36.43-11.5,41.15-34.52h-0.37c-5.71,11.45-15.15,17.17-28.3,17.17c-7.82,0-14.22-2.83-19.18-8.49
			c-4.97-5.66-7.45-14.21-7.45-25.65V66.1h55.86c0.12-1.49,0.19-2.86,0.19-4.1c0-7.21-1.18-13.46-3.54-18.75
			C196.49,37.96,193.29,33.89,189.26,31.03z M173.71,62.75h-27.37c0.12-13.06,1.43-22.42,3.91-28.08c2.48-5.66,6.14-8.49,10.99-8.49
			c4.1,0,7.23,2.27,9.4,6.81c2.17,4.54,3.26,12.59,3.26,24.16C173.9,59.27,173.83,61.13,173.71,62.75z"/>
		<path d="M263.07,61.25l-12.18-5.22c-6.22-2.73-10.69-5.29-13.42-7.65c-2.73-2.36-4.09-5.47-4.09-9.33c0-4.23,1.46-7.46,4.38-9.7
			c2.92-2.24,6.74-3.15,11.18-3.15c0,0,2.16-0.01,3.66,0.27c4.02,0.76,7.69,3.99,10.17,9.33c1.28,2.76,6.79,19.04,6.79,19.04h0.38
			l10.66-27.05c-11.16-3.36-21.21-5.16-32.38-5.16c-12.05,0-21.57,2.68-28.54,8.02c-6.98,5.35-10.47,12.5-10.47,21.46
			c0,11.94,6.15,20.78,18.46,26.5l12.94,5.97c6.32,2.82,9.92,5.19,13.03,7.71c2.6,2.12,4.43,5.13,4.43,8.74
			c0,4.11-1.62,7.4-4.85,9.89c-3.24,2.49-6.78,3.71-12.23,3.71h-4.38c-0.48,0-8.8-1.07-13.24-11.9c-3.16-7.72-5.98-19.45-5.98-19.45
			h-0.38l-10.47,28.92c11.16,3.86,22.83,5.78,35.01,5.78c12.94,0,23.28-2.71,31.02-8.12c7.74-5.41,11.61-13.03,11.61-22.86
			c0-6.59-1.81-11.82-5.42-15.67C275.16,67.47,269.92,64.12,263.07,61.25z"/>
		<path d="M336.47,103.17c-3.06,0-5.66-1.54-7.37-3.78c-1.71-2.23-2.35-4.32-2.35-8.43V31.83h15.32l2.22-6.91h-17.54V0h-0.37
			c0,0-11.4,14.91-19.92,20.18c-9.75,6.03-12.43,6.33-14.65,6.65c-2.38,0.34-5.06,0.27-5.06,2.8v2.18h10.09v61.31
			c0,16.56,7.95,24.84,23.85,24.84c8.07,0,16.55-0.65,22.6-6.64c4.19-4.15,7.06-8.88,8.16-14.68l-0.37-0.18
			C348.66,100.94,341.12,103.17,336.47,103.17z"/>
		<path d="M399.43,90.23h0.02l-4.93-17.41l4.31-7.84h-6.86c-2.35-4.4-6.98-7.41-12.32-7.41c-6.52,0-11.99,4.47-13.53,10.52h0
			l-6.27,22.13h0.02c-0.74,2.14-1.15,4.42-1.15,6.81c0,11.56,9.37,20.93,20.93,20.93s20.93-9.37,20.93-20.93
			C400.58,94.65,400.16,92.37,399.43,90.23z M379.65,75.55c-2.43,0-4.4-1.97-4.4-4.4s1.97-4.4,4.4-4.4c2.43,0,4.4,1.97,4.4,4.4
			S382.08,75.55,379.65,75.55z"/>
	</g>
</g>
</svg>
