<?xml version="1.0" encoding="utf-8"?>
<!-- Generator: Adobe Illustrator 27.3.1, SVG Export Plug-In . SVG Version: 6.00 Build 0)  -->
<svg version="1.1" id="Layer_1" xmlns="http://www.w3.org/2000/svg" xmlns:xlink="http://www.w3.org/1999/xlink" x="0px" y="0px"
	 viewBox="0 0 400.6 118" style="enable-background:new 0 0 400.6 118;" xml:space="preserve">
<style type="text/css">
	.st0{fill:#FFFFFF;}
</style>
<g id="Layer_1_00000079446643211839305050000012223685828431155086_">
</g>
<g id="Layer_2_00000118371652305113930100000013192879716787475112_">
	<g>
		<path class="st0" d="M103.7,103.1c0-2.1,0.1-8.4,0.3-18.8s0.3-17.8,0.3-22.3c0-12.8-2.6-22.6-7.8-29.3S84.3,22.6,74.7,22.6
			c-15.1,0-27.7,7.1-33,21.3c0-10.9-7.9-19.8-18.8-19.8H0v0.4l9.4,9.3c1.1,1.2,1.7,2.8,1.7,4.7v64.6c0,2-0.6,3.5-1.7,4.5L0,116.2
			v0.4h53.9v-0.4l-10.4-8.6c-1.2-1-1.7-2.5-1.7-4.5V46.3c3.8-5.5,11.8-8.2,17.5-8.2c5.6,0,9.3,2.4,11.3,7.1
			c2.1,4.7,3.1,11.8,3.1,21.1c0,3.5-0.1,10.4-0.3,20.8c-0.2,10.4-0.3,15.8-0.3,16.2c0,1.7-0.6,3.2-1.7,4.3l-9.2,8.6v0.4h53.1v-0.4
			l-9.6-8.6C104.3,106.4,103.7,104.9,103.7,103.1z"/>
		<path class="st0" d="M189.3,31c-4-2.9-8.4-5-12.9-6.3s-9.5-2-14.7-2c-13.5,0-24.7,4-33.5,11.9S114.9,54.7,114.9,71
			c0,15.4,4.4,27.1,13.2,35.1c8.8,8,19.6,11.9,32.4,11.9c22.7,0,36.4-11.5,41.1-34.5h-0.4c-5.7,11.4-15.1,17.2-28.3,17.2
			c-7.8,0-14.2-2.8-19.2-8.5c-5-5.7-7.4-14.2-7.4-25.7v-0.4h55.9c0.1-1.5,0.2-2.9,0.2-4.1c0-7.2-1.2-13.5-3.5-18.8
			C196.5,38,193.3,33.9,189.3,31z M173.7,62.8h-27.4c0.1-13.1,1.4-22.4,3.9-28.1c2.5-5.7,6.1-8.5,11-8.5c4.1,0,7.2,2.3,9.4,6.8
			s3.3,12.6,3.3,24.2C173.9,59.3,173.8,61.1,173.7,62.8z"/>
		<path class="st0" d="M263.1,61.2L250.9,56c-6.2-2.7-10.7-5.3-13.4-7.7s-4.1-5.5-4.1-9.3c0-4.2,1.5-7.5,4.4-9.7s6.7-3.1,11.2-3.1
			c0,0,2.2,0,3.7,0.3c4,0.8,7.7,4,10.2,9.3c1.3,2.8,6.8,19,6.8,19h0.4l10.7-27c-11.2-3.4-21.2-5.2-32.4-5.2c-12.1,0-21.6,2.7-28.5,8
			c-7,5.3-10.5,12.5-10.5,21.5c0,11.9,6.1,20.8,18.5,26.5l12.9,6c6.3,2.8,9.9,5.2,13,7.7c2.6,2.1,4.4,5.1,4.4,8.7
			c0,4.1-1.6,7.4-4.9,9.9c-3.2,2.5-6.8,3.7-12.2,3.7h-4.4c-0.5,0-8.8-1.1-13.2-11.9c-3.2-7.7-6-19.4-6-19.4H217l-10.5,28.9
			c11.2,3.9,22.8,5.8,35,5.8c12.9,0,23.3-2.7,31-8.1c7.7-5.4,11.6-13,11.6-22.9c0-6.6-1.8-11.8-5.4-15.7
			C275.2,67.5,269.9,64.1,263.1,61.2z"/>
		<path class="st0" d="M336.5,103.2c-3.1,0-5.7-1.5-7.4-3.8c-1.7-2.2-2.4-4.3-2.4-8.4V31.8h15.3l2.2-6.9h-17.5V0h-0.4
			c0,0-11.4,14.9-19.9,20.2c-9.8,6-12.4,6.3-14.6,6.6c-2.4,0.3-5.1,0.3-5.1,2.8v2.2h10.1v61.3c0,16.6,8,24.8,23.9,24.8
			c8.1,0,16.5-0.7,22.6-6.6c4.2-4.2,7.1-8.9,8.2-14.7l-0.4-0.2C348.7,100.9,341.1,103.2,336.5,103.2z"/>
		<path class="st0" d="M399.4,90.2L399.4,90.2l-4.9-17.4l4.3-7.8H392c-2.4-4.4-7-7.4-12.3-7.4c-6.5,0-12,4.5-13.5,10.5l0,0
			l-6.3,22.1h0c-0.7,2.1-1.1,4.4-1.1,6.8c0,11.6,9.4,20.9,20.9,20.9s20.9-9.4,20.9-20.9C400.6,94.7,400.2,92.4,399.4,90.2z
			 M379.6,75.6c-2.4,0-4.4-2-4.4-4.4s2-4.4,4.4-4.4s4.4,2,4.4,4.4S382.1,75.6,379.6,75.6z"/>
	</g>
</g>
</svg>
