<?xml version="1.0" encoding="utf-8"?>
<!-- Generator: Adobe Illustrator 27.2.0, SVG Export Plug-In . SVG Version: 6.00 Build 0)  -->
<svg version="1.1" id="Layer_1" xmlns="http://www.w3.org/2000/svg" xmlns:xlink="http://www.w3.org/1999/xlink" x="0px" y="0px"
	 viewBox="0 0 65 65" style="enable-background:new 0 0 65 65;" xml:space="preserve">
<style type="text/css">
	.st0{fill:#2E2E2E;}
</style>
<path class="st0" d="M61.6,34h-32c-0.3-2.6-0.5-4.4-0.6-5.3c-0.3-2.5-1.2-4.1-2-5.1c0,0,0,0,0.1,0c2.1,0,3.7-1.6,3.7-3.6
	c0-2-1.7-3.6-3.8-3.6c0,0-0.1,0-0.1,0c-2,0.2-4.1,0.4-6.2,0.5v-4.7h1.4c2.8,0,5.2-2.3,5.2-5.2c0-2.8-2.3-5.2-5.2-5.2h-9.6
	C9.7,1.8,7.4,4.2,7.4,7s2.3,5.2,5.2,5.2h1.4v4.7c-2.1-0.1-4.1-0.2-6.2-0.5c0,0-0.1,0-0.1,0c-2.1,0-3.8,1.6-3.8,3.6
	c0,2,1.7,3.6,3.7,3.6c0,0,0.1,0,0.1,0c-0.8,1-1.7,2.6-2,5.1C5,33.5,2.5,60.9,2.4,62.1c0,0.5,0.3,1,0.9,1.1c0,0,0.1,0,0.1,0
	c0.5,0,0.9-0.4,1-0.9c0-0.1,0.6-6.7,1.3-14h12l-2.6,10.4c-0.4,1.4,0.4,2.9,1.8,3.4c0.3,0.1,0.5,0.1,0.8,0.1c1.1,0,2.2-0.7,2.6-1.8
	l4.1-12H29c0.7,7.4,1.3,14,1.3,14l2-0.2c0,0-1-10.6-1.9-19.9h17.8l6.2,18.1c0.4,1.1,1.5,1.8,2.6,1.8c0.3,0,0.5,0,0.8-0.1
	c1.4-0.5,2.2-2,1.8-3.3l-4.2-16.5h2c2.8,0,5.1-2.3,5.1-5.1v-2.1C62.6,34.4,62.2,34,61.6,34z M9.4,7c0-1.7,1.4-3.2,3.2-3.2h9.6
	c1.7,0,3.2,1.4,3.2,3.2s-1.4,3.2-3.2,3.2h-9.6C10.8,10.2,9.4,8.7,9.4,7z M15.9,12.2h2.8v4.7c-0.5,0-0.9,0-1.4,0c0,0,0,0,0,0
	c-0.5,0-0.9,0-1.4,0C15.9,16.9,15.9,12.2,15.9,12.2z M5.8,20c0-0.9,0.8-1.6,1.8-1.6c3.2,0.4,6.5,0.5,9.7,0.5c0,0,0,0,0,0
	c0.8,0,1.6,0,2.4,0l0,0l0,0c2.5-0.1,4.9-0.2,7.3-0.5c1,0,1.8,0.8,1.8,1.6c0,0.9-0.8,1.6-1.8,1.6c0,0-0.1,0-0.1,0
	c-3.2,0.5-6.5,0.7-9.8,0.7c-3.1,0-6.2-0.2-9.3-0.7c-0.1,0-0.1,0-0.1,0C6.7,21.6,5.8,20.9,5.8,20z M5.9,46.3
	C6.6,38.9,7.3,31.2,7.6,29c0.5-3.5,2.1-4.7,2.6-5c2.3,0.2,4.6,0.4,6.8,0.4c0.1,0,0.2,0,0.2,0c2.4,0,4.7-0.1,7.1-0.4
	c0.5,0.3,2.1,1.6,2.6,5c0.1,0.9,0.3,2.5,0.6,5H13.1c-0.6,0-1,0.5-1,1v2.1c0,2.8,2.3,5.1,5.1,5.1h2l-1,4.1L5.9,46.3L5.9,46.3z
	 M18.4,59.7c-0.1,0.4-0.5,0.6-0.9,0.5c-0.4-0.1-0.6-0.5-0.5-1l4.3-17h3.1L18.4,59.7z M28.8,46.3h-3.7l1.4-4.1h1.9
	C28.5,43.5,28.6,44.9,28.8,46.3z M57.7,59.2c0.1,0.4-0.1,0.8-0.5,0.9c-0.4,0.1-0.8-0.1-0.9-0.5l-6-17.5h3.1L57.7,59.2z M60.6,37
	c0,1.7-1.4,3.1-3.1,3.1H17.2c-1.7,0-3.1-1.4-3.1-3.1V36h46.5V37z"/>
</svg>
