<?xml version="1.0" encoding="utf-8"?>
<!-- Generator: Adobe Illustrator 27.2.0, SVG Export Plug-In . SVG Version: 6.00 Build 0)  -->
<svg version="1.1" id="Layer_1" xmlns="http://www.w3.org/2000/svg" xmlns:xlink="http://www.w3.org/1999/xlink" x="0px" y="0px"
	 viewBox="0 0 65 65" style="enable-background:new 0 0 65 65;" xml:space="preserve">
<style type="text/css">
	.st0{fill:#2E2E2E;}
</style>
<path class="st0" d="M60.4,44.5c-1.9-2.7-4.1-5-6.7-7.1c-2.4-1.9-5.4-3-8.5-3h-5.5c1.8-2.1,3.8-4,6.2-5.6c0.8-0.5,1.1-1.5,0.8-2.4
	c-0.3-0.9-1.2-1.6-2.2-1.6H38v-3.3c0-2-1.6-3.6-3.6-3.6h-0.9V4.6c0-0.6-0.5-1-1-1s-1,0.4-1,1V18h-1c-2,0-3.6,1.6-3.6,3.6v3.3h-6.5
	c-1,0-1.9,0.6-2.2,1.6c-0.3,0.9,0.1,1.8,0.9,2.4c2.4,1.6,4.4,3.5,6.2,5.6h-5.5c-3,0-6.1,1-8.4,3c-2.6,2-4.8,4.4-6.7,7.1
	C4,45.3,4,46.3,4.4,47.1c0.4,0.8,1.3,1.4,2.2,1.4h13.4c-0.1,0.1-0.2,0.2-0.3,0.2c-1.5,1.5-2.8,3.2-3.9,5.1c-0.4,0.7-0.4,1.5,0,2.2
	c0.3,0.6,0.9,1,1.6,1h5.2l0.8,2.6c0.3,1.1,1.6,1.8,3.2,1.8h11.8c1.6,0,2.9-0.7,3.2-1.8l0.8-2.6h5.2c0.7,0,1.2-0.4,1.6-1
	c0.4-0.7,0.4-1.5,0-2.2c-1.1-1.9-2.4-3.7-4-5.1c-0.1-0.1-0.2-0.2-0.3-0.2h13.4c1,0,1.8-0.5,2.2-1.4C61,46.2,61,45.3,60.4,44.5z
	 M29,21.6c0-0.9,0.7-1.6,1.6-1.6h3.9c0.9,0,1.6,0.7,1.6,1.6v3.3h-7.1L29,21.6L29,21.6z M20.2,27.2c-0.1-0.1-0.1-0.1-0.1-0.1
	c0-0.1,0.1-0.1,0.3-0.1H28h9.1h7.5c0.2,0,0.3,0.1,0.3,0.1c0,0,0,0-0.1,0.1c-3,2-5.5,4.5-7.6,7.3h-9.4C25.7,31.7,23.2,29.2,20.2,27.2
	z M39.7,59c-0.1,0.1-0.5,0.4-1.3,0.4H26.6c-0.8,0-1.2-0.3-1.3-0.4L24.8,57h15.5L39.7,59z M43.8,50.1c1.4,1.3,2.6,2.9,3.6,4.7
	c0,0.1,0,0.1,0,0.2h-5.8H23.4h-5.8c0,0,0-0.1,0-0.2c1-1.8,2.2-3.3,3.6-4.7c1.1-1.1,2.5-1.7,3.9-1.7H40C41.3,48.5,42.7,49,43.8,50.1z
	 M58.8,46.2c0,0.1-0.2,0.3-0.5,0.3H39.9H25.1H6.7c-0.3,0-0.4-0.2-0.5-0.3c-0.1-0.1-0.1-0.3,0-0.5c1.8-2.5,3.9-4.8,6.3-6.7
	c2.1-1.6,4.6-2.5,7.2-2.5h7.6h10.4h7.6c2.6,0,5.2,0.9,7.2,2.5c2.4,1.9,4.5,4.2,6.3,6.7l0,0C58.9,45.9,58.9,46.1,58.8,46.2z"/>
</svg>
