<?xml version="1.0" encoding="utf-8"?>
<!-- Generator: Adobe Illustrator 27.2.0, SVG Export Plug-In . SVG Version: 6.00 Build 0)  -->
<svg version="1.1" id="Layer_1" xmlns="http://www.w3.org/2000/svg" xmlns:xlink="http://www.w3.org/1999/xlink" x="0px" y="0px"
	 viewBox="0 0 65 65" style="enable-background:new 0 0 65 65;" xml:space="preserve">
<style type="text/css">
	.st0{fill:#2E2E2E;}
</style>
<path class="st0" d="M37.3,7.9C37,5.4,35,3.5,32.5,3.5S28,5.4,27.7,7.9c-10,2.2-17.5,11.1-17.5,21.7c0,0.5,0.4,1,1,1h15.3
	c1.3,2.9,2,7.2,1.9,11.6c-0.2,10.5-4.3,12.2-8.7,14.1c-0.8,0.3-1.5,0.6-2.3,1c-0.9,0.4-1.4,1.3-1.1,2.3c0.3,1.1,1.3,1.9,2.6,1.9
	h27.2c1.2,0,2.3-0.8,2.6-1.9c0.2-1-0.2-1.8-1.1-2.3c-0.8-0.4-1.5-0.7-2.3-1c-4.4-1.8-8.5-3.5-8.7-14.1c-0.1-4.4,0.6-8.7,1.9-11.6
	h15.3c0.5,0,1-0.5,1-1C54.7,19,47.2,10.1,37.3,7.9z M32.5,5.5c1.3,0,2.3,0.8,2.7,2c-0.9-0.1-1.8-0.2-2.7-0.2s-1.8,0.1-2.7,0.2
	C30.2,6.4,31.2,5.5,32.5,5.5z M44.5,58.1c0.8,0.3,1.5,0.6,2.2,1l0.1,0c0,0,0,0.1-0.1,0.2c-0.1,0.1-0.2,0.2-0.5,0.2H18.9
	c-0.3,0-0.4-0.1-0.5-0.2c-0.1-0.1-0.1-0.2,0-0.2c0.7-0.3,1.4-0.6,2.2-1c4.6-1.9,9.7-4.1,9.9-15.9c0.1-4.4-0.5-8.5-1.7-11.6h7.5
	c-1.2,3.1-1.8,7.3-1.7,11.6C34.8,54,39.9,56.2,44.5,58.1z M37.8,28.6H27.3h-15c0.5-10.7,9.4-19.2,20.2-19.2s19.7,8.5,20.2,19.2H37.8
	z"/>
</svg>
