<?xml version="1.0" encoding="utf-8"?>
<!-- Generator: Adobe Illustrator 27.2.0, SVG Export Plug-In . SVG Version: 6.00 Build 0)  -->
<svg version="1.1" id="Layer_1" xmlns="http://www.w3.org/2000/svg" xmlns:xlink="http://www.w3.org/1999/xlink" x="0px" y="0px"
	 viewBox="0 0 65 65" style="enable-background:new 0 0 65 65;" xml:space="preserve">
<style type="text/css">
	.st0{fill:#2E2E2E;}
</style>
<g>
	<path class="st0" d="M12.2,50.2c0.7,0,1.3-0.6,1.3-1.3s-0.6-1.3-1.3-1.3c-0.7,0-1.3,0.6-1.3,1.3S11.5,50.2,12.2,50.2z"/>
	<path class="st0" d="M51.5,16.8C49,8.7,41.2,3.1,32,3.1c-11.5,0-20.8,8.3-20.8,18.5v22.8H8.7c-0.6,0-1,0.5-1,1v15.5
		c0,0.5,0.4,1,1,1H17c0.5,0,1-0.5,1-1V45.4c0-0.5-0.5-1-1-1h-3.8V21.6c0-9.1,8.4-16.5,18.8-16.5c8.1,0,15.2,4.9,17.5,12
		c-2.4,0.8-4.2,3-4.2,5.8c0,0.4,0,0.8,0.1,1.2c0.1,0.5,0.5,0.8,1,0.8h9.8c0.5,0,0.9-0.3,1-0.8c0.1-0.4,0.1-0.8,0.1-1.2
		C57.3,19.6,54.7,17,51.5,16.8z M16,46.4v13.5H9.7V46.4H16z M55.3,22.9h-8c0,0,0,0,0,0c0-2.2,1.8-4,4-4S55.3,20.6,55.3,22.9
		C55.3,22.9,55.3,22.9,55.3,22.9z"/>
</g>
</svg>
