<?xml version="1.0" encoding="utf-8"?>
<!-- Generator: Adobe Illustrator 27.2.0, SVG Export Plug-In . SVG Version: 6.00 Build 0)  -->
<svg version="1.1" id="Layer_1" xmlns="http://www.w3.org/2000/svg" xmlns:xlink="http://www.w3.org/1999/xlink" x="0px" y="0px"
	 viewBox="0 0 65 65" style="enable-background:new 0 0 65 65;" xml:space="preserve">
<style type="text/css">
	.st0{fill:#2E2E2E;}
</style>
<path class="st0" d="M56,24.2L28.8,11.9l1.5-3.6c0.4-1.1-0.1-2.3-1.2-2.8l-4.2-1.7c-0.5-0.2-1.1-0.2-1.6,0c-0.5,0.2-0.9,0.6-1.1,1.2
	l-3,7.5c-0.5,1.2-1.5,2.2-2.8,2.4c-3.5,0.8-6.4,3.3-7.7,6.6c-0.2,0.5,0,1.1,0.6,1.3l18.6,7.5c0.1,0,0.2,0.1,0.4,0.1
	c0.4,0,0.8-0.2,0.9-0.6c1.4-3.5,1-7.4-1.2-10.5c-0.8-1.1-0.9-2.5-0.4-3.8l0.7-1.7l19.9,9l-21,16.6c-0.4,0.3-0.5,0.9-0.2,1.3l3.2,5
	H29c-0.5,0-1,0.5-1,1v7.4h-2.7c-3.5,0-6.3,2.8-6.3,6.3c0,0.5,0.5,1,1,1h23.4c0.5,0,1-0.5,1-1c0-3.5-2.8-6.3-6.3-6.3h-2.7v-7.4
	c0-0.5-0.5-1-1-1H34v-4.2l22.2-15.5c0.3-0.2,0.5-0.5,0.4-0.9C56.5,24.7,56.3,24.4,56,24.2z M27.4,28.1l-16.6-6.7
	c1.2-2.3,3.4-3.9,5.9-4.5c1.9-0.4,3.4-1.8,4.2-3.6l3-7.5c0-0.1,0.1-0.1,0.2-0.1l4.2,1.7c0.1,0,0.1,0.1,0.1,0.2L26.6,12l0,0l0,0
	l-1.1,2.7c-0.8,1.9-0.5,4.1,0.6,5.7C27.7,22.7,28.2,25.5,27.4,28.1z M30.5,39l1.1,1.6L31.1,41c-0.3,0.2-0.4,0.5-0.4,0.8v1.4
	l-1.8-2.9L30.5,39z M42.3,59.4H21.1c0.5-1.9,2.1-3.3,4.2-3.3H29h5.4h3.7C40.1,56.1,41.8,57.5,42.3,59.4z M30,54.1v-6.4h3.4v6.4H30z
	 M33.2,39.5l-1.2-1.7L50,23.7l3.5,1.6L33.2,39.5z"/>
</svg>
