<?xml version="1.0" encoding="utf-8"?>
<!-- Generator: Adobe Illustrator 27.4.0, SVG Export Plug-In . SVG Version: 6.00 Build 0)  -->
<svg version="1.1" id="Layer_1" xmlns="http://www.w3.org/2000/svg" xmlns:xlink="http://www.w3.org/1999/xlink" x="0px" y="0px"
	 viewBox="0 0 65 65" style="enable-background:new 0 0 65 65;" xml:space="preserve">
<style type="text/css">
	.st0{fill:#2E2E2E;}
</style>
<path class="st0" d="M58.8,32.4h-2.2l-0.3-7.2c-0.1-2.4-2-4.2-4.4-4.2H13.1c-2.4,0-4.3,1.9-4.4,4.2l-0.3,7.2H6.2
	c-1.9,0-3.5,1.6-3.5,3.5v11.8c0,1.9,1.6,3.5,3.5,3.5h1.6C8,52,8.3,52.8,8.9,53.4c0.8,0.9,1.9,1.3,3.1,1.3h2.8l-1.4,4
	c-0.5,1.6,0.4,3.3,2,3.8c0.3,0.1,0.6,0.2,1,0.2c1.3,0,2.4-0.8,2.9-2l2.4-5.9h21.4l2.4,5.9c0.5,1.3,1.6,2.1,2.9,2.1
	c0.3,0,0.6,0,1-0.2c1.6-0.5,2.5-2.2,2-3.8l-1.3-3.9h2.8c1.2,0,2.3-0.5,3.2-1.3c0.6-0.6,1-1.4,1.1-2.2h1.6c1.9,0,3.5-1.6,3.5-3.5v-12
	C62.3,33.9,60.7,32.4,58.8,32.4z M9.8,47.4l0.3-7.9h21.4v7.9H9.8z M33.5,39.6h21.3l0.3,7.9H33.5V39.6z M54.3,25.2l0.5,12.3H33.5
	V22.9h18.4C53.2,22.9,54.2,23.9,54.3,25.2z M13.1,22.9h18.4v14.6H10.2l0.5-12.3C10.8,23.9,11.8,22.9,13.1,22.9z M4.7,47.7V35.9
	c0-0.8,0.7-1.5,1.5-1.5h2.2l-0.2,4.1v0.1c0,0,0,0,0,0.1l-0.4,9.8l0,0l0,0v0.8H6.2C5.4,49.2,4.7,48.5,4.7,47.7z M17.5,59.9
	c-0.2,0.6-0.8,0.9-1.4,0.7s-0.9-0.8-0.7-1.3l1.6-4.6h2.7L17.5,59.9z M49.6,59.3c0.2,0.6-0.2,1.2-0.7,1.3c-0.6,0.2-1.2-0.1-1.4-0.7
	l-2.1-5.2H48L49.6,59.3z M54.6,52c-0.5,0.5-1.1,0.7-1.7,0.7H12.1c-0.6,0-1.3-0.3-1.7-0.7s-0.7-1.1-0.7-1.7v-0.8h45.5v0.8
	C55.3,50.9,55.1,51.5,54.6,52z M60.3,47.7c0,0.8-0.7,1.5-1.5,1.5h-1.6v-0.8l0,0l0,0l-0.6-14h2.2c0.8,0,1.5,0.7,1.5,1.5
	C60.3,35.9,60.3,47.7,60.3,47.7z"/>
</svg>
