<?xml version="1.0" encoding="utf-8"?>
<!-- Generator: Adobe Illustrator 27.2.0, SVG Export Plug-In . SVG Version: 6.00 Build 0)  -->
<svg version="1.1" id="Layer_1" xmlns="http://www.w3.org/2000/svg" xmlns:xlink="http://www.w3.org/1999/xlink" x="0px" y="0px"
	 viewBox="0 0 65 65" style="enable-background:new 0 0 65 65;" xml:space="preserve">
<style type="text/css">
	.st0{fill:#2E2E2E;}
</style>
<g>
	<path class="st0" d="M25.1,11.1c0-0.7-0.6-1.3-1.3-1.3s-1.3,0.6-1.3,1.3s0.6,1.3,1.3,1.3S25.1,11.8,25.1,11.1z"/>
	<path class="st0" d="M23.9,29.8c0.7,0,1.3-0.6,1.3-1.3s-0.6-1.3-1.3-1.3s-1.3,0.6-1.3,1.3S23.2,29.8,23.9,29.8z"/>
	<path class="st0" d="M41.1,12.3c0.7,0,1.3-0.6,1.3-1.3s-0.6-1.3-1.3-1.3s-1.3,0.6-1.3,1.3S40.4,12.3,41.1,12.3z"/>
	<path class="st0" d="M41.1,29.8c0.7,0,1.3-0.6,1.3-1.3s-0.6-1.3-1.3-1.3s-1.3,0.6-1.3,1.3S40.4,29.8,41.1,29.8z"/>
	<path class="st0" d="M57.6,23.1c-2.1-0.1-4,1-5.3,2.1c-0.3-2.1-2.1-3.7-4.3-3.7h-5.9v-2.9h4.6c2.4,0,4.4-2,4.4-4.4V9.7
		c0-4.1-3.3-7.4-7.4-7.4H21.3c-4.1,0-7.4,3.3-7.4,7.4v4.4c0,2.4,2,4.4,4.4,4.4h4.6v2.9H17c-2.2,0-4,1.6-4.3,3.7
		c-1.3-1.1-3.2-2.2-5.3-2.1c-2.1,0.1-3.7,1.8-3.7,3.8c0,2.2,2,4.2,4.2,4.2c1.5,0,3,0.3,4.2,0.6c0.6,0.1,1.2,0.2,1.7,0.3
		c0.1,0.1,0.1,0.2,0.2,0.3h-0.5c-1.3,0-2.5,0.7-3.2,1.8c-0.7,1.1-0.8,2.5-0.2,3.7l4.6,9.9c0.9,1.8,2.7,3,4.8,3h9.8v0.4l-16.8,5.2
		c-0.4,0.1-0.7,0.5-0.7,1v2.4h-1.5v3h5v-3h-1.5V58l18.2-5.6l0,0v7.3h-1.5v3h5v-3h-1.5v-7.3l0,0L51.8,58v1.7h-1.5v3h5v-3h-1.5v-2.4
		c0-0.4-0.3-0.8-0.7-1l-16.8-5.2v-0.4h9.4c2,0,3.9-1.2,4.8-3l4.6-9.9c0.5-1.2,0.5-2.5-0.2-3.7c-0.7-1.1-1.9-1.8-3.2-1.8h-0.5
		c0.1-0.1,0.1-0.2,0.2-0.3c0.5-0.1,1.1-0.2,1.7-0.3c1.2-0.3,2.7-0.6,4.2-0.6c2.2,0,4.2-2,4.2-4.2C61.4,24.9,59.7,23.2,57.6,23.1z
		 M15.9,14.2V9.7c0-2.9,2.4-5.4,5.4-5.4h22.4c3,0,5.4,2.4,5.4,5.4v4.4c0,1.3-1.1,2.4-2.4,2.4H18.3C17,16.5,15.9,15.5,15.9,14.2z
		 M24.9,18.5h15.2v2.9H24.9V18.5z M14.6,25.8c0-1.3,1.1-2.4,2.4-2.4h31c1.3,0,2.4,1.1,2.4,2.4v2.4c0,3-2.4,5.4-5.4,5.4H20
		c-3,0-5.4-2.4-5.4-5.4L14.6,25.8L14.6,25.8z M12.4,29.8c-1.3-0.3-2.9-0.6-4.6-0.6c-1.2,0-2.2-1.2-2.2-2.2s0.8-1.8,1.8-1.8
		c1.9-0.1,3.9,1.3,5.2,2.8v0.3c0,0.6,0.1,1.1,0.2,1.7C12.7,29.8,12.6,29.8,12.4,29.8z M45.7,48.7H19.3c-1.3,0-2.4-0.7-2.9-1.9
		l-0.5-1.1h33.3l-0.5,1.1C48.2,47.9,47,48.7,45.7,48.7z M53.2,35.1c0.3,0.5,0.4,1.2,0.1,1.7l-3.2,6.9H14.9l-3.2-6.9
		c-0.3-0.6-0.2-1.2,0.1-1.7s0.9-0.8,1.5-0.8h2.6c1.2,0.8,2.6,1.2,4.1,1.2h25c1.5,0,2.9-0.5,4.1-1.2h2.6
		C52.3,34.3,52.8,34.6,53.2,35.1z M57.2,29.1c-1.7,0-3.3,0.4-4.6,0.6c-0.1,0-0.3,0.1-0.4,0.1c0.1-0.5,0.2-1.1,0.2-1.7v-0.3
		c1.3-1.5,3.3-2.9,5.2-2.8c1,0,1.8,0.8,1.8,1.8C59.4,27.9,58.4,29.1,57.2,29.1z"/>
</g>
</svg>
