<?xml version="1.0" encoding="utf-8"?>
<!-- Generator: Adobe Illustrator 27.2.0, SVG Export Plug-In . SVG Version: 6.00 Build 0)  -->
<svg version="1.1" id="Layer_1" xmlns="http://www.w3.org/2000/svg" xmlns:xlink="http://www.w3.org/1999/xlink" x="0px" y="0px"
	 viewBox="0 0 65 65" style="enable-background:new 0 0 65 65;" xml:space="preserve">
<style type="text/css">
	.st0{fill:#2E2E2E;}
</style>
<path class="st0" d="M48.7,30.4c0.6-1,0.7-2.1,0.1-3.1c-1-2-3.3-1.5-5-1.1c-2,0.5-3.4,0.7-4.4-0.4c-1.8-2,2.5-8.8,7.7-14.4
	c2-2.2,2.6-4.7,1.4-6.7c-1.1-1.9-3.5-2.8-5.8-2.2C39.9,3,37.3,3,34.6,2.9c-1.4,0-2.8,0-4.1,0c-2.8,0-5.4,0.1-8.1-0.6
	c-2.3-0.6-4.7,0.3-5.8,2.2c-1.2,2-0.6,4.5,1.4,6.7c5.2,5.6,9.5,12.4,7.7,14.4c-1,1.1-2.4,0.8-4.4,0.4c-1.8-0.4-4-0.9-5,1.1
	c-0.5,1.1-0.5,2.1,0.1,3.1c0.9,1.5,3.2,2.7,5.9,3.5l-5.6,27.7c-0.1,0.5,0.2,1.1,0.8,1.2c0.1,0,0.1,0,0.2,0c0.5,0,0.9-0.3,1-0.8
	l5.6-27.6c2.7,0.6,5.6,0.9,8.3,0.9s5.6-0.3,8.3-0.9L46.4,62c0.1,0.5,0.5,0.8,1,0.8c0.1,0,0.1,0,0.2,0c0.5-0.1,0.9-0.6,0.8-1.2
	l-5.6-27.7C45.5,33.1,47.7,31.9,48.7,30.4z M46.9,29.3c-1.3,2.2-8,4-14.5,4c-6.5,0-13.1-1.8-14.4-4c-0.2-0.4-0.3-0.8,0-1.2
	c0.1-0.3,0.4-0.4,0.8-0.4c0.4,0,1.1,0.1,2,0.3c1.9,0.4,4.5,1,6.3-1c3.6-4.1-5-14.1-7.7-17.1c-1.4-1.6-1.9-3.1-1.2-4.3
	c0.7-1.1,2.2-1.7,3.6-1.3C24.8,5,27.5,5,30.4,4.9c1.3,0,2.8,0,4.1,0c2.9,0,5.6,0.1,8.6-0.6c1.5-0.4,3,0.2,3.6,1.3
	c0.7,1.2,0.3,2.8-1.2,4.3c-2.7,3-11.4,13-7.7,17.1c1.8,2,4.4,1.4,6.3,1c1.9-0.4,2.5-0.5,2.8,0.1C47.2,28.6,47.2,28.9,46.9,29.3z"/>
</svg>
