<?xml version="1.0" encoding="utf-8"?>
<!-- Generator: Adobe Illustrator 27.0.0, SVG Export Plug-In . SVG Version: 6.00 Build 0)  -->
<svg version="1.1" id="Layer_1" xmlns="http://www.w3.org/2000/svg" xmlns:xlink="http://www.w3.org/1999/xlink" x="0px" y="0px"
	 viewBox="0 0 30 30" style="enable-background:new 0 0 30 30;" xml:space="preserve">
<g>
	<path d="M20.77,2.3H9.23c-3.93,0-7.13,3.2-7.13,7.13v11.53c0,3.93,3.2,7.13,7.13,7.13h11.53c3.93,0,7.13-3.2,7.13-7.13V9.43
		C27.89,5.5,24.7,2.3,20.77,2.3z M25.89,20.96c0,2.83-2.3,5.13-5.13,5.13H9.23c-2.83,0-5.13-2.3-5.13-5.13V9.43
		c0-2.83,2.3-5.13,5.13-5.13h11.53c2.83,0,5.13,2.3,5.13,5.13V20.96z"/>
	<path d="M15,8.49c-3.7,0-6.71,3.01-6.71,6.71s3.01,6.71,6.71,6.71s6.71-3.01,6.71-6.71S18.7,8.49,15,8.49z M15,19.91
		c-2.6,0-4.71-2.11-4.71-4.71c0-2.6,2.11-4.71,4.71-4.71s4.71,2.11,4.71,4.71C19.71,17.79,17.6,19.91,15,19.91z"/>
	<circle cx="21.62" cy="8.26" r="1.23"/>
</g>
</svg>
