<?xml version="1.0" encoding="utf-8"?>
<!-- Generator: Adobe Illustrator 27.0.0, SVG Export Plug-In . SVG Version: 6.00 Build 0)  -->
<svg version="1.1" id="Layer_1" xmlns="http://www.w3.org/2000/svg" xmlns:xlink="http://www.w3.org/1999/xlink" x="0px" y="0px"
	 viewBox="0 0 30 30" style="enable-background:new 0 0 30 30;" xml:space="preserve">
<g transform="translate(1.4065934065934016 1.4065934065934016) scale(2.81 2.81)">
	<path d="M3.03,8.79c3.67,0,5.67-3.04,5.67-5.67c0-0.09,0-0.17-0.01-0.26C9.09,2.57,9.43,2.22,9.7,1.82
		C9.34,1.98,8.96,2.09,8.55,2.14c0.41-0.25,0.73-0.64,0.88-1.1C9.04,1.26,8.62,1.43,8.16,1.52C7.8,1.13,7.28,0.89,6.71,0.89
		c-1.1,0-1.99,0.89-1.99,1.99c0,0.16,0.02,0.31,0.05,0.45C3.11,3.25,1.64,2.46,0.65,1.25c-0.17,0.29-0.27,0.64-0.27,1
		c0,0.69,0.35,1.3,0.89,1.66c-0.33-0.01-0.63-0.1-0.9-0.25c0,0.01,0,0.02,0,0.03c0,0.97,0.69,1.77,1.6,1.95
		C1.8,5.69,1.62,5.72,1.44,5.72c-0.13,0-0.25-0.01-0.37-0.04c0.25,0.79,0.99,1.37,1.86,1.39C2.25,7.6,1.39,7.92,0.45,7.92
		c-0.16,0-0.32-0.01-0.48-0.03C0.86,8.46,1.91,8.79,3.03,8.79"/>
</g>
</svg>
