<?xml version="1.0" encoding="utf-8"?>
<!-- Generator: Adobe Illustrator 27.0.0, SVG Export Plug-In . SVG Version: 6.00 Build 0)  -->
<svg version="1.1" id="Layer_1" xmlns="http://www.w3.org/2000/svg" xmlns:xlink="http://www.w3.org/1999/xlink" x="0px" y="0px"
	 viewBox="0 0 30 30" style="enable-background:new 0 0 30 30;" xml:space="preserve">
<g transform="translate(1.4065934065934016 1.4065934065934016) scale(2.81 2.81)">
	<path d="M2.81,9.48c0.35-0.29,0.92-1.26,1.05-1.76c0.07-0.27,0.35-1.35,0.35-1.35c0.19,0.35,0.73,0.65,1.3,0.65
		c1.71,0,2.95-1.58,2.95-3.54c0-1.88-1.53-3.28-3.51-3.28c-2.45,0-3.76,1.65-3.76,3.44c0,0.83,0.44,1.87,1.15,2.2
		c0.11,0.05,0.17,0.03,0.19-0.08C2.57,5.69,2.67,5.3,2.71,5.12c0.01-0.06,0.01-0.11-0.04-0.16c-0.23-0.28-0.42-0.81-0.42-1.3
		c0-1.25,0.95-2.47,2.57-2.47c1.4,0,2.38,0.95,2.38,2.31c0,1.54-0.78,2.6-1.79,2.6c-0.56,0-0.98-0.46-0.84-1.03
		c0.16-0.68,0.47-1.41,0.47-1.89c0-0.44-0.23-0.8-0.72-0.8c-0.57,0-1.03,0.59-1.03,1.38c0,0.5,0.17,0.84,0.17,0.84S2.89,7,2.78,7.44
		C2.67,7.93,2.72,8.62,2.77,9.07L2.81,9.48z"/>
</g>
</svg>
